<?xml version="1.0" encoding="UTF-8" standalone="no"?>
<!DOCTYPE svg PUBLIC "-//W3C//DTD SVG 1.1//EN"
 "http://www.w3.org/Graphics/SVG/1.1/DTD/svg11.dtd">
<!-- Generated by graphviz version 12.2.1 (20241206.2353)
 -->
<!-- Title: G Pages: 1 -->
<svg width="971pt" height="372pt"
 viewBox="0.00 0.00 970.75 371.50" xmlns="http://www.w3.org/2000/svg" xmlns:xlink="http://www.w3.org/1999/xlink">
<g id="graph0" class="graph" transform="scale(1 1) rotate(0) translate(4 367.5)">
<title>G</title>
<polygon fill="white" stroke="none" points="-4,4 -4,-367.5 966.75,-367.5 966.75,4 -4,4"/>
<!-- n1 -->
<g id="node1" class="node">
<title>n1</title>
<polygon fill="#ffd2d2" stroke="none" points="189.38,-4 189.38,-57 361.38,-57 361.38,-4 189.38,-4"/>
<polygon fill="none" stroke="black" points="189.38,-30.5 189.38,-57 361.38,-57 361.38,-30.5 189.38,-30.5"/>
<text text-anchor="start" x="194.38" y="-39.7" font-family="Times,serif" font-weight="bold" font-size="14.00">cpe</text>
<text text-anchor="start" x="213.88" y="-39.7" font-family="Times,serif" font-size="14.00"> (corretto (artifact to cpe))</text>
<polygon fill="none" stroke="black" points="189.38,-4 189.38,-30.5 361.38,-30.5 361.38,-4 189.38,-4"/>
<text text-anchor="start" x="226.25" y="-12.2" font-family="Times,serif" font-size="14.00">a:amazon:corretto</text>
</g>
<!-- n2 -->
<g id="node2" class="node">
<title>n2</title>
<polygon fill="#ffd2d2" stroke="none" points="395.38,-4 395.38,-57 567.38,-57 567.38,-4 395.38,-4"/>
<polygon fill="none" stroke="black" points="395.38,-30.5 395.38,-57 567.38,-57 567.38,-30.5 395.38,-30.5"/>
<text text-anchor="start" x="400.38" y="-39.7" font-family="Times,serif" font-weight="bold" font-size="14.00">cpe</text>
<text text-anchor="start" x="419.88" y="-39.7" font-family="Times,serif" font-size="14.00"> (corretto (artifact to cpe))</text>
<polygon fill="none" stroke="black" points="395.38,-4 395.38,-30.5 567.38,-30.5 567.38,-4 395.38,-4"/>
<text text-anchor="start" x="449.5" y="-12.2" font-family="Times,serif" font-size="14.00">a:oracle:jdk</text>
</g>
<!-- n3 -->
<g id="node3" class="node">
<title>n3</title>
<polygon fill="#ffd2d2" stroke="none" points="601.38,-4 601.38,-57 773.38,-57 773.38,-4 601.38,-4"/>
<polygon fill="none" stroke="black" points="601.38,-30.5 601.38,-57 773.38,-57 773.38,-30.5 601.38,-30.5"/>
<text text-anchor="start" x="606.38" y="-39.7" font-family="Times,serif" font-weight="bold" font-size="14.00">cpe</text>
<text text-anchor="start" x="625.88" y="-39.7" font-family="Times,serif" font-size="14.00"> (corretto (artifact to cpe))</text>
<polygon fill="none" stroke="black" points="601.38,-4 601.38,-30.5 773.38,-30.5 773.38,-4 601.38,-4"/>
<text text-anchor="start" x="657" y="-12.2" font-family="Times,serif" font-size="14.00">a:oracle:jre</text>
</g>
<!-- n4 -->
<g id="node4" class="node">
<title>n4</title>
<polygon fill="#d2d2ff" stroke="none" points="240.5,-280 240.5,-359.5 722.25,-359.5 722.25,-280 240.5,-280"/>
<polygon fill="none" stroke="black" points="240.5,-333 240.5,-359.5 722.25,-359.5 722.25,-333 240.5,-333"/>
<text text-anchor="start" x="388.75" y="-342.2" font-family="Times,serif" font-weight="bold" font-size="14.00">artifact</text>
<text text-anchor="start" x="431.5" y="-342.2" font-family="Times,serif" font-size="14.00"> (corretto (artifact to cpe))</text>
<polygon fill="none" stroke="black" points="240.5,-306.5 240.5,-333 722.25,-333 722.25,-306.5 240.5,-306.5"/>
<text text-anchor="start" x="348.62" y="-314.7" font-family="Times,serif" font-size="14.00">java runtime amazon&#45;corretto base identification</text>
<polygon fill="none" stroke="black" points="240.5,-280 240.5,-306.5 722.25,-306.5 722.25,-280 240.5,-280"/>
<text text-anchor="start" x="245.5" y="-288.2" font-family="Times,serif" font-size="14.00">{&quot;type&quot;:[&quot;java&#45;runtime&quot;],&quot;typeAttributes&quot;:{&quot;supplier&quot;:[&quot;AMAZON_CORRETTO&quot;]}}</text>
</g>
<!-- n5 -->
<g id="node5" class="node">
<title>n5</title>
<polygon fill="#f2da99" stroke="none" points="8,-112.25 8,-224.75 954.75,-224.75 954.75,-112.25 8,-112.25"/>
<polygon fill="none" stroke="black" points="8,-198.25 8,-224.75 954.75,-224.75 954.75,-198.25 8,-198.25"/>
<text text-anchor="start" x="458.5" y="-207.45" font-family="Times,serif" font-weight="bold" font-size="14.00">product</text>
<polygon fill="none" stroke="black" points="8,-171.75 8,-198.25 954.75,-198.25 954.75,-171.75 8,-171.75"/>
<text text-anchor="start" x="394.38" y="-179.95" font-family="Times,serif" font-size="14.00">Amazon Corretto Java Runtime</text>
<polygon fill="none" stroke="black" points="8,-112.25 8,-171.75 954.75,-171.75 954.75,-112.25 8,-112.25"/>
<text text-anchor="start" x="414.62" y="-153.45" font-family="Times,serif" font-size="14.00">corretto (artifact to cpe):</text>
<text text-anchor="start" x="13" y="-136.95" font-family="Times,serif" font-size="14.00">{&quot;source&quot;:[{&quot;version&quot;:&quot;/1\.1\.6[^0&#45;9](.*[^0&#45;9])?0*9([^0&#45;9].*)?/i&quot;}],&quot;target&quot;:[{&quot;filter&quot;:[{&quot;namespace&quot;:&quot;corretto (artifact to cpe)&quot;}],&quot;transform&quot;:{&quot;version&quot;:&quot;1.1.6_009&quot;}}]}</text>
<text text-anchor="start" x="13" y="-120.45" font-family="Times,serif" font-size="14.00">{&quot;source&quot;:[{&quot;version&quot;:&quot;/1\.1\.6[^0&#45;9](.*[^0&#45;9])?0*8([^0&#45;9].*)?/i&quot;}],&quot;target&quot;:[{&quot;filter&quot;:[{&quot;namespace&quot;:&quot;corretto (artifact to cpe)&quot;}],&quot;transform&quot;:{&quot;version&quot;:&quot;1.1.6_008&quot;}}]}</text>
</g>
<!-- n4&#45;&gt;n5 -->
<g id="edge1" class="edge">
<title>n4&#45;&gt;n5</title>
<path fill="none" stroke="#64c200" d="M481.38,-276.38C481.38,-265.03 481.38,-252.45 481.38,-240.02"/>
<polygon fill="#64c200" stroke="#64c200" points="484.88,-240.2 481.38,-230.2 477.88,-240.2 484.88,-240.2"/>
<text text-anchor="middle" x="484.75" y="-248.5" font-family="Times,serif" font-size="10.00">is</text>
</g>
<!-- n5&#45;&gt;n1 -->
<g id="edge2" class="edge">
<title>n5&#45;&gt;n1</title>
<path fill="none" stroke="#64c200" d="M391.92,-108.44C370.65,-94.4 348.59,-79.84 329.47,-67.21"/>
<polygon fill="#64c200" stroke="#64c200" points="331.58,-64.41 321.3,-61.82 327.72,-70.25 331.58,-64.41"/>
<text text-anchor="middle" x="363.3" y="-80.75" font-family="Times,serif" font-size="10.00">is</text>
</g>
<!-- n5&#45;&gt;n2 -->
<g id="edge3" class="edge">
<title>n5&#45;&gt;n2</title>
<path fill="none" stroke="#64c200" d="M481.38,-108.64C481.38,-96.38 481.38,-83.73 481.38,-72.3"/>
<polygon fill="#64c200" stroke="#64c200" points="484.88,-72.41 481.38,-62.41 477.88,-72.41 484.88,-72.41"/>
<text text-anchor="middle" x="484.75" y="-80.75" font-family="Times,serif" font-size="10.00">is</text>
</g>
<!-- n5&#45;&gt;n3 -->
<g id="edge4" class="edge">
<title>n5&#45;&gt;n3</title>
<path fill="none" stroke="#64c200" d="M570.83,-108.44C592.1,-94.4 614.16,-79.84 633.28,-67.21"/>
<polygon fill="#64c200" stroke="#64c200" points="635.03,-70.25 641.45,-61.82 631.17,-64.41 635.03,-70.25"/>
<text text-anchor="middle" x="618.24" y="-80.75" font-family="Times,serif" font-size="10.00">is</text>
</g>
</g>
</svg>
