<?xml version="1.0" encoding="UTF-8" standalone="no"?>
<!DOCTYPE svg PUBLIC "-//W3C//DTD SVG 1.1//EN"
 "http://www.w3.org/Graphics/SVG/1.1/DTD/svg11.dtd">
<!-- Generated by graphviz version 12.2.1 (20241206.2353)
 -->
<!-- Title: G Pages: 1 -->
<svg width="1001pt" height="96pt"
 viewBox="0.00 0.00 1001.00 95.50" xmlns="http://www.w3.org/2000/svg" xmlns:xlink="http://www.w3.org/1999/xlink">
<g id="graph0" class="graph" transform="scale(1 1) rotate(0) translate(4 91.5)">
<title>G</title>
<polygon fill="white" stroke="none" points="-4,4 -4,-91.5 997,-91.5 997,4 -4,4"/>
<!-- n1 -->
<g id="node1" class="node">
<title>n1</title>
<polygon fill="#ffd2d2" stroke="none" points="882,-17.25 882,-70.25 985,-70.25 985,-17.25 882,-17.25"/>
<polygon fill="none" stroke="black" points="882,-43.75 882,-70.25 985,-70.25 985,-43.75 882,-43.75"/>
<text text-anchor="start" x="923.75" y="-52.95" font-family="Times,serif" font-weight="bold" font-size="14.00">cpe</text>
<polygon fill="none" stroke="black" points="882,-17.25 882,-43.75 985,-43.75 985,-17.25 882,-17.25"/>
<text text-anchor="start" x="887" y="-25.45" font-family="Times,serif" font-size="14.00">a:ellucian:banner</text>
</g>
<!-- n2 -->
<g id="node2" class="node">
<title>n2</title>
<polygon fill="#d2d2ff" stroke="none" points="8,-4 8,-83.5 506.25,-83.5 506.25,-4 8,-4"/>
<polygon fill="none" stroke="black" points="8,-57 8,-83.5 506.25,-83.5 506.25,-57 8,-57"/>
<text text-anchor="start" x="235.75" y="-66.2" font-family="Times,serif" font-weight="bold" font-size="14.00">artifact</text>
<polygon fill="none" stroke="black" points="8,-30.5 8,-57 506.25,-57 506.25,-30.5 8,-30.5"/>
<text text-anchor="start" x="190" y="-38.7" font-family="Times,serif" font-size="14.00">npm @material / banner</text>
<polygon fill="none" stroke="black" points="8,-4 8,-30.5 506.25,-30.5 506.25,-4 8,-4"/>
<text text-anchor="start" x="13" y="-12.2" font-family="Times,serif" font-size="14.00">{&quot;type&quot;:[&quot;npm&quot;],&quot;typeAttributes&quot;:{&quot;scope&quot;:[&quot;@material&quot;],&quot;packageName&quot;:[&quot;banner&quot;]}}</text>
</g>
<!-- n3 -->
<g id="node3" class="node">
<title>n3</title>
<polygon fill="#f2da99" stroke="none" points="565,-17.25 565,-70.25 807.5,-70.25 807.5,-17.25 565,-17.25"/>
<polygon fill="none" stroke="black" points="565,-43.75 565,-70.25 807.5,-70.25 807.5,-43.75 565,-43.75"/>
<text text-anchor="start" x="663.38" y="-52.95" font-family="Times,serif" font-weight="bold" font-size="14.00">product</text>
<polygon fill="none" stroke="black" points="565,-17.25 565,-43.75 807.5,-43.75 807.5,-17.25 565,-17.25"/>
<text text-anchor="start" x="570" y="-25.45" font-family="Times,serif" font-size="14.00">NPM Material Design Banner Component</text>
</g>
<!-- n2&#45;&gt;n3 -->
<g id="edge1" class="edge">
<title>n2&#45;&gt;n3</title>
<path fill="none" stroke="#64c200" d="M513.98,-43.75C524.81,-43.75 535.49,-43.75 545.9,-43.75"/>
<polygon fill="#64c200" stroke="#64c200" points="545.57,-47.25 555.57,-43.75 545.57,-40.25 545.57,-47.25"/>
<text text-anchor="middle" x="535.62" y="-45.5" font-family="Times,serif" font-size="10.00">is</text>
</g>
<!-- n3&#45;&gt;n1 -->
<g id="edge2" class="edge">
<title>n3&#45;&gt;n1</title>
<path fill="none" stroke="#eb4034" d="M815.26,-43.75C831.64,-43.75 847.9,-43.75 862.85,-43.75"/>
<polygon fill="#eb4034" stroke="#eb4034" points="862.5,-47.25 872.5,-43.75 862.5,-40.25 862.5,-47.25"/>
<text text-anchor="middle" x="844.75" y="-45.5" font-family="Times,serif" font-size="10.00">is not</text>
</g>
</g>
</svg>
