<?xml version="1.0" encoding="UTF-8" standalone="no"?>
<!DOCTYPE svg PUBLIC "-//W3C//DTD SVG 1.1//EN"
        "http://www.w3.org/Graphics/SVG/1.1/DTD/svg11.dtd">
<!-- Generated by graphviz version 12.2.1 (20241206.2353)
 -->
<!-- Title: G Pages: 1 -->
<svg width="256pt" height="204pt"
     viewBox="0.00 0.00 256.12 203.75" xmlns="http://www.w3.org/2000/svg" xmlns:xlink="http://www.w3.org/1999/xlink">
    <g id="graph0" class="graph" transform="scale(1 1) rotate(0) translate(4 199.75)">
        <title>G</title>
        <polygon fill="white" stroke="none" points="-4,4 -4,-199.75 252.12,-199.75 252.12,4 -4,4"/>
        <!-- n1 -->
        <g id="node1" class="node">
            <title>n1</title>
            <polygon fill="#ffd2d2" stroke="none" points="8,-4 8,-57 110.25,-57 110.25,-4 8,-4"/>
            <polygon fill="none" stroke="black" points="8,-30.5 8,-57 110.25,-57 110.25,-30.5 8,-30.5"/>
            <text text-anchor="start" x="49.38" y="-39.7" font-family="Times,serif" font-weight="bold" font-size="14.00">cpe</text>
            <polygon fill="none" stroke="black" points="8,-4 8,-30.5 110.25,-30.5 110.25,-4 8,-4"/>
            <text text-anchor="start" x="13" y="-12.2" font-family="Times,serif" font-size="14.00">a:weechat:logger</text>
        </g>
        <!-- n2 -->
        <g id="node2" class="node">
            <title>n2</title>
            <polygon fill="#ffd2d2" stroke="none" points="144.75,-4 144.75,-57 233.5,-57 233.5,-4 144.75,-4"/>
            <polygon fill="none" stroke="black" points="144.75,-30.5 144.75,-57 233.5,-57 233.5,-30.5 144.75,-30.5"/>
            <text text-anchor="start" x="179.38" y="-39.7" font-family="Times,serif" font-weight="bold" font-size="14.00">cpe</text>
            <polygon fill="none" stroke="black" points="144.75,-4 144.75,-30.5 233.5,-30.5 233.5,-4 144.75,-4"/>
            <text text-anchor="start" x="149.75" y="-12.2" font-family="Times,serif" font-size="14.00">a:apache:log4j</text>
        </g>
        <!-- n3 -->
        <g id="node3" class="node">
            <title>n3</title>
            <polygon fill="#d2d2ff" stroke="none" points="8.12,-112.25 8.12,-191.75 240.12,-191.75 240.12,-112.25 8.12,-112.25"/>
            <polygon fill="none" stroke="black" points="8.12,-165.25 8.12,-191.75 240.12,-191.75 240.12,-165.25 8.12,-165.25"/>
            <text text-anchor="start" x="102.75" y="-174.45" font-family="Times,serif" font-weight="bold" font-size="14.00">artifact</text>
            <polygon fill="none" stroke="black" points="8.12,-138.75 8.12,-165.25 240.12,-165.25 240.12,-138.75 8.12,-138.75"/>
            <text text-anchor="start" x="92.25" y="-146.95" font-family="Times,serif" font-size="14.00">Log4J Core</text>
            <polygon fill="none" stroke="black" points="8.12,-112.25 8.12,-138.75 240.12,-138.75 240.12,-112.25 8.12,-112.25"/>
            <text text-anchor="start" x="13.12" y="-120.45" font-family="Times,serif" font-size="14.00">{&quot;type&quot;:[&quot;java&quot;],&quot;name&quot;:[&quot;log4j&#45;core&quot;]}</text>
        </g>
        <!-- n3&#45;&gt;n1 -->
        <g id="edge2" class="edge">
            <title>n3&#45;&gt;n1</title>
            <path fill="none" stroke="#eb4034" d="M101.03,-108.53C94.3,-96.16 86.98,-82.71 80.37,-70.56"/>
            <polygon fill="#eb4034" stroke="#eb4034" points="83.59,-69.16 75.74,-62.05 77.44,-72.51 83.59,-69.16"/>
            <text text-anchor="middle" x="100.93" y="-80.75" font-family="Times,serif" font-size="10.00">is not</text>
        </g>
        <!-- n3&#45;&gt;n2 -->
        <g id="edge1" class="edge">
            <title>n3&#45;&gt;n2</title>
            <path fill="none" stroke="#64c200" d="M147.22,-108.53C153.95,-96.16 161.27,-82.71 167.88,-70.56"/>
            <polygon fill="#64c200" stroke="#64c200" points="170.81,-72.51 172.51,-62.05 164.66,-69.16 170.81,-72.51"/>
            <text text-anchor="middle" x="165.82" y="-80.75" font-family="Times,serif" font-size="10.00">is</text>
        </g>
    </g>
</svg>
