<?xml version="1.0" encoding="UTF-8" standalone="no"?>
<!DOCTYPE svg PUBLIC "-//W3C//DTD SVG 1.1//EN"
 "http://www.w3.org/Graphics/SVG/1.1/DTD/svg11.dtd">
<!-- Generated by graphviz version 12.2.1 (20241206.2353)
 -->
<!-- Title: G Pages: 1 -->
<svg width="227pt" height="69pt"
 viewBox="0.00 0.00 227.25 69.00" xmlns="http://www.w3.org/2000/svg" xmlns:xlink="http://www.w3.org/1999/xlink">
<g id="graph0" class="graph" transform="scale(1 1) rotate(0) translate(4 65)">
<title>G</title>
<polygon fill="white" stroke="none" points="-4,4 -4,-65 223.25,-65 223.25,4 -4,4"/>
<!-- n1 -->
<g id="node1" class="node">
<title>n1</title>
<polygon fill="#ffd2d2" stroke="none" points="122.5,-4 122.5,-57 211.25,-57 211.25,-4 122.5,-4"/>
<polygon fill="none" stroke="black" points="122.5,-30.5 122.5,-57 211.25,-57 211.25,-30.5 122.5,-30.5"/>
<text text-anchor="start" x="157.12" y="-39.7" font-family="Times,serif" font-weight="bold" font-size="14.00">cpe</text>
<polygon fill="none" stroke="black" points="122.5,-4 122.5,-30.5 211.25,-30.5 211.25,-4 122.5,-4"/>
<text text-anchor="start" x="127.5" y="-12.2" font-family="Times,serif" font-size="14.00">a:apache:log4j</text>
</g>
<!-- n2 -->
<g id="node2" class="node">
<title>n2</title>
<polygon fill="#f2da99" stroke="none" points="8,-4 8,-57 63.75,-57 63.75,-4 8,-4"/>
<polygon fill="none" stroke="black" points="8,-30.5 8,-57 63.75,-57 63.75,-30.5 8,-30.5"/>
<text text-anchor="start" x="13" y="-39.7" font-family="Times,serif" font-weight="bold" font-size="14.00">product</text>
<polygon fill="none" stroke="black" points="8,-4 8,-30.5 63.75,-30.5 63.75,-4 8,-4"/>
<text text-anchor="start" x="19" y="-12.2" font-family="Times,serif" font-size="14.00">Log4J</text>
</g>
<!-- n2&#45;&gt;n1 -->
<g id="edge1" class="edge">
<title>n2&#45;&gt;n1</title>
<path fill="none" stroke="#64c200" d="M71.44,-30.5C81.3,-30.5 92.36,-30.5 103.34,-30.5"/>
<polygon fill="#64c200" stroke="#64c200" points="103.19,-34 113.19,-30.5 103.19,-27 103.19,-34"/>
<text text-anchor="middle" x="93.12" y="-32.25" font-family="Times,serif" font-size="10.00">is</text>
</g>
</g>
</svg>
