<?xml version="1.0" encoding="UTF-8" standalone="no"?>
<!DOCTYPE svg PUBLIC "-//W3C//DTD SVG 1.1//EN"
 "http://www.w3.org/Graphics/SVG/1.1/DTD/svg11.dtd">
<!-- Generated by graphviz version 12.2.1 (20241206.2353)
 -->
<!-- Title: G Pages: 1 -->
<svg width="1232pt" height="148pt"
 viewBox="0.00 0.00 1232.00 148.00" xmlns="http://www.w3.org/2000/svg" xmlns:xlink="http://www.w3.org/1999/xlink">
<g id="graph0" class="graph" transform="scale(1 1) rotate(0) translate(4 144)">
<title>G</title>
<polygon fill="white" stroke="none" points="-4,4 -4,-144 1228,-144 1228,4 -4,4"/>
<!-- n1 -->
<g id="node1" class="node">
<title>n1</title>
<polygon fill="#ffd2d2" stroke="none" points="997.5,-83 997.5,-136 1100.5,-136 1100.5,-83 997.5,-83"/>
<polygon fill="none" stroke="black" points="997.5,-109.5 997.5,-136 1100.5,-136 1100.5,-109.5 997.5,-109.5"/>
<text text-anchor="start" x="1039.25" y="-118.7" font-family="Times,serif" font-weight="bold" font-size="14.00">cpe</text>
<polygon fill="none" stroke="black" points="997.5,-83 997.5,-109.5 1100.5,-109.5 1100.5,-83 997.5,-83"/>
<text text-anchor="start" x="1002.5" y="-91.2" font-family="Times,serif" font-size="14.00">a:ellucian:banner</text>
</g>
<!-- n2 -->
<g id="node2" class="node">
<title>n2</title>
<polygon fill="#d2d2ff" stroke="none" points="8,-29.75 8,-109.25 506.25,-109.25 506.25,-29.75 8,-29.75"/>
<polygon fill="none" stroke="black" points="8,-82.75 8,-109.25 506.25,-109.25 506.25,-82.75 8,-82.75"/>
<text text-anchor="start" x="235.75" y="-91.95" font-family="Times,serif" font-weight="bold" font-size="14.00">artifact</text>
<polygon fill="none" stroke="black" points="8,-56.25 8,-82.75 506.25,-82.75 506.25,-56.25 8,-56.25"/>
<text text-anchor="start" x="190" y="-64.45" font-family="Times,serif" font-size="14.00">npm @material / banner</text>
<polygon fill="none" stroke="black" points="8,-29.75 8,-56.25 506.25,-56.25 506.25,-29.75 8,-29.75"/>
<text text-anchor="start" x="13" y="-37.95" font-family="Times,serif" font-size="14.00">{&quot;type&quot;:[&quot;npm&quot;],&quot;typeAttributes&quot;:{&quot;scope&quot;:[&quot;@material&quot;],&quot;packageName&quot;:[&quot;banner&quot;]}}</text>
</g>
<!-- n3 -->
<g id="node3" class="node">
<title>n3</title>
<polygon fill="#f2da99" stroke="none" points="565,-43 565,-96 807.5,-96 807.5,-43 565,-43"/>
<polygon fill="none" stroke="black" points="565,-69.5 565,-96 807.5,-96 807.5,-69.5 565,-69.5"/>
<text text-anchor="start" x="663.38" y="-78.7" font-family="Times,serif" font-weight="bold" font-size="14.00">product</text>
<polygon fill="none" stroke="black" points="565,-43 565,-69.5 807.5,-69.5 807.5,-43 565,-43"/>
<text text-anchor="start" x="570" y="-51.2" font-family="Times,serif" font-size="14.00">NPM Material Design Banner Component</text>
</g>
<!-- n2&#45;&gt;n3 -->
<g id="edge1" class="edge">
<title>n2&#45;&gt;n3</title>
<path fill="none" stroke="#64c200" d="M513.98,-69.5C524.81,-69.5 535.49,-69.5 545.9,-69.5"/>
<polygon fill="#64c200" stroke="#64c200" points="545.57,-73 555.57,-69.5 545.57,-66 545.57,-73"/>
<text text-anchor="middle" x="535.62" y="-71.25" font-family="Times,serif" font-size="10.00">is</text>
</g>
<!-- n3&#45;&gt;n1 -->
<g id="edge2" class="edge">
<title>n3&#45;&gt;n1</title>
<path fill="none" stroke="#eb4034" d="M815.45,-83.72C870.34,-89.8 932.28,-96.67 978.43,-101.79"/>
<polygon fill="#eb4034" stroke="#eb4034" points="977.98,-105.26 988.3,-102.88 978.75,-98.3 977.98,-105.26"/>
<text text-anchor="middle" x="844.75" y="-88.86" font-family="Times,serif" font-size="10.00">is not</text>
</g>
<!-- n4 -->
<g id="node4" class="node">
<title>n4</title>
<polygon fill="#ffd2d2" stroke="none" points="882,-4 882,-57 1216,-57 1216,-4 882,-4"/>
<polygon fill="none" stroke="black" points="882,-30.5 882,-57 1216,-57 1216,-30.5 882,-30.5"/>
<text text-anchor="start" x="1039.25" y="-39.7" font-family="Times,serif" font-weight="bold" font-size="14.00">cpe</text>
<polygon fill="none" stroke="black" points="882,-4 882,-30.5 1216,-30.5 1216,-4 882,-4"/>
<text text-anchor="start" x="887" y="-12.2" font-family="Times,serif" font-size="14.00">a:blogstand_banner_plugin_project:blogstand&#45;smart&#45;banner</text>
</g>
<!-- n3&#45;&gt;n4 -->
<g id="edge3" class="edge">
<title>n3&#45;&gt;n4</title>
<path fill="none" stroke="#eb4034" d="M815.45,-55.64C830.92,-53.97 846.95,-52.24 863.02,-50.5"/>
<polygon fill="#eb4034" stroke="#eb4034" points="863.08,-54.01 872.65,-49.46 862.33,-47.05 863.08,-54.01"/>
<text text-anchor="middle" x="844.75" y="-55.24" font-family="Times,serif" font-size="10.00">is not</text>
</g>
</g>
</svg>
