<?xml version="1.0" encoding="UTF-8" standalone="no"?>
<!DOCTYPE svg PUBLIC "-//W3C//DTD SVG 1.1//EN"
 "http://www.w3.org/Graphics/SVG/1.1/DTD/svg11.dtd">
<!-- Generated by graphviz version 12.2.1 (20241206.2353)
 -->
<!-- Title: G Pages: 1 -->
<svg width="644pt" height="312pt"
 viewBox="0.00 0.00 644.12 312.00" xmlns="http://www.w3.org/2000/svg" xmlns:xlink="http://www.w3.org/1999/xlink">
<g id="graph0" class="graph" transform="scale(1 1) rotate(0) translate(4 308)">
<title>G</title>
<polygon fill="white" stroke="none" points="-4,4 -4,-308 640.12,-308 640.12,4 -4,4"/>
<!-- n1 -->
<g id="node1" class="node">
<title>n1</title>
<polygon fill="#ffd2d2" stroke="none" points="44.25,-4 44.25,-57 120.25,-57 120.25,-4 44.25,-4"/>
<polygon fill="none" stroke="black" points="44.25,-30.5 44.25,-57 120.25,-57 120.25,-30.5 44.25,-30.5"/>
<text text-anchor="start" x="72.5" y="-39.7" font-family="Times,serif" font-weight="bold" font-size="14.00">cpe</text>
<polygon fill="none" stroke="black" points="44.25,-4 44.25,-30.5 120.25,-30.5 120.25,-4 44.25,-4"/>
<text text-anchor="start" x="49.25" y="-12.2" font-family="Times,serif" font-size="14.00">a:redis:redis</text>
</g>
<!-- n2 -->
<g id="node2" class="node">
<title>n2</title>
<polygon fill="#ffd2d2" stroke="none" points="154.38,-4 154.38,-57 252.12,-57 252.12,-4 154.38,-4"/>
<polygon fill="none" stroke="black" points="154.38,-30.5 154.38,-57 252.12,-57 252.12,-30.5 154.38,-30.5"/>
<text text-anchor="start" x="193.5" y="-39.7" font-family="Times,serif" font-weight="bold" font-size="14.00">cpe</text>
<polygon fill="none" stroke="black" points="154.38,-4 154.38,-30.5 252.12,-30.5 252.12,-4 154.38,-4"/>
<text text-anchor="start" x="159.38" y="-12.2" font-family="Times,serif" font-size="14.00">a:redislabs:redis</text>
</g>
<!-- n3 -->
<g id="node3" class="node">
<title>n3</title>
<polygon fill="#ffd2d2" stroke="none" points="286,-4 286,-57 426.5,-57 426.5,-4 286,-4"/>
<polygon fill="none" stroke="black" points="286,-30.5 286,-57 426.5,-57 426.5,-30.5 286,-30.5"/>
<text text-anchor="start" x="346.5" y="-39.7" font-family="Times,serif" font-weight="bold" font-size="14.00">cpe</text>
<polygon fill="none" stroke="black" points="286,-4 286,-30.5 426.5,-30.5 426.5,-4 286,-4"/>
<text text-anchor="start" x="291" y="-12.2" font-family="Times,serif" font-size="14.00">a:pivotal_software:redis</text>
</g>
<!-- n4 -->
<g id="node4" class="node">
<title>n4</title>
<polygon fill="#ffd2d2" stroke="none" points="472.25,-4 472.25,-57 566.25,-57 566.25,-4 472.25,-4"/>
<polygon fill="none" stroke="black" points="472.25,-30.5 472.25,-57 566.25,-57 566.25,-30.5 472.25,-30.5"/>
<text text-anchor="start" x="509.5" y="-39.7" font-family="Times,serif" font-weight="bold" font-size="14.00">cpe</text>
<polygon fill="none" stroke="black" points="472.25,-4 472.25,-30.5 566.25,-30.5 566.25,-4 472.25,-4"/>
<text text-anchor="start" x="477.25" y="-12.2" font-family="Times,serif" font-size="14.00">a:redis:redis&#45;py</text>
</g>
<!-- n5 -->
<g id="node5" class="node">
<title>n5</title>
<polygon fill="#d2d2ff" stroke="none" points="8,-220.5 8,-300 376.5,-300 376.5,-220.5 8,-220.5"/>
<polygon fill="none" stroke="black" points="8,-273.5 8,-300 376.5,-300 376.5,-273.5 8,-273.5"/>
<text text-anchor="start" x="170.88" y="-282.7" font-family="Times,serif" font-weight="bold" font-size="14.00">artifact</text>
<polygon fill="none" stroke="black" points="8,-247 8,-273.5 376.5,-273.5 376.5,-247 8,-247"/>
<text text-anchor="start" x="165.62" y="-255.2" font-family="Times,serif" font-size="14.00">Redis DB</text>
<polygon fill="none" stroke="black" points="8,-220.5 8,-247 376.5,-247 376.5,-220.5 8,-220.5"/>
<text text-anchor="start" x="13" y="-228.7" font-family="Times,serif" font-size="14.00">{&quot;artifact&quot;:{&quot;Id&quot;:[&quot;Redis&quot;,&quot;redis&#45;*/i&quot;],&quot;Component&quot;:[&quot;redis/i&quot;]}}</text>
</g>
<!-- n7 -->
<g id="node7" class="node">
<title>n7</title>
<polygon fill="#f2da99" stroke="none" points="171.62,-112.25 171.62,-165.25 234.88,-165.25 234.88,-112.25 171.62,-112.25"/>
<polygon fill="none" stroke="black" points="171.62,-138.75 171.62,-165.25 234.88,-165.25 234.88,-138.75 171.62,-138.75"/>
<text text-anchor="start" x="180.38" y="-147.95" font-family="Times,serif" font-weight="bold" font-size="14.00">product</text>
<polygon fill="none" stroke="black" points="171.62,-112.25 171.62,-138.75 234.88,-138.75 234.88,-112.25 171.62,-112.25"/>
<text text-anchor="start" x="176.62" y="-120.45" font-family="Times,serif" font-size="14.00">Redis DB</text>
</g>
<!-- n5&#45;&gt;n7 -->
<g id="edge1" class="edge">
<title>n5&#45;&gt;n7</title>
<path fill="none" stroke="#64c200" d="M196.16,-216.78C197.25,-204.91 198.44,-192.04 199.52,-180.28"/>
<polygon fill="#64c200" stroke="#64c200" points="202.99,-180.75 200.42,-170.48 196.02,-180.11 202.99,-180.75"/>
<text text-anchor="middle" x="202.11" y="-189" font-family="Times,serif" font-size="10.00">is</text>
</g>
<!-- n6 -->
<g id="node6" class="node">
<title>n6</title>
<polygon fill="#d2d2ff" stroke="none" points="410.38,-220.5 410.38,-300 628.12,-300 628.12,-220.5 410.38,-220.5"/>
<polygon fill="none" stroke="black" points="410.38,-273.5 410.38,-300 628.12,-300 628.12,-273.5 410.38,-273.5"/>
<text text-anchor="start" x="497.88" y="-282.7" font-family="Times,serif" font-weight="bold" font-size="14.00">artifact</text>
<polygon fill="none" stroke="black" points="410.38,-247 410.38,-273.5 628.12,-273.5 628.12,-247 410.38,-247"/>
<text text-anchor="start" x="457" y="-255.2" font-family="Times,serif" font-size="14.00">Redis Python Interface</text>
<polygon fill="none" stroke="black" points="410.38,-220.5 410.38,-247 628.12,-247 628.12,-220.5 410.38,-220.5"/>
<text text-anchor="start" x="415.38" y="-228.7" font-family="Times,serif" font-size="14.00">{&quot;type&quot;:[&quot;python&quot;],&quot;name&quot;:[&quot;redis&quot;]}</text>
</g>
<!-- n6&#45;&gt;n7 -->
<g id="edge3" class="edge">
<title>n6&#45;&gt;n7</title>
<path fill="none" stroke="#eb4034" d="M406.51,-216.61C354.11,-196.8 294.47,-174.25 253.41,-158.72"/>
<polygon fill="#eb4034" stroke="#eb4034" points="254.88,-155.53 244.28,-155.27 252.4,-162.08 254.88,-155.53"/>
<text text-anchor="middle" x="363.03" y="-189" font-family="Times,serif" font-size="10.00">is not</text>
</g>
<!-- n8 -->
<g id="node8" class="node">
<title>n8</title>
<polygon fill="#f2da99" stroke="none" points="452,-112.25 452,-165.25 586.5,-165.25 586.5,-112.25 452,-112.25"/>
<polygon fill="none" stroke="black" points="452,-138.75 452,-165.25 586.5,-165.25 586.5,-138.75 452,-138.75"/>
<text text-anchor="start" x="496.38" y="-147.95" font-family="Times,serif" font-weight="bold" font-size="14.00">product</text>
<polygon fill="none" stroke="black" points="452,-112.25 452,-138.75 586.5,-138.75 586.5,-112.25 452,-112.25"/>
<text text-anchor="start" x="457" y="-120.45" font-family="Times,serif" font-size="14.00">Redis Python Interface</text>
</g>
<!-- n6&#45;&gt;n8 -->
<g id="edge2" class="edge">
<title>n6&#45;&gt;n8</title>
<path fill="none" stroke="#64c200" d="M519.25,-216.78C519.25,-204.91 519.25,-192.04 519.25,-180.28"/>
<polygon fill="#64c200" stroke="#64c200" points="522.75,-180.48 519.25,-170.48 515.75,-180.48 522.75,-180.48"/>
<text text-anchor="middle" x="522.62" y="-189" font-family="Times,serif" font-size="10.00">is</text>
</g>
<!-- n7&#45;&gt;n1 -->
<g id="edge4" class="edge">
<title>n7&#45;&gt;n1</title>
<path fill="none" stroke="#64c200" d="M169.87,-108.44C155.71,-96.01 139.07,-81.39 124.11,-68.26"/>
<polygon fill="#64c200" stroke="#64c200" points="126.49,-65.69 116.66,-61.72 121.87,-70.95 126.49,-65.69"/>
<text text-anchor="middle" x="149.75" y="-80.75" font-family="Times,serif" font-size="10.00">is</text>
</g>
<!-- n7&#45;&gt;n2 -->
<g id="edge5" class="edge">
<title>n7&#45;&gt;n2</title>
<path fill="none" stroke="#64c200" d="M203.25,-108.44C203.25,-97.17 203.25,-84.11 203.25,-71.97"/>
<polygon fill="#64c200" stroke="#64c200" points="206.75,-72.23 203.25,-62.23 199.75,-72.23 206.75,-72.23"/>
<text text-anchor="middle" x="206.62" y="-80.75" font-family="Times,serif" font-size="10.00">is</text>
</g>
<!-- n7&#45;&gt;n3 -->
<g id="edge6" class="edge">
<title>n7&#45;&gt;n3</title>
<path fill="none" stroke="#64c200" d="M242.65,-110.39C261.53,-97.28 284.39,-81.4 304.64,-67.34"/>
<polygon fill="#64c200" stroke="#64c200" points="306.57,-70.26 312.79,-61.68 302.58,-64.51 306.57,-70.26"/>
<text text-anchor="middle" x="287.71" y="-80.75" font-family="Times,serif" font-size="10.00">is</text>
</g>
<!-- n8&#45;&gt;n4 -->
<g id="edge7" class="edge">
<title>n8&#45;&gt;n4</title>
<path fill="none" stroke="#64c200" d="M519.25,-108.44C519.25,-97.17 519.25,-84.11 519.25,-71.97"/>
<polygon fill="#64c200" stroke="#64c200" points="522.75,-72.23 519.25,-62.23 515.75,-72.23 522.75,-72.23"/>
<text text-anchor="middle" x="522.62" y="-80.75" font-family="Times,serif" font-size="10.00">is</text>
</g>
</g>
</svg>
