<?xml version="1.0" encoding="UTF-8" standalone="no"?>
<!DOCTYPE svg PUBLIC "-//W3C//DTD SVG 1.1//EN"
 "http://www.w3.org/Graphics/SVG/1.1/DTD/svg11.dtd">
<!-- Generated by graphviz version 12.2.1 (20241206.2353)
 -->
<!-- Title: G Pages: 1 -->
<svg width="880pt" height="582pt"
 viewBox="0.00 0.00 879.75 581.50" xmlns="http://www.w3.org/2000/svg" xmlns:xlink="http://www.w3.org/1999/xlink">
<g id="graph0" class="graph" transform="scale(1 1) rotate(0) translate(4 577.5)">
<title>G</title>
<polygon fill="white" stroke="none" points="-4,4 -4,-577.5 875.75,-577.5 875.75,4 -4,4"/>
<!-- n1 -->
<g id="node1" class="node">
<title>n1</title>
<polygon fill="#ffd2d2" stroke="none" points="505.62,-4 505.62,-57 652.12,-57 652.12,-4 505.62,-4"/>
<polygon fill="none" stroke="black" points="505.62,-30.5 505.62,-57 652.12,-57 652.12,-30.5 505.62,-30.5"/>
<text text-anchor="start" x="569.12" y="-39.7" font-family="Times,serif" font-weight="bold" font-size="14.00">cpe</text>
<polygon fill="none" stroke="black" points="505.62,-4 505.62,-30.5 652.12,-30.5 652.12,-4 505.62,-4"/>
<text text-anchor="start" x="510.62" y="-12.2" font-family="Times,serif" font-size="14.00">a:windows:media_player</text>
</g>
<!-- n2 -->
<g id="node2" class="node">
<title>n2</title>
<polygon fill="#ffd2d2" stroke="none" points="686.12,-4 686.12,-57 811.62,-57 811.62,-4 686.12,-4"/>
<polygon fill="none" stroke="black" points="686.12,-30.5 686.12,-57 811.62,-57 811.62,-30.5 686.12,-30.5"/>
<text text-anchor="start" x="739.12" y="-39.7" font-family="Times,serif" font-weight="bold" font-size="14.00">cpe</text>
<polygon fill="none" stroke="black" points="686.12,-4 686.12,-30.5 811.62,-30.5 811.62,-4 686.12,-4"/>
<text text-anchor="start" x="691.12" y="-12.2" font-family="Times,serif" font-size="14.00">o:microsoft:windows</text>
</g>
<!-- n3 -->
<g id="node3" class="node">
<title>n3</title>
<polygon fill="#ffd2d2" stroke="none" points="86.12,-112.25 86.12,-165.25 265.62,-165.25 265.62,-112.25 86.12,-112.25"/>
<polygon fill="none" stroke="black" points="86.12,-138.75 86.12,-165.25 265.62,-165.25 265.62,-138.75 86.12,-138.75"/>
<text text-anchor="start" x="166.12" y="-147.95" font-family="Times,serif" font-weight="bold" font-size="14.00">cpe</text>
<polygon fill="none" stroke="black" points="86.12,-112.25 86.12,-138.75 265.62,-138.75 265.62,-112.25 86.12,-112.25"/>
<text text-anchor="start" x="91.12" y="-120.45" font-family="Times,serif" font-size="14.00">o:microsoft:windows_10_21h2</text>
</g>
<!-- n4 -->
<g id="node4" class="node">
<title>n4</title>
<polygon fill="#ffd2d2" stroke="none" points="233,-4 233,-57 378.75,-57 378.75,-4 233,-4"/>
<polygon fill="none" stroke="black" points="233,-30.5 233,-57 378.75,-57 378.75,-30.5 233,-30.5"/>
<text text-anchor="start" x="296.12" y="-39.7" font-family="Times,serif" font-weight="bold" font-size="14.00">cpe</text>
<polygon fill="none" stroke="black" points="233,-4 233,-30.5 378.75,-30.5 378.75,-4 233,-4"/>
<text text-anchor="start" x="238" y="-12.2" font-family="Times,serif" font-size="14.00">o:microsoft:windows_10</text>
</g>
<!-- n5 -->
<g id="node5" class="node">
<title>n5</title>
<polygon fill="#f0f0f0" stroke="none" points="820,-233.75 820,-286.75 863.75,-286.75 863.75,-233.75 820,-233.75"/>
<polygon fill="none" stroke="black" points="820,-260.25 820,-286.75 863.75,-286.75 863.75,-260.25 820,-260.25"/>
<text text-anchor="start" x="833.25" y="-269.45" font-family="Times,serif" font-weight="bold" font-size="14.00">ms</text>
<polygon fill="none" stroke="black" points="820,-233.75 820,-260.25 863.75,-260.25 863.75,-233.75 820,-233.75"/>
<text text-anchor="start" x="825" y="-241.95" font-family="Times,serif" font-size="14.00">11929</text>
</g>
<!-- n6 -->
<g id="node6" class="node">
<title>n6</title>
<polygon fill="#f0f0f0" stroke="none" points="8,-112.25 8,-165.25 51.75,-165.25 51.75,-112.25 8,-112.25"/>
<polygon fill="none" stroke="black" points="8,-138.75 8,-165.25 51.75,-165.25 51.75,-138.75 8,-138.75"/>
<text text-anchor="start" x="21.25" y="-147.95" font-family="Times,serif" font-weight="bold" font-size="14.00">ms</text>
<polygon fill="none" stroke="black" points="8,-112.25 8,-138.75 51.75,-138.75 51.75,-112.25 8,-112.25"/>
<text text-anchor="start" x="13" y="-120.45" font-family="Times,serif" font-size="14.00">11931</text>
</g>
<!-- n7 -->
<g id="node7" class="node">
<title>n7</title>
<polygon fill="#ffffd2" stroke="none" points="412.5,-4 412.5,-57 471.25,-57 471.25,-4 412.5,-4"/>
<polygon fill="none" stroke="black" points="412.5,-30.5 412.5,-57 471.25,-57 471.25,-30.5 412.5,-30.5"/>
<text text-anchor="start" x="433.62" y="-39.7" font-family="Times,serif" font-weight="bold" font-size="14.00">eol</text>
<polygon fill="none" stroke="black" points="412.5,-4 412.5,-30.5 471.25,-30.5 471.25,-4 412.5,-4"/>
<text text-anchor="start" x="417.5" y="-12.2" font-family="Times,serif" font-size="14.00">windows</text>
</g>
<!-- n8 -->
<g id="node8" class="node">
<title>n8</title>
<polygon fill="#f2da99" stroke="none" points="483.38,-112.25 483.38,-165.25 562.38,-165.25 562.38,-112.25 483.38,-112.25"/>
<polygon fill="none" stroke="black" points="483.38,-138.75 483.38,-165.25 562.38,-165.25 562.38,-138.75 483.38,-138.75"/>
<text text-anchor="start" x="500" y="-147.95" font-family="Times,serif" font-weight="bold" font-size="14.00">product</text>
<polygon fill="none" stroke="black" points="483.38,-112.25 483.38,-138.75 562.38,-138.75 562.38,-112.25 483.38,-112.25"/>
<text text-anchor="start" x="488.38" y="-120.45" font-family="Times,serif" font-size="14.00">Windows 10</text>
</g>
<!-- n8&#45;&gt;n1 -->
<g id="edge3" class="edge">
<title>n8&#45;&gt;n1</title>
<path fill="none" stroke="#eb4034" d="M538.33,-108.44C544.45,-96.82 551.58,-83.3 558.13,-70.85"/>
<polygon fill="#eb4034" stroke="#eb4034" points="561.2,-72.54 562.77,-62.06 555.01,-69.27 561.2,-72.54"/>
<text text-anchor="middle" x="563.8" y="-80.75" font-family="Times,serif" font-size="10.00">is not</text>
</g>
<!-- n8&#45;&gt;n2 -->
<g id="edge4" class="edge">
<title>n8&#45;&gt;n2</title>
<path fill="none" stroke="#eb4034" d="M570.25,-115.48C601,-101.02 641.67,-81.9 676.43,-65.56"/>
<polygon fill="#eb4034" stroke="#eb4034" points="677.61,-68.87 685.17,-61.45 674.63,-62.54 677.61,-68.87"/>
<text text-anchor="middle" x="653.9" y="-80.75" font-family="Times,serif" font-size="10.00">is not</text>
</g>
<!-- n8&#45;&gt;n4 -->
<g id="edge1" class="edge">
<title>n8&#45;&gt;n4</title>
<path fill="none" stroke="#64c200" d="M475.52,-114.56C446.36,-100.29 408.46,-81.73 375.87,-65.77"/>
<polygon fill="#64c200" stroke="#64c200" points="377.83,-62.83 367.31,-61.58 374.75,-69.12 377.83,-62.83"/>
<text text-anchor="middle" x="424.26" y="-80.75" font-family="Times,serif" font-size="10.00">is</text>
</g>
<!-- n8&#45;&gt;n7 -->
<g id="edge2" class="edge">
<title>n8&#45;&gt;n7</title>
<path fill="none" stroke="#64c200" d="M505.84,-108.35C499.88,-98.74 492.92,-88.18 485.88,-79 483.4,-75.78 480.75,-72.52 478.02,-69.3"/>
<polygon fill="#64c200" stroke="#64c200" points="480.9,-67.27 471.68,-62.05 475.63,-71.88 480.9,-67.27"/>
<text text-anchor="middle" x="497.06" y="-80.75" font-family="Times,serif" font-size="10.00">is</text>
</g>
<!-- n9 -->
<g id="node9" class="node">
<title>n9</title>
<polygon fill="#f2da99" stroke="none" points="119.5,-233.75 119.5,-286.75 232.25,-286.75 232.25,-233.75 119.5,-233.75"/>
<polygon fill="none" stroke="black" points="119.5,-260.25 119.5,-286.75 232.25,-286.75 232.25,-260.25 119.5,-260.25"/>
<text text-anchor="start" x="153" y="-269.45" font-family="Times,serif" font-weight="bold" font-size="14.00">product</text>
<polygon fill="none" stroke="black" points="119.5,-233.75 119.5,-260.25 232.25,-260.25 232.25,-233.75 119.5,-233.75"/>
<text text-anchor="start" x="124.5" y="-241.95" font-family="Times,serif" font-size="14.00">Windows 10 21H2</text>
</g>
<!-- n9&#45;&gt;n3 -->
<g id="edge5" class="edge">
<title>n9&#45;&gt;n3</title>
<path fill="none" stroke="#64c200" d="M175.88,-230.02C175.88,-215.12 175.88,-196.75 175.88,-180.49"/>
<polygon fill="#64c200" stroke="#64c200" points="179.38,-180.61 175.88,-170.61 172.38,-180.61 179.38,-180.61"/>
<text text-anchor="middle" x="179.25" y="-189" font-family="Times,serif" font-size="10.00">is</text>
</g>
<!-- n9&#45;&gt;n4 -->
<g id="edge6" class="edge">
<title>n9&#45;&gt;n4</title>
<path fill="none" stroke="#64c200" d="M224.36,-229.88C245.64,-214.48 268.92,-193.71 282.88,-169.25 299.77,-139.63 305.04,-100.99 306.37,-72.17"/>
<polygon fill="#64c200" stroke="#64c200" points="309.86,-72.48 306.66,-62.38 302.86,-72.27 309.86,-72.48"/>
<text text-anchor="middle" x="349.01" y="-134.88" font-family="Times,serif" font-size="10.00">is ({&quot;version&quot;:&quot;21h2&quot;})</text>
</g>
<!-- n9&#45;&gt;n6 -->
<g id="edge8" class="edge">
<title>n9&#45;&gt;n6</title>
<path fill="none" stroke="#64c200" d="M140.16,-230.02C118.35,-212.16 90.46,-189.34 68.19,-171.11"/>
<polygon fill="#64c200" stroke="#64c200" points="70.46,-168.44 60.5,-164.82 66.02,-173.86 70.46,-168.44"/>
<text text-anchor="middle" x="101.87" y="-189" font-family="Times,serif" font-size="10.00">is</text>
</g>
<!-- n9&#45;&gt;n7 -->
<g id="edge7" class="edge">
<title>n9&#45;&gt;n7</title>
<path fill="none" stroke="#64c200" d="M222.57,-229.82C231.14,-225.02 240.14,-220.36 248.88,-216.5 313.18,-188.05 350.33,-219.16 399.88,-169.25 425.49,-143.45 435.56,-102.51 439.47,-71.96"/>
<polygon fill="#64c200" stroke="#64c200" points="442.92,-72.64 440.53,-62.31 435.96,-71.87 442.92,-72.64"/>
<text text-anchor="middle" x="435.38" y="-134.88" font-family="Times,serif" font-size="10.00">is</text>
</g>
<!-- n9&#45;&gt;n8 -->
<g id="edge9" class="edge">
<title>n9&#45;&gt;n8</title>
<path fill="none" stroke="#1689c4" d="M218.8,-229.95C228.34,-224.65 238.66,-219.77 248.88,-216.5 334.3,-189.18 366.7,-232.06 449.88,-198.5 462.72,-193.32 475.1,-185.08 485.9,-176.4"/>
<polygon fill="#1689c4" stroke="#1689c4" points="488.05,-179.16 493.42,-170.03 483.52,-173.82 488.05,-179.16"/>
<text text-anchor="middle" x="485.52" y="-189" font-family="Times,serif" font-size="10.00">inherits</text>
</g>
<!-- n10 -->
<g id="node10" class="node">
<title>n10</title>
<polygon fill="#f2da99" stroke="none" points="403.75,-368.5 403.75,-421.5 548,-421.5 548,-368.5 403.75,-368.5"/>
<polygon fill="none" stroke="black" points="403.75,-395 403.75,-421.5 548,-421.5 548,-395 403.75,-395"/>
<text text-anchor="start" x="453" y="-404.2" font-family="Times,serif" font-weight="bold" font-size="14.00">product</text>
<polygon fill="none" stroke="black" points="403.75,-368.5 403.75,-395 548,-395 548,-368.5 403.75,-368.5"/>
<text text-anchor="start" x="408.75" y="-376.7" font-family="Times,serif" font-size="14.00">Windows 10 21H2 32bit</text>
</g>
<!-- n10&#45;&gt;n5 -->
<g id="edge10" class="edge">
<title>n10&#45;&gt;n5</title>
<path fill="none" stroke="#64c200" d="M555.81,-384.72C625.26,-373.81 726.44,-350.85 802.88,-304 805.78,-302.22 808.6,-300.16 811.3,-297.93"/>
<polygon fill="#64c200" stroke="#64c200" points="813.44,-300.72 818.41,-291.37 808.69,-295.58 813.44,-300.72"/>
<text text-anchor="middle" x="765.86" y="-323.75" font-family="Times,serif" font-size="10.00">is</text>
</g>
<!-- n10&#45;&gt;n9 -->
<g id="edge11" class="edge">
<title>n10&#45;&gt;n9</title>
<path fill="none" stroke="#1689c4" d="M460.71,-364.66C451.15,-349.29 437.32,-331.69 419.88,-322 353.08,-284.87 321.48,-327.85 248.88,-304 242.28,-301.83 235.64,-299.01 229.18,-295.85"/>
<polygon fill="#1689c4" stroke="#1689c4" points="231.05,-292.88 220.57,-291.35 227.81,-299.08 231.05,-292.88"/>
<text text-anchor="middle" x="449.24" y="-323.75" font-family="Times,serif" font-size="10.00">inherits</text>
</g>
<!-- n11 -->
<g id="node11" class="node">
<title>n11</title>
<polygon fill="#f2da99" stroke="none" points="23.75,-368.5 23.75,-421.5 168,-421.5 168,-368.5 23.75,-368.5"/>
<polygon fill="none" stroke="black" points="23.75,-395 23.75,-421.5 168,-421.5 168,-395 23.75,-395"/>
<text text-anchor="start" x="73" y="-404.2" font-family="Times,serif" font-weight="bold" font-size="14.00">product</text>
<polygon fill="none" stroke="black" points="23.75,-368.5 23.75,-395 168,-395 168,-368.5 23.75,-368.5"/>
<text text-anchor="start" x="28.75" y="-376.7" font-family="Times,serif" font-size="14.00">Windows 10 21H2 64bit</text>
</g>
<!-- n11&#45;&gt;n6 -->
<g id="edge12" class="edge">
<title>n11&#45;&gt;n6</title>
<path fill="none" stroke="#64c200" d="M88.24,-364.59C76.41,-319.01 53.63,-231.26 40.3,-179.89"/>
<polygon fill="#64c200" stroke="#64c200" points="43.72,-179.16 37.82,-170.36 36.95,-180.92 43.72,-179.16"/>
<text text-anchor="middle" x="74.96" y="-256.38" font-family="Times,serif" font-size="10.00">is</text>
</g>
<!-- n11&#45;&gt;n9 -->
<g id="edge13" class="edge">
<title>n11&#45;&gt;n9</title>
<path fill="none" stroke="#1689c4" d="M113.63,-364.54C125.02,-345.63 139.95,-320.87 152.32,-300.33"/>
<polygon fill="#1689c4" stroke="#1689c4" points="155.22,-302.3 157.39,-291.93 149.23,-298.68 155.22,-302.3"/>
<text text-anchor="middle" x="153.65" y="-323.75" font-family="Times,serif" font-size="10.00">inherits</text>
</g>
<!-- n12 -->
<g id="node12" class="node">
<title>n12</title>
<polygon fill="#d2d2ff" stroke="none" points="265.88,-220.5 265.88,-300 785.88,-300 785.88,-220.5 265.88,-220.5"/>
<polygon fill="none" stroke="black" points="265.88,-273.5 265.88,-300 785.88,-300 785.88,-273.5 265.88,-273.5"/>
<text text-anchor="start" x="504.5" y="-282.7" font-family="Times,serif" font-weight="bold" font-size="14.00">artifact</text>
<polygon fill="none" stroke="black" points="265.88,-247 265.88,-273.5 785.88,-273.5 785.88,-247 265.88,-247"/>
<text text-anchor="start" x="491.38" y="-255.2" font-family="Times,serif" font-size="14.00">Windows 10</text>
<polygon fill="none" stroke="black" points="265.88,-220.5 265.88,-247 785.88,-247 785.88,-220.5 265.88,-220.5"/>
<text text-anchor="start" x="270.88" y="-228.7" font-family="Times,serif" font-size="14.00">{&quot;type&quot;:[&quot;operating system&quot;],&quot;artifact&quot;:{&quot;Id&quot;:[&quot;Microsoft Windows 10*&quot;,&quot;Windows 10*&quot;]}}</text>
</g>
<!-- n12&#45;&gt;n8 -->
<g id="edge14" class="edge">
<title>n12&#45;&gt;n8</title>
<path fill="none" stroke="#64c200" d="M524.81,-216.78C524.51,-204.91 524.19,-192.04 523.89,-180.28"/>
<polygon fill="#64c200" stroke="#64c200" points="527.4,-180.39 523.65,-170.48 520.4,-180.57 527.4,-180.39"/>
<text text-anchor="middle" x="527.66" y="-189" font-family="Times,serif" font-size="10.00">is</text>
</g>
<!-- n13 -->
<g id="node13" class="node">
<title>n13</title>
<polygon fill="#d2d2ff" stroke="none" points="201.75,-355.25 201.75,-434.75 370,-434.75 370,-355.25 201.75,-355.25"/>
<polygon fill="none" stroke="black" points="201.75,-408.25 201.75,-434.75 370,-434.75 370,-408.25 201.75,-408.25"/>
<text text-anchor="start" x="264.5" y="-417.45" font-family="Times,serif" font-weight="bold" font-size="14.00">artifact</text>
<polygon fill="none" stroke="black" points="201.75,-381.75 201.75,-408.25 370,-408.25 370,-381.75 201.75,-381.75"/>
<text text-anchor="start" x="234.5" y="-389.95" font-family="Times,serif" font-size="14.00">Windows 10 21H2</text>
<polygon fill="none" stroke="black" points="201.75,-355.25 201.75,-381.75 370,-381.75 370,-355.25 201.75,-355.25"/>
<text text-anchor="start" x="206.75" y="-363.45" font-family="Times,serif" font-size="14.00">{&quot;version&quot;:[&quot;10.0.19044*&quot;]}</text>
</g>
<!-- n13&#45;&gt;n9 -->
<g id="edge15" class="edge">
<title>n13&#45;&gt;n9</title>
<path fill="none" stroke="#64c200" d="M250.46,-351.27C236.58,-334.51 220.78,-315.44 207.31,-299.18"/>
<polygon fill="#64c200" stroke="#64c200" points="210.13,-297.1 201.06,-291.64 204.74,-301.57 210.13,-297.1"/>
<text text-anchor="middle" x="237.55" y="-323.75" font-family="Times,serif" font-size="10.00">is</text>
</g>
<!-- n13&#45;&gt;n12 -->
<g id="edge16" class="edge">
<title>n13&#45;&gt;n12</title>
<path fill="none" stroke="#1689c4" d="M343.04,-351.25C357.71,-341.1 373.71,-330.7 389.12,-322 397.01,-317.55 405.28,-313.19 413.68,-308.98"/>
<polygon fill="#1689c4" stroke="#1689c4" points="415.2,-312.13 422.63,-304.58 412.11,-305.85 415.2,-312.13"/>
<text text-anchor="middle" x="404.5" y="-323.75" font-family="Times,serif" font-size="10.00">inherits</text>
</g>
<!-- n14 -->
<g id="node14" class="node">
<title>n14</title>
<polygon fill="#d2d2ff" stroke="none" points="348.75,-490 348.75,-569.5 571,-569.5 571,-490 348.75,-490"/>
<polygon fill="none" stroke="black" points="348.75,-543 348.75,-569.5 571,-569.5 571,-543 348.75,-543"/>
<text text-anchor="start" x="438.5" y="-552.2" font-family="Times,serif" font-weight="bold" font-size="14.00">artifact</text>
<polygon fill="none" stroke="black" points="348.75,-516.5 348.75,-543 571,-543 571,-516.5 348.75,-516.5"/>
<text text-anchor="start" x="390.88" y="-524.7" font-family="Times,serif" font-size="14.00">Windows 10 21H2 32 bit</text>
<polygon fill="none" stroke="black" points="348.75,-490 348.75,-516.5 571,-516.5 571,-490 348.75,-490"/>
<text text-anchor="start" x="353.75" y="-498.2" font-family="Times,serif" font-size="14.00">{&quot;artifact&quot;:{&quot;Architecture&quot;:[&quot;*32*&quot;]}}</text>
</g>
<!-- n14&#45;&gt;n10 -->
<g id="edge17" class="edge">
<title>n14&#45;&gt;n10</title>
<path fill="none" stroke="#64c200" d="M465.03,-486.02C466.95,-470.04 469.13,-451.95 471.03,-436.21"/>
<polygon fill="#64c200" stroke="#64c200" points="474.45,-437.07 472.17,-426.73 467.5,-436.23 474.45,-437.07"/>
<text text-anchor="middle" x="471.73" y="-458.5" font-family="Times,serif" font-size="10.00">is</text>
</g>
<!-- n14&#45;&gt;n13 -->
<g id="edge18" class="edge">
<title>n14&#45;&gt;n13</title>
<path fill="none" stroke="#1689c4" d="M403.86,-486.02C386.94,-473.11 368.22,-458.83 350.78,-445.51"/>
<polygon fill="#1689c4" stroke="#1689c4" points="353.06,-442.85 342.99,-439.57 348.81,-448.42 353.06,-442.85"/>
<text text-anchor="middle" x="393.47" y="-458.5" font-family="Times,serif" font-size="10.00">inherits</text>
</g>
<!-- n15 -->
<g id="node15" class="node">
<title>n15</title>
<polygon fill="#d2d2ff" stroke="none" points="77.75,-490 77.75,-569.5 300,-569.5 300,-490 77.75,-490"/>
<polygon fill="none" stroke="black" points="77.75,-543 77.75,-569.5 300,-569.5 300,-543 77.75,-543"/>
<text text-anchor="start" x="167.5" y="-552.2" font-family="Times,serif" font-weight="bold" font-size="14.00">artifact</text>
<polygon fill="none" stroke="black" points="77.75,-516.5 77.75,-543 300,-543 300,-516.5 77.75,-516.5"/>
<text text-anchor="start" x="119.88" y="-524.7" font-family="Times,serif" font-size="14.00">Windows 10 21H2 64 bit</text>
<polygon fill="none" stroke="black" points="77.75,-490 77.75,-516.5 300,-516.5 300,-490 77.75,-490"/>
<text text-anchor="start" x="82.75" y="-498.2" font-family="Times,serif" font-size="14.00">{&quot;artifact&quot;:{&quot;Architecture&quot;:[&quot;*64*&quot;]}}</text>
</g>
<!-- n15&#45;&gt;n11 -->
<g id="edge19" class="edge">
<title>n15&#45;&gt;n11</title>
<path fill="none" stroke="#64c200" d="M158.94,-486.02C147.31,-469.42 134.09,-450.55 122.77,-434.39"/>
<polygon fill="#64c200" stroke="#64c200" points="125.82,-432.64 117.22,-426.46 120.09,-436.66 125.82,-432.64"/>
<text text-anchor="middle" x="148.54" y="-458.5" font-family="Times,serif" font-size="10.00">is</text>
</g>
<!-- n15&#45;&gt;n13 -->
<g id="edge20" class="edge">
<title>n15&#45;&gt;n13</title>
<path fill="none" stroke="#1689c4" d="M220.1,-486.02C229.01,-473.82 238.82,-460.39 248.08,-447.72"/>
<polygon fill="#1689c4" stroke="#1689c4" points="250.74,-450.01 253.82,-439.88 245.09,-445.88 250.74,-450.01"/>
<text text-anchor="middle" x="255.66" y="-458.5" font-family="Times,serif" font-size="10.00">inherits</text>
</g>
</g>
</svg>
