<?xml version="1.0" encoding="UTF-8" standalone="no"?>
<!DOCTYPE svg PUBLIC "-//W3C//DTD SVG 1.1//EN"
 "http://www.w3.org/Graphics/SVG/1.1/DTD/svg11.dtd">
<!-- Generated by graphviz version 12.2.1 (20241206.2353)
 -->
<!-- Title: G Pages: 1 -->
<svg width="542pt" height="312pt"
 viewBox="0.00 0.00 542.25 312.00" xmlns="http://www.w3.org/2000/svg" xmlns:xlink="http://www.w3.org/1999/xlink">
<g id="graph0" class="graph" transform="scale(1 1) rotate(0) translate(4 308)">
<title>G</title>
<polygon fill="white" stroke="none" points="-4,4 -4,-308 538.25,-308 538.25,4 -4,4"/>
<!-- n1 -->
<g id="node1" class="node">
<title>n1</title>
<polygon fill="#ffd2d2" stroke="none" points="8,-4 8,-57 84,-57 84,-4 8,-4"/>
<polygon fill="none" stroke="black" points="8,-30.5 8,-57 84,-57 84,-30.5 8,-30.5"/>
<text text-anchor="start" x="36.25" y="-39.7" font-family="Times,serif" font-weight="bold" font-size="14.00">cpe</text>
<polygon fill="none" stroke="black" points="8,-4 8,-30.5 84,-30.5 84,-4 8,-4"/>
<text text-anchor="start" x="13" y="-12.2" font-family="Times,serif" font-size="14.00">a:redis:redis</text>
</g>
<!-- n2 -->
<g id="node2" class="node">
<title>n2</title>
<polygon fill="#ffd2d2" stroke="none" points="118.12,-4 118.12,-57 215.88,-57 215.88,-4 118.12,-4"/>
<polygon fill="none" stroke="black" points="118.12,-30.5 118.12,-57 215.88,-57 215.88,-30.5 118.12,-30.5"/>
<text text-anchor="start" x="157.25" y="-39.7" font-family="Times,serif" font-weight="bold" font-size="14.00">cpe</text>
<polygon fill="none" stroke="black" points="118.12,-4 118.12,-30.5 215.88,-30.5 215.88,-4 118.12,-4"/>
<text text-anchor="start" x="123.12" y="-12.2" font-family="Times,serif" font-size="14.00">a:redislabs:redis</text>
</g>
<!-- n3 -->
<g id="node3" class="node">
<title>n3</title>
<polygon fill="#ffd2d2" stroke="none" points="249.75,-4 249.75,-57 390.25,-57 390.25,-4 249.75,-4"/>
<polygon fill="none" stroke="black" points="249.75,-30.5 249.75,-57 390.25,-57 390.25,-30.5 249.75,-30.5"/>
<text text-anchor="start" x="310.25" y="-39.7" font-family="Times,serif" font-weight="bold" font-size="14.00">cpe</text>
<polygon fill="none" stroke="black" points="249.75,-4 249.75,-30.5 390.25,-30.5 390.25,-4 249.75,-4"/>
<text text-anchor="start" x="254.75" y="-12.2" font-family="Times,serif" font-size="14.00">a:pivotal_software:redis</text>
</g>
<!-- n4 -->
<g id="node4" class="node">
<title>n4</title>
<polygon fill="#ffd2d2" stroke="none" points="424,-4 424,-57 518,-57 518,-4 424,-4"/>
<polygon fill="none" stroke="black" points="424,-30.5 424,-57 518,-57 518,-30.5 424,-30.5"/>
<text text-anchor="start" x="461.25" y="-39.7" font-family="Times,serif" font-weight="bold" font-size="14.00">cpe</text>
<polygon fill="none" stroke="black" points="424,-4 424,-30.5 518,-30.5 518,-4 424,-4"/>
<text text-anchor="start" x="429" y="-12.2" font-family="Times,serif" font-size="14.00">a:redis:redis&#45;py</text>
</g>
<!-- n5 -->
<g id="node5" class="node">
<title>n5</title>
<polygon fill="#f2da99" stroke="none" points="160.38,-112.25 160.38,-165.25 223.62,-165.25 223.62,-112.25 160.38,-112.25"/>
<polygon fill="none" stroke="black" points="160.38,-138.75 160.38,-165.25 223.62,-165.25 223.62,-138.75 160.38,-138.75"/>
<text text-anchor="start" x="169.12" y="-147.95" font-family="Times,serif" font-weight="bold" font-size="14.00">product</text>
<polygon fill="none" stroke="black" points="160.38,-112.25 160.38,-138.75 223.62,-138.75 223.62,-112.25 160.38,-112.25"/>
<text text-anchor="start" x="165.38" y="-120.45" font-family="Times,serif" font-size="14.00">Redis DB</text>
</g>
<!-- n5&#45;&gt;n1 -->
<g id="edge1" class="edge">
<title>n5&#45;&gt;n1</title>
<path fill="none" stroke="#64c200" d="M152.49,-109C134.93,-96.22 114.08,-81.04 95.5,-67.52"/>
<polygon fill="#64c200" stroke="#64c200" points="97.67,-64.78 87.53,-61.72 93.55,-70.44 97.67,-64.78"/>
<text text-anchor="middle" x="126.75" y="-80.75" font-family="Times,serif" font-size="10.00">is</text>
</g>
<!-- n5&#45;&gt;n2 -->
<g id="edge2" class="edge">
<title>n5&#45;&gt;n2</title>
<path fill="none" stroke="#64c200" d="M185.1,-108.44C182.42,-97.05 179.31,-83.84 176.44,-71.6"/>
<polygon fill="#64c200" stroke="#64c200" points="179.92,-71.12 174.22,-62.19 173.11,-72.73 179.92,-71.12"/>
<text text-anchor="middle" x="183.62" y="-80.75" font-family="Times,serif" font-size="10.00">is</text>
</g>
<!-- n5&#45;&gt;n3 -->
<g id="edge3" class="edge">
<title>n5&#45;&gt;n3</title>
<path fill="none" stroke="#64c200" d="M227.32,-108.44C242.42,-95.89 260.22,-81.12 276.16,-67.89"/>
<polygon fill="#64c200" stroke="#64c200" points="278.18,-70.77 283.64,-61.69 273.71,-65.38 278.18,-70.77"/>
<text text-anchor="middle" x="263.21" y="-80.75" font-family="Times,serif" font-size="10.00">is</text>
</g>
<!-- n6 -->
<g id="node6" class="node">
<title>n6</title>
<polygon fill="#f2da99" stroke="none" points="391.75,-112.25 391.75,-165.25 526.25,-165.25 526.25,-112.25 391.75,-112.25"/>
<polygon fill="none" stroke="black" points="391.75,-138.75 391.75,-165.25 526.25,-165.25 526.25,-138.75 391.75,-138.75"/>
<text text-anchor="start" x="436.12" y="-147.95" font-family="Times,serif" font-weight="bold" font-size="14.00">product</text>
<polygon fill="none" stroke="black" points="391.75,-112.25 391.75,-138.75 526.25,-138.75 526.25,-112.25 391.75,-112.25"/>
<text text-anchor="start" x="396.75" y="-120.45" font-family="Times,serif" font-size="14.00">Redis Python Interface</text>
</g>
<!-- n6&#45;&gt;n4 -->
<g id="edge4" class="edge">
<title>n6&#45;&gt;n4</title>
<path fill="none" stroke="#64c200" d="M462.31,-108.44C463.58,-97.17 465.06,-84.11 466.43,-71.97"/>
<polygon fill="#64c200" stroke="#64c200" points="469.89,-72.55 467.53,-62.22 462.93,-71.77 469.89,-72.55"/>
<text text-anchor="middle" x="468.73" y="-80.75" font-family="Times,serif" font-size="10.00">is</text>
</g>
<!-- n7 -->
<g id="node7" class="node">
<title>n7</title>
<polygon fill="#d2d2ff" stroke="none" points="130,-220.5 130,-300 254,-300 254,-220.5 130,-220.5"/>
<polygon fill="none" stroke="black" points="130,-273.5 130,-300 254,-300 254,-273.5 130,-273.5"/>
<text text-anchor="start" x="170.62" y="-282.7" font-family="Times,serif" font-weight="bold" font-size="14.00">artifact</text>
<polygon fill="none" stroke="black" points="130,-247 130,-273.5 254,-273.5 254,-247 130,-247"/>
<text text-anchor="start" x="165.38" y="-255.2" font-family="Times,serif" font-size="14.00">Redis DB</text>
<polygon fill="none" stroke="black" points="130,-220.5 130,-247 254,-247 254,-220.5 130,-220.5"/>
<text text-anchor="start" x="135" y="-228.7" font-family="Times,serif" font-size="14.00">{&quot;name&quot;:[&quot;redis/i&quot;]}</text>
</g>
<!-- n7&#45;&gt;n5 -->
<g id="edge5" class="edge">
<title>n7&#45;&gt;n5</title>
<path fill="none" stroke="#64c200" d="M192,-216.78C192,-204.91 192,-192.04 192,-180.28"/>
<polygon fill="#64c200" stroke="#64c200" points="195.5,-180.48 192,-170.48 188.5,-180.48 195.5,-180.48"/>
<text text-anchor="middle" x="195.38" y="-189" font-family="Times,serif" font-size="10.00">is</text>
</g>
<!-- n8 -->
<g id="node8" class="node">
<title>n8</title>
<polygon fill="#d2d2ff" stroke="none" points="295.12,-220.5 295.12,-300 512.88,-300 512.88,-220.5 295.12,-220.5"/>
<polygon fill="none" stroke="black" points="295.12,-273.5 295.12,-300 512.88,-300 512.88,-273.5 295.12,-273.5"/>
<text text-anchor="start" x="382.62" y="-282.7" font-family="Times,serif" font-weight="bold" font-size="14.00">artifact</text>
<polygon fill="none" stroke="black" points="295.12,-247 295.12,-273.5 512.88,-273.5 512.88,-247 295.12,-247"/>
<text text-anchor="start" x="341.75" y="-255.2" font-family="Times,serif" font-size="14.00">Redis Python Interface</text>
<polygon fill="none" stroke="black" points="295.12,-220.5 295.12,-247 512.88,-247 512.88,-220.5 295.12,-220.5"/>
<text text-anchor="start" x="300.12" y="-228.7" font-family="Times,serif" font-size="14.00">{&quot;type&quot;:[&quot;python&quot;],&quot;name&quot;:[&quot;redis&quot;]}</text>
</g>
<!-- n8&#45;&gt;n5 -->
<g id="edge7" class="edge">
<title>n8&#45;&gt;n5</title>
<path fill="none" stroke="#eb4034" d="M328.36,-216.61C299.49,-200.34 267.34,-182.22 241.51,-167.66"/>
<polygon fill="#eb4034" stroke="#eb4034" points="243.33,-164.67 232.9,-162.81 239.89,-170.77 243.33,-164.67"/>
<text text-anchor="middle" x="302.89" y="-189" font-family="Times,serif" font-size="10.00">is not</text>
</g>
<!-- n8&#45;&gt;n6 -->
<g id="edge6" class="edge">
<title>n8&#45;&gt;n6</title>
<path fill="none" stroke="#64c200" d="M423.55,-216.78C429.18,-204.54 435.31,-191.23 440.85,-179.18"/>
<polygon fill="#64c200" stroke="#64c200" points="443.92,-180.89 444.92,-170.34 437.56,-177.96 443.92,-180.89"/>
<text text-anchor="middle" x="439.8" y="-189" font-family="Times,serif" font-size="10.00">is</text>
</g>
</g>
</svg>
