<?xml version="1.0" encoding="UTF-8" standalone="no"?>
<!DOCTYPE svg PUBLIC "-//W3C//DTD SVG 1.1//EN"
        "http://www.w3.org/Graphics/SVG/1.1/DTD/svg11.dtd">
<!-- Generated by graphviz version 12.2.1 (20241206.2353)
 -->
<!-- Title: G Pages: 1 -->
<svg width="796pt" height="447pt"
     viewBox="0.00 0.00 795.88 446.75" xmlns="http://www.w3.org/2000/svg" xmlns:xlink="http://www.w3.org/1999/xlink">
    <g id="graph0" class="graph" transform="scale(1 1) rotate(0) translate(4 442.75)">
        <title>G</title>
        <polygon fill="white" stroke="none" points="-4,4 -4,-442.75 791.88,-442.75 791.88,4 -4,4"/>
        <!-- n1 -->
        <g id="node1" class="node">
            <title>n1</title>
            <polygon fill="#ffd2d2" stroke="none" points="542.25,-112.25 542.25,-165.25 709,-165.25 709,-112.25 542.25,-112.25"/>
            <polygon fill="none" stroke="black" points="542.25,-138.75 542.25,-165.25 709,-165.25 709,-138.75 542.25,-138.75"/>
            <text text-anchor="start" x="615.88" y="-147.95" font-family="Times,serif" font-weight="bold" font-size="14.00">cpe</text>
            <polygon fill="none" stroke="black" points="542.25,-112.25 542.25,-138.75 709,-138.75 709,-112.25 542.25,-112.25"/>
            <text text-anchor="start" x="547.25" y="-120.45" font-family="Times,serif" font-size="14.00">a:grails:spring_security_core</text>
        </g>
        <!-- n2 -->
        <g id="node2" class="node">
            <title>n2</title>
            <polygon fill="#ffd2d2" stroke="none" points="348.12,-4 348.12,-57 499.12,-57 499.12,-4 348.12,-4"/>
            <polygon fill="none" stroke="black" points="348.12,-30.5 348.12,-57 499.12,-57 499.12,-30.5 348.12,-30.5"/>
            <text text-anchor="start" x="413.88" y="-39.7" font-family="Times,serif" font-weight="bold" font-size="14.00">cpe</text>
            <polygon fill="none" stroke="black" points="348.12,-4 348.12,-30.5 499.12,-30.5 499.12,-4 348.12,-4"/>
            <text text-anchor="start" x="353.12" y="-12.2" font-family="Times,serif" font-size="14.00">a:vmware:spring_security</text>
        </g>
        <!-- n3 -->
        <g id="node3" class="node">
            <title>n3</title>
            <polygon fill="#d2d2ff" stroke="none" points="399.38,-355.25 399.38,-434.75 779.88,-434.75 779.88,-355.25 399.38,-355.25"/>
            <polygon fill="none" stroke="black" points="399.38,-408.25 399.38,-434.75 779.88,-434.75 779.88,-408.25 399.38,-408.25"/>
            <text text-anchor="start" x="568.25" y="-417.45" font-family="Times,serif" font-weight="bold" font-size="14.00">artifact</text>
            <polygon fill="none" stroke="black" points="399.38,-381.75 399.38,-408.25 779.88,-408.25 779.88,-381.75 399.38,-381.75"/>
            <text text-anchor="start" x="494.38" y="-389.95" font-family="Times,serif" font-size="14.00">Grails Spring Security Core Plugin</text>
            <polygon fill="none" stroke="black" points="399.38,-355.25 399.38,-381.75 779.88,-381.75 779.88,-355.25 399.38,-355.25"/>
            <text text-anchor="start" x="404.38" y="-363.45" font-family="Times,serif" font-size="14.00">{&quot;name&quot;:[&quot;spring&#45;security&#45;core&quot;],&quot;group id&quot;:[&quot;org.grails.plugins&quot;]}</text>
        </g>
        <!-- n5 -->
        <g id="node5" class="node">
            <title>n5</title>
            <polygon fill="#f2da99" stroke="none" points="489.38,-233.75 489.38,-286.75 689.88,-286.75 689.88,-233.75 489.38,-233.75"/>
            <polygon fill="none" stroke="black" points="489.38,-260.25 489.38,-286.75 689.88,-286.75 689.88,-260.25 489.38,-260.25"/>
            <text text-anchor="start" x="566.75" y="-269.45" font-family="Times,serif" font-weight="bold" font-size="14.00">product</text>
            <polygon fill="none" stroke="black" points="489.38,-233.75 489.38,-260.25 689.88,-260.25 689.88,-233.75 489.38,-233.75"/>
            <text text-anchor="start" x="494.38" y="-241.95" font-family="Times,serif" font-size="14.00">Grails Spring Security Core Plugin</text>
        </g>
        <!-- n3&#45;&gt;n5 -->
        <g id="edge1" class="edge">
            <title>n3&#45;&gt;n5</title>
            <path fill="none" stroke="#64c200" d="M589.62,-351.27C589.62,-335.44 589.62,-317.55 589.62,-301.92"/>
            <polygon fill="#64c200" stroke="#64c200" points="593.13,-301.99 589.63,-291.99 586.13,-301.99 593.13,-301.99"/>
            <text text-anchor="middle" x="593" y="-323.75" font-family="Times,serif" font-size="10.00">is</text>
        </g>
        <!-- n4 -->
        <g id="node4" class="node">
            <title>n4</title>
            <polygon fill="#d2d2ff" stroke="none" points="8,-220.5 8,-300 455.25,-300 455.25,-220.5 8,-220.5"/>
            <polygon fill="none" stroke="black" points="8,-273.5 8,-300 455.25,-300 455.25,-273.5 8,-273.5"/>
            <text text-anchor="start" x="210.25" y="-282.7" font-family="Times,serif" font-weight="bold" font-size="14.00">artifact</text>
            <polygon fill="none" stroke="black" points="8,-247 8,-273.5 455.25,-273.5 455.25,-247 8,-247"/>
            <text text-anchor="start" x="152.12" y="-255.2" font-family="Times,serif" font-size="14.00">Spring Security Core Library</text>
            <polygon fill="none" stroke="black" points="8,-220.5 8,-247 455.25,-247 455.25,-220.5 8,-220.5"/>
            <text text-anchor="start" x="13" y="-228.7" font-family="Times,serif" font-size="14.00">{&quot;name&quot;:[&quot;spring&#45;security&#45;core&quot;],&quot;group id&quot;:[&quot;org.springframework.security&quot;]}</text>
        </g>
        <!-- n6 -->
        <g id="node6" class="node">
            <title>n6</title>
            <polygon fill="#f2da99" stroke="none" points="339.12,-112.25 339.12,-165.25 508.12,-165.25 508.12,-112.25 339.12,-112.25"/>
            <polygon fill="none" stroke="black" points="339.12,-138.75 339.12,-165.25 508.12,-165.25 508.12,-138.75 339.12,-138.75"/>
            <text text-anchor="start" x="400.75" y="-147.95" font-family="Times,serif" font-weight="bold" font-size="14.00">product</text>
            <polygon fill="none" stroke="black" points="339.12,-112.25 339.12,-138.75 508.12,-138.75 508.12,-112.25 339.12,-112.25"/>
            <text text-anchor="start" x="344.12" y="-120.45" font-family="Times,serif" font-size="14.00">Spring Security Core Library</text>
        </g>
        <!-- n4&#45;&gt;n6 -->
        <g id="edge2" class="edge">
            <title>n4&#45;&gt;n6</title>
            <path fill="none" stroke="#64c200" d="M300.13,-216.61C321.98,-203.02 345.9,-188.13 366.82,-175.1"/>
            <polygon fill="#64c200" stroke="#64c200" points="368.59,-178.12 375.23,-169.87 364.89,-172.18 368.59,-178.12"/>
            <text text-anchor="middle" x="348.2" y="-189" font-family="Times,serif" font-size="10.00">is</text>
        </g>
        <!-- n5&#45;&gt;n1 -->
        <g id="edge3" class="edge">
            <title>n5&#45;&gt;n1</title>
            <path fill="none" stroke="#64c200" d="M598.43,-230.02C602.96,-214.97 608.56,-196.4 613.49,-180.02"/>
            <polygon fill="#64c200" stroke="#64c200" points="616.81,-181.13 616.35,-170.54 610.11,-179.11 616.81,-181.13"/>
            <text text-anchor="middle" x="614.22" y="-189" font-family="Times,serif" font-size="10.00">is</text>
        </g>
        <!-- n5&#45;&gt;n6 -->
        <g id="edge4" class="edge">
            <title>n5&#45;&gt;n6</title>
            <path fill="none" stroke="#eb4034" d="M549.02,-230.02C526.31,-213.67 497.81,-193.15 473.72,-175.82"/>
            <polygon fill="#eb4034" stroke="#eb4034" points="475.78,-172.98 465.62,-169.98 471.69,-178.66 475.78,-172.98"/>
            <text text-anchor="middle" x="512.9" y="-189" font-family="Times,serif" font-size="10.00">is not</text>
        </g>
        <!-- n6&#45;&gt;n2 -->
        <g id="edge5" class="edge">
            <title>n6&#45;&gt;n2</title>
            <path fill="none" stroke="#64c200" d="M423.62,-108.44C423.62,-97.17 423.62,-84.11 423.62,-71.97"/>
            <polygon fill="#64c200" stroke="#64c200" points="427.13,-72.23 423.63,-62.23 420.13,-72.23 427.13,-72.23"/>
            <text text-anchor="middle" x="427" y="-80.75" font-family="Times,serif" font-size="10.00">is</text>
        </g>
        <!-- n6&#45;&gt;n5 -->
        <g id="edge6" class="edge">
            <title>n6&#45;&gt;n5</title>
            <path fill="none" stroke="#eb4034" d="M499.65,-169.21C509.8,-174.54 519.76,-180.56 528.62,-187.25 541.13,-196.69 552.81,-209.12 562.52,-220.99"/>
            <polygon fill="#eb4034" stroke="#eb4034" points="559.68,-223.03 568.62,-228.72 565.17,-218.7 559.68,-223.03"/>
            <text text-anchor="middle" x="551.63" y="-189" font-family="Times,serif" font-size="10.00">is not</text>
        </g>
    </g>
</svg>
