<?xml version="1.0" encoding="UTF-8" standalone="no"?>
<!DOCTYPE svg PUBLIC "-//W3C//DTD SVG 1.1//EN"
 "http://www.w3.org/Graphics/SVG/1.1/DTD/svg11.dtd">
<!-- Generated by graphviz version 12.2.1 (20241206.2353)
 -->
<!-- Title: G Pages: 1 -->
<svg width="879pt" height="148pt"
 viewBox="0.00 0.00 878.50 148.00" xmlns="http://www.w3.org/2000/svg" xmlns:xlink="http://www.w3.org/1999/xlink">
<g id="graph0" class="graph" transform="scale(1 1) rotate(0) translate(4 144)">
<title>G</title>
<polygon fill="white" stroke="none" points="-4,4 -4,-144 874.5,-144 874.5,4 -4,4"/>
<!-- n1 -->
<g id="node1" class="node">
<title>n1</title>
<polygon fill="#ffd2d2" stroke="none" points="630.5,-83 630.5,-136 862.5,-136 862.5,-83 630.5,-83"/>
<polygon fill="none" stroke="black" points="630.5,-109.5 630.5,-136 862.5,-136 862.5,-109.5 630.5,-109.5"/>
<text text-anchor="start" x="736.75" y="-118.7" font-family="Times,serif" font-weight="bold" font-size="14.00">cpe</text>
<polygon fill="none" stroke="black" points="630.5,-83 630.5,-109.5 862.5,-109.5 862.5,-83 630.5,-83"/>
<text text-anchor="start" x="635.5" y="-91.2" font-family="Times,serif" font-size="14.00">a:cloudfoundry:command_line_interface</text>
</g>
<!-- n2 -->
<g id="node2" class="node">
<title>n2</title>
<polygon fill="#ffd2d2" stroke="none" points="386.25,-4 386.25,-57 571.75,-57 571.75,-4 386.25,-4"/>
<polygon fill="none" stroke="black" points="386.25,-30.5 386.25,-57 571.75,-57 571.75,-30.5 386.25,-30.5"/>
<text text-anchor="start" x="469.25" y="-39.7" font-family="Times,serif" font-weight="bold" font-size="14.00">cpe</text>
<polygon fill="none" stroke="black" points="386.25,-4 386.25,-30.5 571.75,-30.5 571.75,-4 386.25,-4"/>
<text text-anchor="start" x="391.25" y="-12.2" font-family="Times,serif" font-size="14.00">a:cloudfoundry:cloud_controller</text>
</g>
<!-- n3 -->
<g id="node3" class="node">
<title>n3</title>
<polygon fill="#d2d2ff" stroke="none" points="194.88,-83 194.88,-136 306.12,-136 306.12,-83 194.88,-83"/>
<polygon fill="none" stroke="black" points="194.88,-109.5 194.88,-136 306.12,-136 306.12,-109.5 194.88,-109.5"/>
<text text-anchor="start" x="229.12" y="-118.7" font-family="Times,serif" font-weight="bold" font-size="14.00">artifact</text>
<polygon fill="none" stroke="black" points="194.88,-83 194.88,-109.5 306.12,-109.5 306.12,-83 194.88,-83"/>
<text text-anchor="start" x="199.88" y="-91.2" font-family="Times,serif" font-size="14.00">Cloudfoundry CLI</text>
</g>
<!-- n6 -->
<g id="node6" class="node">
<title>n6</title>
<polygon fill="#f2da99" stroke="none" points="423.38,-83 423.38,-136 534.62,-136 534.62,-83 423.38,-83"/>
<polygon fill="none" stroke="black" points="423.38,-109.5 423.38,-136 534.62,-136 534.62,-109.5 423.38,-109.5"/>
<text text-anchor="start" x="456.12" y="-118.7" font-family="Times,serif" font-weight="bold" font-size="14.00">product</text>
<polygon fill="none" stroke="black" points="423.38,-83 423.38,-109.5 534.62,-109.5 534.62,-83 423.38,-83"/>
<text text-anchor="start" x="428.38" y="-91.2" font-family="Times,serif" font-size="14.00">Cloudfoundry CLI</text>
</g>
<!-- n3&#45;&gt;n6 -->
<g id="edge1" class="edge">
<title>n3&#45;&gt;n6</title>
<path fill="none" stroke="#64c200" d="M313.99,-109.5C341.97,-109.5 375.15,-109.5 404.33,-109.5"/>
<polygon fill="#64c200" stroke="#64c200" points="404.2,-113 414.2,-109.5 404.2,-106 404.2,-113"/>
<text text-anchor="middle" x="349" y="-111.25" font-family="Times,serif" font-size="10.00">is</text>
</g>
<!-- n4 -->
<g id="node4" class="node">
<title>n4</title>
<polygon fill="#d2d2ff" stroke="none" points="8,-4 8,-57 130.5,-57 130.5,-4 8,-4"/>
<polygon fill="none" stroke="black" points="8,-30.5 8,-57 130.5,-57 130.5,-30.5 8,-30.5"/>
<text text-anchor="start" x="47.88" y="-39.7" font-family="Times,serif" font-weight="bold" font-size="14.00">artifact</text>
<polygon fill="none" stroke="black" points="8,-4 8,-30.5 130.5,-30.5 130.5,-4 8,-4"/>
<text text-anchor="start" x="13" y="-12.2" font-family="Times,serif" font-size="14.00">CF Cloud Controller</text>
</g>
<!-- n5 -->
<g id="node5" class="node">
<title>n5</title>
<polygon fill="#f2da99" stroke="none" points="189.25,-4 189.25,-57 311.75,-57 311.75,-4 189.25,-4"/>
<polygon fill="none" stroke="black" points="189.25,-30.5 189.25,-57 311.75,-57 311.75,-30.5 189.25,-30.5"/>
<text text-anchor="start" x="227.62" y="-39.7" font-family="Times,serif" font-weight="bold" font-size="14.00">product</text>
<polygon fill="none" stroke="black" points="189.25,-4 189.25,-30.5 311.75,-30.5 311.75,-4 189.25,-4"/>
<text text-anchor="start" x="194.25" y="-12.2" font-family="Times,serif" font-size="14.00">CF Cloud Controller</text>
</g>
<!-- n4&#45;&gt;n5 -->
<g id="edge2" class="edge">
<title>n4&#45;&gt;n5</title>
<path fill="none" stroke="#64c200" d="M138.27,-30.5C148.67,-30.5 159.49,-30.5 170.11,-30.5"/>
<polygon fill="#64c200" stroke="#64c200" points="170.01,-34 180.01,-30.5 170.01,-27 170.01,-34"/>
<text text-anchor="middle" x="159.88" y="-32.25" font-family="Times,serif" font-size="10.00">is</text>
</g>
<!-- n5&#45;&gt;n2 -->
<g id="edge3" class="edge">
<title>n5&#45;&gt;n2</title>
<path fill="none" stroke="#64c200" d="M319.46,-30.5C334.49,-30.5 350.8,-30.5 367.05,-30.5"/>
<polygon fill="#64c200" stroke="#64c200" points="366.75,-34 376.75,-30.5 366.75,-27 366.75,-34"/>
<text text-anchor="middle" x="349" y="-32.25" font-family="Times,serif" font-size="10.00">is</text>
</g>
<!-- n5&#45;&gt;n6 -->
<g id="edge4" class="edge">
<title>n5&#45;&gt;n6</title>
<path fill="none" stroke="#eb4034" d="M319.46,-54.2C346.38,-63.59 377.38,-74.41 404.79,-83.97"/>
<polygon fill="#eb4034" stroke="#eb4034" points="403.48,-87.22 414.07,-87.2 405.79,-80.61 403.48,-87.22"/>
<text text-anchor="middle" x="349" y="-69.38" font-family="Times,serif" font-size="10.00">is not</text>
</g>
<!-- n6&#45;&gt;n1 -->
<g id="edge5" class="edge">
<title>n6&#45;&gt;n1</title>
<path fill="none" stroke="#64c200" d="M542.58,-109.5C563.3,-109.5 587.21,-109.5 611.18,-109.5"/>
<polygon fill="#64c200" stroke="#64c200" points="611.06,-113 621.06,-109.5 611.06,-106 611.06,-113"/>
<text text-anchor="middle" x="601.12" y="-111.25" font-family="Times,serif" font-size="10.00">is</text>
</g>
</g>
</svg>
