<?xml version="1.0" encoding="UTF-8" standalone="no"?>
<!DOCTYPE svg PUBLIC "-//W3C//DTD SVG 1.1//EN"
 "http://www.w3.org/Graphics/SVG/1.1/DTD/svg11.dtd">
<!-- Generated by graphviz version 12.2.1 (20241206.2353)
 -->
<!-- Title: G Pages: 1 -->
<svg width="1086pt" height="96pt"
 viewBox="0.00 0.00 1085.75 95.50" xmlns="http://www.w3.org/2000/svg" xmlns:xlink="http://www.w3.org/1999/xlink">
<g id="graph0" class="graph" transform="scale(1 1) rotate(0) translate(4 91.5)">
<title>G</title>
<polygon fill="white" stroke="none" points="-4,4 -4,-91.5 1081.75,-91.5 1081.75,4 -4,4"/>
<!-- n1 -->
<g id="node1" class="node">
<title>n1</title>
<polygon fill="#ffd2d2" stroke="none" points="859.5,-17.25 859.5,-70.25 1069.75,-70.25 1069.75,-17.25 859.5,-17.25"/>
<polygon fill="none" stroke="black" points="859.5,-43.75 859.5,-70.25 1069.75,-70.25 1069.75,-43.75 859.5,-43.75"/>
<text text-anchor="start" x="954.88" y="-52.95" font-family="Times,serif" font-weight="bold" font-size="14.00">cpe</text>
<polygon fill="none" stroke="black" points="859.5,-17.25 859.5,-43.75 1069.75,-43.75 1069.75,-17.25 859.5,-17.25"/>
<text text-anchor="start" x="864.5" y="-25.45" font-family="Times,serif" font-size="14.00">a:uniswap:web3&#45;react_walletconnect</text>
</g>
<!-- n2 -->
<g id="node2" class="node">
<title>n2</title>
<polygon fill="#f2da99" stroke="none" points="645.25,-17.25 645.25,-70.25 800.75,-70.25 800.75,-17.25 645.25,-17.25"/>
<polygon fill="none" stroke="black" points="645.25,-43.75 645.25,-70.25 800.75,-70.25 800.75,-43.75 645.25,-43.75"/>
<text text-anchor="start" x="700.12" y="-52.95" font-family="Times,serif" font-weight="bold" font-size="14.00">product</text>
<polygon fill="none" stroke="black" points="645.25,-17.25 645.25,-43.75 800.75,-43.75 800.75,-17.25 645.25,-17.25"/>
<text text-anchor="start" x="650.25" y="-25.45" font-family="Times,serif" font-size="14.00">NPM React Walletconnect</text>
</g>
<!-- n2&#45;&gt;n1 -->
<g id="edge1" class="edge">
<title>n2&#45;&gt;n1</title>
<path fill="none" stroke="#64c200" d="M808.48,-43.75C818.88,-43.75 829.67,-43.75 840.5,-43.75"/>
<polygon fill="#64c200" stroke="#64c200" points="840.27,-47.25 850.27,-43.75 840.27,-40.25 840.27,-47.25"/>
<text text-anchor="middle" x="830.12" y="-45.5" font-family="Times,serif" font-size="10.00">is</text>
</g>
<!-- n3 -->
<g id="node3" class="node">
<title>n3</title>
<polygon fill="#d2d2ff" stroke="none" points="8,-4 8,-83.5 586.5,-83.5 586.5,-4 8,-4"/>
<polygon fill="none" stroke="black" points="8,-57 8,-83.5 586.5,-83.5 586.5,-57 8,-57"/>
<text text-anchor="start" x="275.88" y="-66.2" font-family="Times,serif" font-weight="bold" font-size="14.00">artifact</text>
<polygon fill="none" stroke="black" points="8,-30.5 8,-57 586.5,-57 586.5,-30.5 8,-30.5"/>
<text text-anchor="start" x="230.5" y="-38.7" font-family="Times,serif" font-size="14.00">npm react walletconnect</text>
<polygon fill="none" stroke="black" points="8,-4 8,-30.5 586.5,-30.5 586.5,-4 8,-4"/>
<text text-anchor="start" x="13" y="-12.2" font-family="Times,serif" font-size="14.00">{&quot;type&quot;:[&quot;npm&quot;],&quot;name&quot;:[&quot;web3&#45;react_walletconnect&quot;,&quot;walletconnect&quot;,&quot;@web3&#45;react/walletconnect&quot;]}</text>
</g>
<!-- n3&#45;&gt;n2 -->
<g id="edge2" class="edge">
<title>n3&#45;&gt;n2</title>
<path fill="none" stroke="#64c200" d="M594.29,-43.75C605.34,-43.75 616.04,-43.75 626.21,-43.75"/>
<polygon fill="#64c200" stroke="#64c200" points="625.96,-47.25 635.96,-43.75 625.96,-40.25 625.96,-47.25"/>
<text text-anchor="middle" x="615.88" y="-45.5" font-family="Times,serif" font-size="10.00">is</text>
</g>
</g>
</svg>
