<svg xmlns="http://www.w3.org/2000/svg" xmlns:xlink="http://www.w3.org/1999/xlink" contentStyleType="text/css" data-diagram-type="CLASS" height="324px" preserveAspectRatio="none" style="width:1469px;height:324px;background:#FFFFFF;" version="1.1" viewBox="0 0 1469 324" width="1469px" zoomAndPan="magnify"><defs/><g><!--cluster Typed Artifacts--><g class="cluster" data-entity="Typed Artifacts" data-source-line="9" data-uid="ent0002" id="cluster_Typed Artifacts"><path d="M13.5,11 L137.9922,11 A3.75,3.75 0 0 1 140.4922,13.5 L147.4922,38.0146 L1459.5,38.0146 A2.5,2.5 0 0 1 1462,40.5146 L1462,314.62 A2.5,2.5 0 0 1 1459.5,317.12 L13.5,317.12 A2.5,2.5 0 0 1 11,314.62 L11,13.5 A2.5,2.5 0 0 1 13.5,11" fill="#FFFFFF" style="stroke:#000000;stroke-width:1;"/><line style="stroke:#000000;stroke-width:1;" x1="11" x2="147.4922" y1="38.0146" y2="38.0146"/><text fill="#000000" font-family="Verdana" font-size="14" font-weight="bold" lengthAdjust="spacing" textLength="119.4922" x="17" y="29.0752">Typed Artifacts</text></g><!--class TypedArtifact--><g class="entity" data-entity="TypedArtifact" data-source-line="10" data-uid="ent0003" id="entity_TypedArtifact"><rect fill="#FFFFFF" height="131.0732" rx="2.5" ry="2.5" style="stroke:#000000;stroke-width:1;" width="175.626" x="621.19" y="170.05"/><ellipse cx="656.6381" cy="185.5573" fill="#FFFFFF" rx="9" ry="9" style="stroke:#000000;stroke-width:1;"/><path d="M659.6113,191.2004 Q659.0302,191.4992 658.3911,191.6486 Q657.7519,191.798 657.0463,191.798 Q654.5395,191.798 653.2197,190.1462 Q651.8999,188.4943 651.8999,185.3732 Q651.8999,182.2438 653.2197,180.592 Q654.5395,178.9401 657.0463,178.9401 Q657.7519,178.9401 658.3994,179.0896 Q659.0468,179.239 659.6113,179.5378 L659.6113,182.2604 Q658.9804,181.6794 658.3869,181.4096 Q657.7934,181.1398 657.1626,181.1398 Q655.8178,181.1398 655.133,182.2065 Q654.4482,183.2731 654.4482,185.3732 Q654.4482,187.465 655.133,188.5317 Q655.8178,189.5983 657.1626,189.5983 Q657.7934,189.5983 658.3869,189.3286 Q658.9804,189.0588 659.6113,188.4777 Z " fill="#000000"/><text fill="#000000" font-family="Verdana" font-size="14" lengthAdjust="spacing" textLength="93.7412" x="675.6266" y="191.1252">TypedArtifact</text><line style="stroke:#000000;stroke-width:1;" x1="622.19" x2="795.816" y1="201.0646" y2="201.0646"/><text fill="#000000" font-family="Verdana" font-size="14" lengthAdjust="spacing" textLength="81.1631" x="629.19" y="221.1398">purl: String</text><text fill="#000000" font-family="Verdana" font-size="14" lengthAdjust="spacing" textLength="104.8564" x="629.19" y="242.1545">version: String</text><text fill="#000000" font-family="Verdana" font-size="14" lengthAdjust="spacing" textLength="92.9893" x="629.19" y="263.1691">name: String</text><text fill="#000000" font-family="Verdana" font-size="14" lengthAdjust="spacing" textLength="159.626" x="629.19" y="284.1838">sourceArtifact: Artifact</text><line style="stroke:#000000;stroke-width:1;" x1="622.19" x2="795.816" y1="293.1232" y2="293.1232"/></g><!--class JavaTypedArtifact--><g class="entity" data-entity="JavaTypedArtifact" data-source-line="16" data-uid="ent0004" id="entity_JavaTypedArtifact"><rect fill="#FFFFFF" height="68.0293" rx="2.5" ry="2.5" style="stroke:#000000;stroke-width:1;" width="157.207" x="27.4" y="61.51"/><ellipse cx="40.4" cy="77.0173" fill="#FFFFFF" rx="9" ry="9" style="stroke:#000000;stroke-width:1;"/><path d="M43.3731,82.6604 Q42.7921,82.9592 42.1529,83.1086 Q41.5138,83.258 40.8082,83.258 Q38.3014,83.258 36.9815,81.6062 Q35.6617,79.9543 35.6617,76.8332 Q35.6617,73.7038 36.9815,72.052 Q38.3014,70.4001 40.8082,70.4001 Q41.5138,70.4001 42.1612,70.5496 Q42.8087,70.699 43.3731,70.9978 L43.3731,73.7204 Q42.7423,73.1394 42.1488,72.8696 Q41.5553,72.5998 40.9244,72.5998 Q39.5797,72.5998 38.8949,73.6665 Q38.2101,74.7331 38.2101,76.8332 Q38.2101,78.925 38.8949,79.9917 Q39.5797,81.0583 40.9244,81.0583 Q41.5553,81.0583 42.1488,80.7886 Q42.7423,80.5188 43.3731,79.9377 Z " fill="#000000"/><text fill="#000000" font-family="Verdana" font-size="14" lengthAdjust="spacing" textLength="125.207" x="54.4" y="82.5852">JavaTypedArtifact</text><line style="stroke:#000000;stroke-width:1;" x1="28.4" x2="183.607" y1="92.5246" y2="92.5246"/><text fill="#000000" font-family="Verdana" font-size="14" lengthAdjust="spacing" textLength="109.1563" x="35.4" y="112.5998">groupId: String</text><line style="stroke:#000000;stroke-width:1;" x1="28.4" x2="183.607" y1="121.5393" y2="121.5393"/></g><!--class JavaRuntimeTypeArtifact--><g class="entity" data-entity="JavaRuntimeTypeArtifact" data-source-line="19" data-uid="ent0005" id="entity_JavaRuntimeTypeArtifact"><rect fill="#FFFFFF" height="89.0439" rx="2.5" ry="2.5" style="stroke:#000000;stroke-width:1;" width="207.2529" x="194.37" y="51"/><ellipse cx="207.37" cy="66.5073" fill="#FFFFFF" rx="9" ry="9" style="stroke:#000000;stroke-width:1;"/><path d="M210.3431,72.1504 Q209.7621,72.4492 209.1229,72.5986 Q208.4838,72.748 207.7782,72.748 Q205.2714,72.748 203.9515,71.0962 Q202.6317,69.4443 202.6317,66.3232 Q202.6317,63.1938 203.9515,61.542 Q205.2714,59.8901 207.7782,59.8901 Q208.4838,59.8901 209.1312,60.0396 Q209.7787,60.189 210.3431,60.4878 L210.3431,63.2104 Q209.7123,62.6294 209.1188,62.3596 Q208.5253,62.0898 207.8944,62.0898 Q206.5497,62.0898 205.8649,63.1565 Q205.1801,64.2231 205.1801,66.3232 Q205.1801,68.415 205.8649,69.4817 Q206.5497,70.5483 207.8944,70.5483 Q208.5253,70.5483 209.1188,70.2786 Q209.7123,70.0088 210.3431,69.4277 Z " fill="#000000"/><text fill="#000000" font-family="Verdana" font-size="14" lengthAdjust="spacing" textLength="175.2529" x="221.37" y="72.0752">JavaRuntimeTypeArtifact</text><line style="stroke:#000000;stroke-width:1;" x1="195.37" x2="400.6229" y1="82.0146" y2="82.0146"/><text fill="#000000" font-family="Verdana" font-size="14" lengthAdjust="spacing" textLength="124.749" x="202.37" y="102.0898">supplier: Supplier</text><text fill="#000000" font-family="Verdana" font-size="14" lengthAdjust="spacing" textLength="111.1523" x="202.37" y="123.1045">variant: Variant</text><line style="stroke:#000000;stroke-width:1;" x1="195.37" x2="400.6229" y1="132.0439" y2="132.0439"/></g><!--class LinuxTypedArtifact--><g class="entity" data-entity="LinuxTypedArtifact" data-source-line="23" data-uid="ent0006" id="entity_LinuxTypedArtifact"><rect fill="#FFFFFF" height="68.0293" rx="2.5" ry="2.5" style="stroke:#000000;stroke-width:1;" width="163.3799" x="411.31" y="61.51"/><ellipse cx="424.31" cy="77.0173" fill="#FFFFFF" rx="9" ry="9" style="stroke:#000000;stroke-width:1;"/><path d="M427.2831,82.6604 Q426.7021,82.9592 426.0629,83.1086 Q425.4238,83.258 424.7182,83.258 Q422.2114,83.258 420.8915,81.6062 Q419.5717,79.9543 419.5717,76.8332 Q419.5717,73.7038 420.8915,72.052 Q422.2114,70.4001 424.7182,70.4001 Q425.4238,70.4001 426.0712,70.5496 Q426.7187,70.699 427.2831,70.9978 L427.2831,73.7204 Q426.6523,73.1394 426.0588,72.8696 Q425.4653,72.5998 424.8344,72.5998 Q423.4897,72.5998 422.8049,73.6665 Q422.1201,74.7331 422.1201,76.8332 Q422.1201,78.925 422.8049,79.9917 Q423.4897,81.0583 424.8344,81.0583 Q425.4653,81.0583 426.0588,80.7886 Q426.6523,80.5188 427.2831,79.9377 Z " fill="#000000"/><text fill="#000000" font-family="Verdana" font-size="14" lengthAdjust="spacing" textLength="131.3799" x="438.31" y="82.5852">LinuxTypedArtifact</text><line style="stroke:#000000;stroke-width:1;" x1="412.31" x2="573.6899" y1="92.5246" y2="92.5246"/><text fill="#000000" font-family="Verdana" font-size="14" lengthAdjust="spacing" textLength="133.2529" x="419.31" y="112.5998">distribution: String</text><line style="stroke:#000000;stroke-width:1;" x1="412.31" x2="573.6899" y1="121.5393" y2="121.5393"/></g><!--class OperatingSystemTypedArtifact--><g class="entity" data-entity="OperatingSystemTypedArtifact" data-source-line="26" data-uid="ent0007" id="entity_OperatingSystemTypedArtifact"><rect fill="#FFFFFF" height="47.0146" rx="2.5" ry="2.5" style="stroke:#000000;stroke-width:1;" width="247.7695" x="585.12" y="72.02"/><ellipse cx="598.12" cy="87.5273" fill="#FFFFFF" rx="9" ry="9" style="stroke:#000000;stroke-width:1;"/><path d="M601.0931,93.1704 Q600.5121,93.4692 599.8729,93.6186 Q599.2338,93.768 598.5282,93.768 Q596.0214,93.768 594.7015,92.1162 Q593.3817,90.4643 593.3817,87.3432 Q593.3817,84.2138 594.7015,82.562 Q596.0214,80.9101 598.5282,80.9101 Q599.2338,80.9101 599.8812,81.0596 Q600.5287,81.209 601.0931,81.5078 L601.0931,84.2304 Q600.4623,83.6494 599.8688,83.3796 Q599.2753,83.1098 598.6444,83.1098 Q597.2997,83.1098 596.6149,84.1765 Q595.9301,85.2431 595.9301,87.3432 Q595.9301,89.435 596.6149,90.5017 Q597.2997,91.5683 598.6444,91.5683 Q599.2753,91.5683 599.8688,91.2986 Q600.4623,91.0288 601.0931,90.4477 Z " fill="#000000"/><text fill="#000000" font-family="Verdana" font-size="14" lengthAdjust="spacing" textLength="215.7695" x="612.12" y="93.0952">OperatingSystemTypedArtifact</text><line style="stroke:#000000;stroke-width:1;" x1="586.12" x2="831.8895" y1="103.0346" y2="103.0346"/><line style="stroke:#000000;stroke-width:1;" x1="586.12" x2="831.8895" y1="111.0346" y2="111.0346"/></g><!--class OtherFileTypedArtifact--><g class="entity" data-entity="OtherFileTypedArtifact" data-source-line="27" data-uid="ent0008" id="entity_OtherFileTypedArtifact"><rect fill="#FFFFFF" height="68.0293" rx="2.5" ry="2.5" style="stroke:#000000;stroke-width:1;" width="189.5205" x="843.24" y="61.51"/><ellipse cx="856.24" cy="77.0173" fill="#FFFFFF" rx="9" ry="9" style="stroke:#000000;stroke-width:1;"/><path d="M859.2131,82.6604 Q858.6321,82.9592 857.9929,83.1086 Q857.3538,83.258 856.6482,83.258 Q854.1414,83.258 852.8215,81.6062 Q851.5017,79.9543 851.5017,76.8332 Q851.5017,73.7038 852.8215,72.052 Q854.1414,70.4001 856.6482,70.4001 Q857.3538,70.4001 858.0012,70.5496 Q858.6487,70.699 859.2131,70.9978 L859.2131,73.7204 Q858.5823,73.1394 857.9888,72.8696 Q857.3953,72.5998 856.7644,72.5998 Q855.4197,72.5998 854.7349,73.6665 Q854.0501,74.7331 854.0501,76.8332 Q854.0501,78.925 854.7349,79.9917 Q855.4197,81.0583 856.7644,81.0583 Q857.3953,81.0583 857.9888,80.7886 Q858.5823,80.5188 859.2131,79.9377 Z " fill="#000000"/><text fill="#000000" font-family="Verdana" font-size="14" lengthAdjust="spacing" textLength="157.5205" x="870.24" y="82.5852">OtherFileTypedArtifact</text><line style="stroke:#000000;stroke-width:1;" x1="844.24" x2="1031.7605" y1="92.5246" y2="92.5246"/><text fill="#000000" font-family="Verdana" font-size="14" lengthAdjust="spacing" textLength="76.1182" x="851.24" y="112.5998">type: Type</text><line style="stroke:#000000;stroke-width:1;" x1="844.24" x2="1031.7605" y1="121.5393" y2="121.5393"/></g><!--class NpmTypedArtifact--><g class="entity" data-entity="NpmTypedArtifact" data-source-line="30" data-uid="ent0009" id="entity_NpmTypedArtifact"><rect fill="#FFFFFF" height="89.0439" rx="2.5" ry="2.5" style="stroke:#000000;stroke-width:1;" width="168.7832" x="1042.61" y="51"/><ellipse cx="1060.2133" cy="66.5073" fill="#FFFFFF" rx="9" ry="9" style="stroke:#000000;stroke-width:1;"/><path d="M1063.1864,72.1504 Q1062.6054,72.4492 1061.9662,72.5986 Q1061.327,72.748 1060.6215,72.748 Q1058.1146,72.748 1056.7948,71.0962 Q1055.475,69.4443 1055.475,66.3232 Q1055.475,63.1938 1056.7948,61.542 Q1058.1146,59.8901 1060.6215,59.8901 Q1061.327,59.8901 1061.9745,60.0396 Q1062.622,60.189 1063.1864,60.4878 L1063.1864,63.2104 Q1062.5556,62.6294 1061.9621,62.3596 Q1061.3685,62.0898 1060.7377,62.0898 Q1059.393,62.0898 1058.7081,63.1565 Q1058.0233,64.2231 1058.0233,66.3232 Q1058.0233,68.415 1058.7081,69.4817 Q1059.393,70.5483 1060.7377,70.5483 Q1061.3685,70.5483 1061.9621,70.2786 Q1062.5556,70.0088 1063.1864,69.4277 Z " fill="#000000"/><text fill="#000000" font-family="Verdana" font-size="14" lengthAdjust="spacing" textLength="126.5537" x="1075.2362" y="72.0752">NpmTypedArtifact</text><line style="stroke:#000000;stroke-width:1;" x1="1043.61" x2="1210.3932" y1="82.0146" y2="82.0146"/><text fill="#000000" font-family="Verdana" font-size="14" lengthAdjust="spacing" textLength="152.7832" x="1050.61" y="102.0898">packageName: String</text><text fill="#000000" font-family="Verdana" font-size="14" lengthAdjust="spacing" textLength="93.9121" x="1050.61" y="123.1045">scope: String</text><line style="stroke:#000000;stroke-width:1;" x1="1043.61" x2="1210.3932" y1="132.0439" y2="132.0439"/></g><!--class PythonModuleTypedArtifact--><g class="entity" data-entity="PythonModuleTypedArtifact" data-source-line="34" data-uid="ent0010" id="entity_PythonModuleTypedArtifact"><rect fill="#FFFFFF" height="47.0146" rx="2.5" ry="2.5" style="stroke:#000000;stroke-width:1;" width="224.2607" x="1221.87" y="72.02"/><ellipse cx="1234.87" cy="87.5273" fill="#FFFFFF" rx="9" ry="9" style="stroke:#000000;stroke-width:1;"/><path d="M1237.8431,93.1704 Q1237.2621,93.4692 1236.6229,93.6186 Q1235.9838,93.768 1235.2782,93.768 Q1232.7714,93.768 1231.4515,92.1162 Q1230.1317,90.4643 1230.1317,87.3432 Q1230.1317,84.2138 1231.4515,82.562 Q1232.7714,80.9101 1235.2782,80.9101 Q1235.9838,80.9101 1236.6312,81.0596 Q1237.2787,81.209 1237.8431,81.5078 L1237.8431,84.2304 Q1237.2123,83.6494 1236.6188,83.3796 Q1236.0253,83.1098 1235.3944,83.1098 Q1234.0497,83.1098 1233.3649,84.1765 Q1232.6801,85.2431 1232.6801,87.3432 Q1232.6801,89.435 1233.3649,90.5017 Q1234.0497,91.5683 1235.3944,91.5683 Q1236.0253,91.5683 1236.6188,91.2986 Q1237.2123,91.0288 1237.8431,90.4477 Z " fill="#000000"/><text fill="#000000" font-family="Verdana" font-size="14" lengthAdjust="spacing" textLength="192.2607" x="1248.87" y="93.0952">PythonModuleTypedArtifact</text><line style="stroke:#000000;stroke-width:1;" x1="1222.87" x2="1445.1307" y1="103.0346" y2="103.0346"/><line style="stroke:#000000;stroke-width:1;" x1="1222.87" x2="1445.1307" y1="111.0346" y2="111.0346"/></g><!--link JavaRuntimeTypeArtifact to TypedArtifact--><g class="link" data-entity-1="JavaRuntimeTypeArtifact" data-entity-2="TypedArtifact" data-source-line="37" data-uid="lnk11" id="link_JavaRuntimeTypeArtifact_TypedArtifact"><path codeLine="37" d="M402.12,135.12 C507.91,135.12 656.31,135.12 656.31,135.12 C656.31,135.12 656.31,132.76 656.31,151.69" fill="none" id="JavaRuntimeTypeArtifact-to-TypedArtifact" style="stroke:#000082;stroke-width:1;"/><polygon fill="none" points="656.31,169.69,662.31,151.69,650.31,151.69,656.31,169.69" style="stroke:#000082;stroke-width:1;"/></g><!--link JavaTypedArtifact to TypedArtifact--><g class="link" data-entity-1="JavaTypedArtifact" data-entity-2="TypedArtifact" data-source-line="38" data-uid="lnk12" id="link_JavaTypedArtifact_TypedArtifact"><path codeLine="38" d="M106,130.03 C106,171.37 106,235.12 106,235.12 C106,235.12 435.63,235.12 603,235.12" fill="none" id="JavaTypedArtifact-to-TypedArtifact" style="stroke:#000082;stroke-width:1;"/><polygon fill="none" points="621,235.12,603,229.12,603,241.12,621,235.12" style="stroke:#000082;stroke-width:1;"/></g><!--link LinuxTypedArtifact to TypedArtifact--><g class="link" data-entity-1="LinuxTypedArtifact" data-entity-2="TypedArtifact" data-source-line="39" data-uid="lnk13" id="link_LinuxTypedArtifact_TypedArtifact"><path codeLine="39" d="M575.14,126.12 C629.74,126.12 691.44,126.12 691.44,126.12 C691.44,126.12 691.44,128.51 691.44,151.7" fill="none" id="LinuxTypedArtifact-to-TypedArtifact" style="stroke:#000082;stroke-width:1;"/><polygon fill="none" points="691.44,169.7,697.44,151.7,685.44,151.7,691.44,169.7" style="stroke:#000082;stroke-width:1;"/></g><!--link NpmTypedArtifact to TypedArtifact--><g class="link" data-entity-1="NpmTypedArtifact" data-entity-2="TypedArtifact" data-source-line="40" data-uid="lnk14" id="link_NpmTypedArtifact_TypedArtifact"><path codeLine="40" d="M1127,140.36 C1127,173.94 1127,214.12 1127,214.12 C1127,214.12 937.77,214.12 815.14,214.12" fill="none" id="NpmTypedArtifact-to-TypedArtifact" style="stroke:#000082;stroke-width:1;"/><polygon fill="none" points="797.14,214.12,815.14,220.12,815.14,208.12,797.14,214.12" style="stroke:#000082;stroke-width:1;"/></g><!--link OperatingSystemTypedArtifact to TypedArtifact--><g class="link" data-entity-1="OperatingSystemTypedArtifact" data-entity-2="TypedArtifact" data-source-line="41" data-uid="lnk15" id="link_OperatingSystemTypedArtifact_TypedArtifact"><path codeLine="41" d="M726.56,119.28 C726.56,133.25 726.56,133.67 726.56,151.72" fill="none" id="OperatingSystemTypedArtifact-to-TypedArtifact" style="stroke:#000082;stroke-width:1;"/><polygon fill="none" points="726.56,169.72,732.56,151.72,720.56,151.72,726.56,169.72" style="stroke:#000082;stroke-width:1;"/></g><!--link OtherFileTypedArtifact to TypedArtifact--><g class="link" data-entity-1="OtherFileTypedArtifact" data-entity-2="TypedArtifact" data-source-line="42" data-uid="lnk16" id="link_OtherFileTypedArtifact_TypedArtifact"><path codeLine="42" d="M842.88,122.12 C801.24,122.12 761.69,122.12 761.69,122.12 C761.69,122.12 761.69,126.62 761.69,151.58" fill="none" id="OtherFileTypedArtifact-to-TypedArtifact" style="stroke:#000082;stroke-width:1;"/><polygon fill="none" points="761.69,169.58,767.69,151.58,755.69,151.58,761.69,169.58" style="stroke:#000082;stroke-width:1;"/></g><!--link PythonModuleTypedArtifact to TypedArtifact--><g class="link" data-entity-1="PythonModuleTypedArtifact" data-entity-2="TypedArtifact" data-source-line="43" data-uid="lnk17" id="link_PythonModuleTypedArtifact_TypedArtifact"><path codeLine="43" d="M1334,119.37 C1334,164.32 1334,257.12 1334,257.12 C1334,257.12 987.5,257.12 815.22,257.12" fill="none" id="PythonModuleTypedArtifact-to-TypedArtifact" style="stroke:#000082;stroke-width:1;"/><polygon fill="none" points="797.22,257.12,815.22,263.12,815.22,251.12,797.22,257.12" style="stroke:#000082;stroke-width:1;"/></g><!--SRC=[ZL9DJm8n4BttLunubGJnOhXvCT4e4Z5UZ2R3TeI6tRPffqHY-EzsbmyNTkiwfsQcx_LrtZlZ1HK4DaUb1HiBR61cc4q1KZdAM1aj_59fYmuBo9KcNbi2utXXQWDj97coS3ceDHtgPTcygZSdAANISnWAOJ5RufoWzn8f9TmuLf-OiU_1ju1OMOxUGpNSptQJicnm-GYcx2BReRaYvwFaHbzZGOscDy5bjASU7GHK5pOr2VUumfICkJF1tiaZybFiSz2i2YefMXXyi3PNv2B5xlJx7NGATPJskZqqs1-K3byfQLBvg6aM-7GZTOOdImuvJgPhprGSSTMlnQ2uMvLJwh4o5gFAhCOJOriaJTn6ODngJsOi9NLFrZ61-j78SA99R8H8BRt_TZw8TJsyg1B_tlyuZfTeEjq9QR6W4zFOI2VYBvl-WMvthnENN78tz0S0]--></g></svg>