<svg xmlns="http://www.w3.org/2000/svg" xmlns:xlink="http://www.w3.org/1999/xlink" contentStyleType="text/css" data-diagram-type="CLASS" height="1048px" preserveAspectRatio="none" style="width:1126px;height:1048px;background:#FFFFFF;" version="1.1" viewBox="0 0 1126 1048" width="1126px" zoomAndPan="magnify"><defs/><g><!--cluster Graph Core--><g class="cluster" data-entity="Graph Core" data-source-line="9" data-uid="ent0002" id="cluster_Graph Core"><path d="M13.5,11 L106.7109,11 A3.75,3.75 0 0 1 109.2109,13.5 L116.2109,38.0146 L1116.62,38.0146 A2.5,2.5 0 0 1 1119.12,40.5146 L1119.12,500.5 A2.5,2.5 0 0 1 1116.62,503 L13.5,503 A2.5,2.5 0 0 1 11,500.5 L11,13.5 A2.5,2.5 0 0 1 13.5,11" fill="#FFFFFF" style="stroke:#000000;stroke-width:1;"/><line style="stroke:#000000;stroke-width:1;" x1="11" x2="116.2109" y1="38.0146" y2="38.0146"/><text fill="#000000" font-family="Verdana" font-size="14" font-weight="bold" lengthAdjust="spacing" textLength="88.2109" x="17" y="29.0752">Graph Core</text></g><!--cluster Node Types--><g class="cluster" data-entity="Node Types" data-source-line="44" data-uid="ent0008" id="cluster_Node Types"><path d="M301.07,527 L397.4528,527 A3.75,3.75 0 0 1 399.9528,529.5 L406.9528,554.0146 L693.11,554.0146 A2.5,2.5 0 0 1 695.61,556.5146 L695.61,1038.5 A2.5,2.5 0 0 1 693.11,1041 L301.07,1041 A2.5,2.5 0 0 1 298.57,1038.5 L298.57,529.5 A2.5,2.5 0 0 1 301.07,527" fill="#FFFFFF" style="stroke:#000000;stroke-width:1;"/><line style="stroke:#000000;stroke-width:1;" x1="298.57" x2="406.9528" y1="554.0146" y2="554.0146"/><text fill="#000000" font-family="Verdana" font-size="14" font-weight="bold" lengthAdjust="spacing" textLength="91.3828" x="304.57" y="545.0752">Node Types</text></g><!--class RepGraph--><g class="entity" data-entity="RepGraph" data-source-line="10" data-uid="ent0003" id="entity_RepGraph"><rect fill="#FFFFFF" height="89.0439" rx="2.5" ry="2.5" style="stroke:#000000;stroke-width:1;" width="181.4775" x="406.35" y="397.48"/><ellipse cx="456.5302" cy="412.9873" fill="#FFFFFF" rx="9" ry="9" style="stroke:#000000;stroke-width:1;"/><path d="M459.5033,418.6304 Q458.9223,418.9292 458.2831,419.0786 Q457.6439,419.228 456.9384,419.228 Q454.4315,419.228 453.1117,417.5762 Q451.7919,415.9243 451.7919,412.8032 Q451.7919,409.6738 453.1117,408.022 Q454.4315,406.3701 456.9384,406.3701 Q457.6439,406.3701 458.2914,406.5196 Q458.9389,406.669 459.5033,406.9678 L459.5033,409.6904 Q458.8725,409.1094 458.279,408.8396 Q457.6854,408.5698 457.0546,408.5698 Q455.7099,408.5698 455.025,409.6365 Q454.3402,410.7031 454.3402,412.8032 Q454.3402,414.895 455.025,415.9617 Q455.7099,417.0283 457.0546,417.0283 Q457.6854,417.0283 458.279,416.7586 Q458.8725,416.4888 459.5033,415.9077 Z " fill="#000000"/><text fill="#000000" font-family="Verdana" font-size="14" lengthAdjust="spacing" textLength="69.6172" x="476.0302" y="418.5552">RepGraph</text><line style="stroke:#000000;stroke-width:1;" x1="407.35" x2="586.8275" y1="428.4946" y2="428.4946"/><text fill="#000000" font-family="Verdana" font-size="14" lengthAdjust="spacing" textLength="156.9941" x="414.35" y="448.5698">mode: OperationMode</text><text fill="#000000" font-family="Verdana" font-size="14" lengthAdjust="spacing" textLength="165.4775" x="414.35" y="469.5845">connection: Connection</text><line style="stroke:#000000;stroke-width:1;" x1="407.35" x2="586.8275" y1="478.5239" y2="478.5239"/></g><!--class RepGraphQuery--><g class="entity" data-entity="RepGraphQuery" data-source-line="14" data-uid="ent0004" id="entity_RepGraphQuery"><rect fill="#FFFFFF" height="68.0293" rx="2.5" ry="2.5" style="stroke:#000000;stroke-width:1;" width="255.5723" x="27" y="297.99"/><ellipse cx="92.9883" cy="313.4973" fill="#FFFFFF" rx="9" ry="9" style="stroke:#000000;stroke-width:1;"/><path d="M95.9614,319.1404 Q95.3804,319.4392 94.7412,319.5886 Q94.1021,319.738 93.3965,319.738 Q90.8896,319.738 89.5698,318.0862 Q88.25,316.4343 88.25,313.3132 Q88.25,310.1838 89.5698,308.532 Q90.8896,306.8801 93.3965,306.8801 Q94.1021,306.8801 94.7495,307.0296 Q95.397,307.179 95.9614,307.4778 L95.9614,310.2004 Q95.3306,309.6194 94.7371,309.3496 Q94.1436,309.0798 93.5127,309.0798 Q92.168,309.0798 91.4832,310.1465 Q90.7983,311.2131 90.7983,313.3132 Q90.7983,315.405 91.4832,316.4717 Q92.168,317.5383 93.5127,317.5383 Q94.1436,317.5383 94.7371,317.2686 Q95.3306,316.9988 95.9614,316.4177 Z " fill="#000000"/><text fill="#000000" font-family="Verdana" font-size="14" lengthAdjust="spacing" textLength="112.0957" x="112.4883" y="319.0652">RepGraphQuery</text><line style="stroke:#000000;stroke-width:1;" x1="28" x2="281.5723" y1="329.0046" y2="329.0046"/><text fill="#000000" font-family="Verdana" font-size="14" lengthAdjust="spacing" textLength="239.5723" x="35" y="349.0798">dataConstructor: DataConstructor</text><line style="stroke:#000000;stroke-width:1;" x1="28" x2="281.5723" y1="358.0193" y2="358.0193"/></g><!--class TraversalQuery--><g class="entity" data-entity="TraversalQuery" data-source-line="17" data-uid="ent0005" id="entity_TraversalQuery"><rect fill="#FFFFFF" height="110.0586" rx="2.5" ry="2.5" style="stroke:#000000;stroke-width:1;" width="345.3555" x="324.41" y="276.97"/><ellipse cx="437.5218" cy="292.4773" fill="#FFFFFF" rx="9" ry="9" style="stroke:#000000;stroke-width:1;"/><path d="M440.495,298.1204 Q439.9139,298.4192 439.2747,298.5686 Q438.6356,298.718 437.93,298.718 Q435.4232,298.718 434.1034,297.0662 Q432.7835,295.4143 432.7835,292.2932 Q432.7835,289.1638 434.1034,287.512 Q435.4232,285.8601 437.93,285.8601 Q438.6356,285.8601 439.283,286.0096 Q439.9305,286.159 440.495,286.4578 L440.495,289.1804 Q439.8641,288.5994 439.2706,288.3296 Q438.6771,288.0598 438.0462,288.0598 Q436.7015,288.0598 436.0167,289.1265 Q435.3319,290.1931 435.3319,292.2932 Q435.3319,294.385 436.0167,295.4517 Q436.7015,296.5183 438.0462,296.5183 Q438.6771,296.5183 439.2706,296.2486 Q439.8641,295.9788 440.495,295.3977 Z " fill="#000000"/><text fill="#000000" font-family="Verdana" font-size="14" lengthAdjust="spacing" textLength="107.6318" x="457.0218" y="298.0452">TraversalQuery</text><line style="stroke:#000000;stroke-width:1;" x1="325.41" x2="668.7655" y1="307.9846" y2="307.9846"/><text fill="#000000" font-family="Verdana" font-size="14" lengthAdjust="spacing" textLength="327.667" x="332.41" y="328.0598">edgeFilters: List&lt;Predicate&lt;RepGraphEdge&gt;&gt;</text><text fill="#000000" font-family="Verdana" font-size="14" lengthAdjust="spacing" textLength="329.3555" x="332.41" y="349.0745">nodeFilters: List&lt;Predicate&lt;RepGraphNode&gt;&gt;</text><text fill="#000000" font-family="Verdana" font-size="14" lengthAdjust="spacing" textLength="284.9971" x="332.41" y="370.0891">queryDirection: TraversalQueryDirection</text><line style="stroke:#000000;stroke-width:1;" x1="325.41" x2="668.7655" y1="379.0286" y2="379.0286"/></g><!--class RepGraphNode--><g class="entity" data-entity="RepGraphNode" data-source-line="22" data-uid="ent0006" id="entity_RepGraphNode"><rect fill="#FFFFFF" height="215.1318" rx="2.5" ry="2.5" style="stroke:#000000;stroke-width:1;" width="391.5117" x="711.61" y="271.43"/><ellipse cx="848.7912" cy="286.9373" fill="#FFFFFF" rx="9" ry="9" style="stroke:#000000;stroke-width:1;"/><path d="M851.7643,292.5804 Q851.1832,292.8792 850.5441,293.0286 Q849.9049,293.178 849.1994,293.178 Q846.6925,293.178 845.3727,291.5262 Q844.0529,289.8743 844.0529,286.7532 Q844.0529,283.6238 845.3727,281.972 Q846.6925,280.3201 849.1994,280.3201 Q849.9049,280.3201 850.5524,280.4696 Q851.1998,280.619 851.7643,280.9178 L851.7643,283.6404 Q851.1334,283.0594 850.5399,282.7896 Q849.9464,282.5198 849.3156,282.5198 Q847.9708,282.5198 847.286,283.5865 Q846.6012,284.6531 846.6012,286.7532 Q846.6012,288.845 847.286,289.9117 Q847.9708,290.9783 849.3156,290.9783 Q849.9464,290.9783 850.5399,290.7086 Q851.1334,290.4388 851.7643,289.8577 Z " fill="#000000"/><text fill="#000000" font-family="Verdana" font-size="14" lengthAdjust="spacing" textLength="105.6494" x="868.2912" y="292.5052">RepGraphNode</text><line style="stroke:#000000;stroke-width:1;" x1="712.61" x2="1102.1217" y1="302.4446" y2="302.4446"/><text fill="#000000" font-family="Verdana" font-size="14" lengthAdjust="spacing" textLength="121.584" x="719.61" y="322.5198">graph: RepGraph</text><text fill="#000000" font-family="Verdana" font-size="14" lengthAdjust="spacing" textLength="66.5752" x="719.61" y="343.5345">uid: Long</text><text fill="#000000" font-family="Verdana" font-size="14" lengthAdjust="spacing" textLength="66.3291" x="719.61" y="364.5491">id: String</text><text fill="#000000" font-family="Verdana" font-size="14" lengthAdjust="spacing" textLength="122.1582" x="719.61" y="385.5638">nodeType: String</text><text fill="#000000" font-family="Verdana" font-size="14" lengthAdjust="spacing" textLength="186.6826" x="719.61" y="406.5784">namespaces: Set&lt;String&gt;</text><text fill="#000000" font-family="Verdana" font-size="14" lengthAdjust="spacing" textLength="248.9854" x="719.61" y="427.5931">metadata: RepGraphNodeMetadata</text><text fill="#000000" font-family="Verdana" font-size="14" lengthAdjust="spacing" textLength="184.9531" x="719.61" y="448.6077">contributors: Set&lt;String&gt;</text><text fill="#000000" font-family="Verdana" font-size="14" lengthAdjust="spacing" textLength="375.5117" x="719.61" y="469.6224">relatedNodes: Map&lt;RepGraphEdge, RepGraphNode&gt;</text><line style="stroke:#000000;stroke-width:1;" x1="712.61" x2="1102.1217" y1="478.5618" y2="478.5618"/></g><!--class RepGraphEdge--><g class="entity" data-entity="RepGraphEdge" data-source-line="32" data-uid="ent0007" id="entity_RepGraphEdge"><rect fill="#FFFFFF" height="215.1318" rx="2.5" ry="2.5" style="stroke:#000000;stroke-width:1;" width="317.2871" x="338.45" y="51.43"/><ellipse cx="439.2161" cy="66.9373" fill="#FFFFFF" rx="9" ry="9" style="stroke:#000000;stroke-width:1;"/><path d="M442.1893,72.5804 Q441.6082,72.8792 440.969,73.0286 Q440.3299,73.178 439.6243,73.178 Q437.1175,73.178 435.7977,71.5262 Q434.4778,69.8743 434.4778,66.7532 Q434.4778,63.6238 435.7977,61.972 Q437.1175,60.3201 439.6243,60.3201 Q440.3299,60.3201 440.9773,60.4696 Q441.6248,60.619 442.1893,60.9178 L442.1893,63.6404 Q441.5584,63.0594 440.9649,62.7896 Q440.3714,62.5198 439.7405,62.5198 Q438.3958,62.5198 437.711,63.5865 Q437.0262,64.6531 437.0262,66.7532 Q437.0262,68.845 437.711,69.9117 Q438.3958,70.9783 439.7405,70.9783 Q440.3714,70.9783 440.9649,70.7086 Q441.5584,70.4388 442.1893,69.8577 Z " fill="#000000"/><text fill="#000000" font-family="Verdana" font-size="14" lengthAdjust="spacing" textLength="104.2549" x="458.7161" y="72.5052">RepGraphEdge</text><line style="stroke:#000000;stroke-width:1;" x1="339.45" x2="654.7371" y1="82.4446" y2="82.4446"/><text fill="#000000" font-family="Verdana" font-size="14" lengthAdjust="spacing" textLength="66.5752" x="346.45" y="102.5198">uid: Long</text><text fill="#000000" font-family="Verdana" font-size="14" lengthAdjust="spacing" textLength="114.2217" x="346.45" y="123.5345">sourceUid: Long</text><text fill="#000000" font-family="Verdana" font-size="14" lengthAdjust="spacing" textLength="110.4414" x="346.45" y="144.5491">targetUid: Long</text><text fill="#000000" font-family="Verdana" font-size="14" lengthAdjust="spacing" textLength="261.3105" x="346.45" y="165.5638">transform: List&lt;RepEdgeTransform&gt;</text><text fill="#000000" font-family="Verdana" font-size="14" lengthAdjust="spacing" textLength="246.9824" x="346.45" y="186.5784">relationshipType: RelationshipType</text><text fill="#000000" font-family="Verdana" font-size="14" lengthAdjust="spacing" textLength="301.2871" x="346.45" y="207.5931">relationshipSubType: RelationshipSubType</text><text fill="#000000" font-family="Verdana" font-size="14" lengthAdjust="spacing" textLength="247.5908" x="346.45" y="228.6077">metadata: RepGraphEdgeMetadata</text><text fill="#000000" font-family="Verdana" font-size="14" lengthAdjust="spacing" textLength="184.9531" x="346.45" y="249.6224">contributors: Set&lt;String&gt;</text><line style="stroke:#000000;stroke-width:1;" x1="339.45" x2="654.7371" y1="258.5618" y2="258.5618"/></g><!--class RepArtifactNode--><g class="entity" data-entity="RepArtifactNode" data-source-line="45" data-uid="ent0009" id="entity_RepArtifactNode"><rect fill="#FFFFFF" height="68.0293" rx="2.5" ry="2.5" style="stroke:#000000;stroke-width:1;" width="271.0625" x="361.56" y="956.99"/><ellipse cx="434.4047" cy="972.4973" fill="#FFFFFF" rx="9" ry="9" style="stroke:#000000;stroke-width:1;"/><path d="M437.3779,978.1404 Q436.7968,978.4392 436.1577,978.5886 Q435.5185,978.738 434.8129,978.738 Q432.3061,978.738 430.9863,977.0862 Q429.6664,975.4343 429.6664,972.3132 Q429.6664,969.1838 430.9863,967.532 Q432.3061,965.8801 434.8129,965.8801 Q435.5185,965.8801 436.166,966.0296 Q436.8134,966.179 437.3779,966.4778 L437.3779,969.2004 Q436.747,968.6194 436.1535,968.3496 Q435.56,968.0798 434.9291,968.0798 Q433.5844,968.0798 432.8996,969.1465 Q432.2148,970.2131 432.2148,972.3132 Q432.2148,974.405 432.8996,975.4717 Q433.5844,976.5383 434.9291,976.5383 Q435.56,976.5383 436.1535,976.2686 Q436.747,975.9988 437.3779,975.4177 Z " fill="#000000"/><text fill="#000000" font-family="Verdana" font-size="14" lengthAdjust="spacing" textLength="113.873" x="453.9047" y="978.0652">RepArtifactNode</text><line style="stroke:#000000;stroke-width:1;" x1="362.56" x2="631.6225" y1="988.0046" y2="988.0046"/><text fill="#000000" font-family="Verdana" font-size="14" lengthAdjust="spacing" textLength="255.0625" x="369.56" y="1008.0798">selectors: List&lt;RepArtifactMatcher&gt;</text><line style="stroke:#000000;stroke-width:1;" x1="362.56" x2="631.6225" y1="1017.0193" y2="1017.0193"/></g><!--class RepCpeNode--><g class="entity" data-entity="RepCpeNode" data-source-line="48" data-uid="ent0010" id="entity_RepCpeNode"><rect fill="#FFFFFF" height="68.0293" rx="2.5" ry="2.5" style="stroke:#000000;stroke-width:1;" width="121.667" x="436.26" y="878.99"/><ellipse cx="449.26" cy="894.4973" fill="#FFFFFF" rx="9" ry="9" style="stroke:#000000;stroke-width:1;"/><path d="M452.2331,900.1404 Q451.6521,900.4392 451.0129,900.5886 Q450.3738,900.738 449.6682,900.738 Q447.1614,900.738 445.8415,899.0862 Q444.5217,897.4343 444.5217,894.3132 Q444.5217,891.1838 445.8415,889.532 Q447.1614,887.8801 449.6682,887.8801 Q450.3738,887.8801 451.0212,888.0296 Q451.6687,888.179 452.2331,888.4778 L452.2331,891.2004 Q451.6023,890.6194 451.0088,890.3496 Q450.4153,890.0798 449.7844,890.0798 Q448.4397,890.0798 447.7549,891.1465 Q447.0701,892.2131 447.0701,894.3132 Q447.0701,896.405 447.7549,897.4717 Q448.4397,898.5383 449.7844,898.5383 Q450.4153,898.5383 451.0088,898.2686 Q451.6023,897.9988 452.2331,897.4177 Z " fill="#000000"/><text fill="#000000" font-family="Verdana" font-size="14" lengthAdjust="spacing" textLength="89.667" x="463.26" y="900.0652">RepCpeNode</text><line style="stroke:#000000;stroke-width:1;" x1="437.26" x2="556.927" y1="910.0046" y2="910.0046"/><text fill="#000000" font-family="Verdana" font-size="14" lengthAdjust="spacing" textLength="78.1211" x="444.26" y="930.0798">cpe: String</text><line style="stroke:#000000;stroke-width:1;" x1="437.26" x2="556.927" y1="939.0193" y2="939.0193"/></g><!--class RepEolNode--><g class="entity" data-entity="RepEolNode" data-source-line="51" data-uid="ent0011" id="entity_RepEolNode"><rect fill="#FFFFFF" height="68.0293" rx="2.5" ry="2.5" style="stroke:#000000;stroke-width:1;" width="116.0205" x="439.08" y="800.99"/><ellipse cx="452.08" cy="816.4973" fill="#FFFFFF" rx="9" ry="9" style="stroke:#000000;stroke-width:1;"/><path d="M455.0531,822.1404 Q454.4721,822.4392 453.8329,822.5886 Q453.1938,822.738 452.4882,822.738 Q449.9814,822.738 448.6615,821.0862 Q447.3417,819.4343 447.3417,816.3132 Q447.3417,813.1838 448.6615,811.532 Q449.9814,809.8801 452.4882,809.8801 Q453.1938,809.8801 453.8412,810.0296 Q454.4887,810.179 455.0531,810.4778 L455.0531,813.2004 Q454.4223,812.6194 453.8288,812.3496 Q453.2353,812.0798 452.6044,812.0798 Q451.2597,812.0798 450.5749,813.1465 Q449.8901,814.2131 449.8901,816.3132 Q449.8901,818.405 450.5749,819.4717 Q451.2597,820.5383 452.6044,820.5383 Q453.2353,820.5383 453.8288,820.2686 Q454.4223,819.9988 455.0531,819.4177 Z " fill="#000000"/><text fill="#000000" font-family="Verdana" font-size="14" lengthAdjust="spacing" textLength="84.0205" x="466.08" y="822.0652">RepEolNode</text><line style="stroke:#000000;stroke-width:1;" x1="440.08" x2="554.1005" y1="832.0046" y2="832.0046"/><text fill="#000000" font-family="Verdana" font-size="14" lengthAdjust="spacing" textLength="89.0586" x="447.08" y="852.0798">eolId: String</text><line style="stroke:#000000;stroke-width:1;" x1="440.08" x2="554.1005" y1="861.0193" y2="861.0193"/></g><!--class RepMsProductIdNode--><g class="entity" data-entity="RepMsProductIdNode" data-source-line="54" data-uid="ent0012" id="entity_RepMsProductIdNode"><rect fill="#FFFFFF" height="68.0293" rx="2.5" ry="2.5" style="stroke:#000000;stroke-width:1;" width="181.8438" x="406.17" y="722.99"/><ellipse cx="419.17" cy="738.4973" fill="#FFFFFF" rx="9" ry="9" style="stroke:#000000;stroke-width:1;"/><path d="M422.1431,744.1404 Q421.5621,744.4392 420.9229,744.5886 Q420.2838,744.738 419.5782,744.738 Q417.0714,744.738 415.7515,743.0862 Q414.4317,741.4343 414.4317,738.3132 Q414.4317,735.1838 415.7515,733.532 Q417.0714,731.8801 419.5782,731.8801 Q420.2838,731.8801 420.9312,732.0296 Q421.5787,732.179 422.1431,732.4778 L422.1431,735.2004 Q421.5123,734.6194 420.9188,734.3496 Q420.3253,734.0798 419.6944,734.0798 Q418.3497,734.0798 417.6649,735.1465 Q416.9801,736.2131 416.9801,738.3132 Q416.9801,740.405 417.6649,741.4717 Q418.3497,742.5383 419.6944,742.5383 Q420.3253,742.5383 420.9188,742.2686 Q421.5123,741.9988 422.1431,741.4177 Z " fill="#000000"/><text fill="#000000" font-family="Verdana" font-size="14" lengthAdjust="spacing" textLength="149.8438" x="433.17" y="744.0652">RepMsProductIdNode</text><line style="stroke:#000000;stroke-width:1;" x1="407.17" x2="587.0138" y1="754.0046" y2="754.0046"/><text fill="#000000" font-family="Verdana" font-size="14" lengthAdjust="spacing" textLength="89.291" x="414.17" y="774.0798">msId: String</text><line style="stroke:#000000;stroke-width:1;" x1="407.17" x2="587.0138" y1="783.0193" y2="783.0193"/></g><!--class RepProductNode--><g class="entity" data-entity="RepProductNode" data-source-line="57" data-uid="ent0013" id="entity_RepProductNode"><rect fill="#FFFFFF" height="68.0293" rx="2.5" ry="2.5" style="stroke:#000000;stroke-width:1;" width="365.0361" x="314.57" y="644.99"/><ellipse cx="433.2702" cy="660.4973" fill="#FFFFFF" rx="9" ry="9" style="stroke:#000000;stroke-width:1;"/><path d="M436.2433,666.1404 Q435.6623,666.4392 435.0231,666.5886 Q434.384,666.738 433.6784,666.738 Q431.1716,666.738 429.8517,665.0862 Q428.5319,663.4343 428.5319,660.3132 Q428.5319,657.1838 429.8517,655.532 Q431.1716,653.8801 433.6784,653.8801 Q434.384,653.8801 435.0314,654.0296 Q435.6789,654.179 436.2433,654.4778 L436.2433,657.2004 Q435.6125,656.6194 435.019,656.3496 Q434.4255,656.0798 433.7946,656.0798 Q432.4499,656.0798 431.7651,657.1465 Q431.0803,658.2131 431.0803,660.3132 Q431.0803,662.405 431.7651,663.4717 Q432.4499,664.5383 433.7946,664.5383 Q434.4255,664.5383 435.019,664.2686 Q435.6125,663.9988 436.2433,663.4177 Z " fill="#000000"/><text fill="#000000" font-family="Verdana" font-size="14" lengthAdjust="spacing" textLength="116.1357" x="452.7702" y="666.0652">RepProductNode</text><line style="stroke:#000000;stroke-width:1;" x1="315.57" x2="678.6061" y1="676.0046" y2="676.0046"/><text fill="#000000" font-family="Verdana" font-size="14" lengthAdjust="spacing" textLength="349.0361" x="322.57" y="696.0798">namespaces: List&lt;RepGraphProductNamespace&gt;</text><line style="stroke:#000000;stroke-width:1;" x1="315.57" x2="678.6061" y1="705.0193" y2="705.0193"/></g><!--class RepPurlNode--><g class="entity" data-entity="RepPurlNode" data-source-line="60" data-uid="ent0014" id="entity_RepPurlNode"><rect fill="#FFFFFF" height="68.0293" rx="2.5" ry="2.5" style="stroke:#000000;stroke-width:1;" width="121.9473" x="436.12" y="566.99"/><ellipse cx="449.12" cy="582.4973" fill="#FFFFFF" rx="9" ry="9" style="stroke:#000000;stroke-width:1;"/><path d="M452.0931,588.1404 Q451.5121,588.4392 450.8729,588.5886 Q450.2338,588.738 449.5282,588.738 Q447.0214,588.738 445.7015,587.0862 Q444.3817,585.4343 444.3817,582.3132 Q444.3817,579.1838 445.7015,577.532 Q447.0214,575.8801 449.5282,575.8801 Q450.2338,575.8801 450.8812,576.0296 Q451.5287,576.179 452.0931,576.4778 L452.0931,579.2004 Q451.4623,578.6194 450.8688,578.3496 Q450.2753,578.0798 449.6444,578.0798 Q448.2997,578.0798 447.6149,579.1465 Q446.9301,580.2131 446.9301,582.3132 Q446.9301,584.405 447.6149,585.4717 Q448.2997,586.5383 449.6444,586.5383 Q450.2753,586.5383 450.8688,586.2686 Q451.4623,585.9988 452.0931,585.4177 Z " fill="#000000"/><text fill="#000000" font-family="Verdana" font-size="14" lengthAdjust="spacing" textLength="89.9473" x="463.12" y="588.0652">RepPurlNode</text><line style="stroke:#000000;stroke-width:1;" x1="437.12" x2="557.0673" y1="598.0046" y2="598.0046"/><text fill="#000000" font-family="Verdana" font-size="14" lengthAdjust="spacing" textLength="81.1631" x="444.12" y="618.0798">purl: String</text><line style="stroke:#000000;stroke-width:1;" x1="437.12" x2="557.0673" y1="627.0193" y2="627.0193"/></g><!--link RepGraphQuery to TraversalQuery--><!--reverse link TraversalQuery to RepGraphQuery--><g class="link" data-entity-1="TraversalQuery" data-entity-2="RepGraphQuery" data-source-line="76" data-uid="lnk26" id="link_TraversalQuery_RepGraphQuery"><path codeLine="76" d="M317.93,320.66 C304.17,320.66 296.42,320.66 283.05,320.66" fill="none" id="TraversalQuery-backto-RepGraphQuery" style="stroke:#820000;stroke-width:1;"/><polygon fill="#820000" points="323.93,320.66,314.93,316.66,318.93,320.66,314.93,324.66,323.93,320.66" style="stroke:#820000;stroke-width:1;"/></g><!--link RepArtifactNode to RepGraphNode--><g class="link" data-entity-1="RepArtifactNode" data-entity-2="RepGraphNode" data-source-line="67" data-uid="lnk17" id="link_RepArtifactNode_RepGraphNode"><path codeLine="67" d="M632.92,991 C793.18,991 1038.12,991 1038.12,991 C1038.12,991 1038.12,680.7 1038.12,505" fill="none" id="RepArtifactNode-to-RepGraphNode" style="stroke:#000082;stroke-width:1;"/><polygon fill="none" points="1038.12,487,1032.12,505,1044.12,505,1038.12,487" style="stroke:#000082;stroke-width:1;"/></g><!--link RepCpeNode to RepGraphNode--><g class="link" data-entity-1="RepCpeNode" data-entity-2="RepGraphNode" data-source-line="68" data-uid="lnk18" id="link_RepCpeNode_RepGraphNode"><path codeLine="68" d="M558.22,913 C686.52,913 972.12,913 972.12,913 C972.12,913 972.12,661.1 972.12,505.06" fill="none" id="RepCpeNode-to-RepGraphNode" style="stroke:#000082;stroke-width:1;"/><polygon fill="none" points="972.12,487.06,966.12,505.06,978.12,505.06,972.12,487.06" style="stroke:#000082;stroke-width:1;"/></g><!--link RepEolNode to RepGraphNode--><g class="link" data-entity-1="RepEolNode" data-entity-2="RepGraphNode" data-source-line="69" data-uid="lnk19" id="link_RepEolNode_RepGraphNode"><path codeLine="69" d="M555.4,835 C668.6,835 907.12,835 907.12,835 C907.12,835 907.12,639.91 907.12,505.07" fill="none" id="RepEolNode-to-RepGraphNode" style="stroke:#000082;stroke-width:1;"/><polygon fill="none" points="907.12,487.07,901.12,505.07,913.12,505.07,907.12,487.07" style="stroke:#000082;stroke-width:1;"/></g><!--link RepMsProductIdNode to RepGraphNode--><g class="link" data-entity-1="RepMsProductIdNode" data-entity-2="RepGraphNode" data-source-line="70" data-uid="lnk20" id="link_RepMsProductIdNode_RepGraphNode"><path codeLine="70" d="M588.19,757 C690.42,757 842.12,757 842.12,757 C842.12,757 842.12,616.54 842.12,504.81" fill="none" id="RepMsProductIdNode-to-RepGraphNode" style="stroke:#000082;stroke-width:1;"/><polygon fill="none" points="842.12,486.81,836.12,504.81,848.12,504.81,842.12,486.81" style="stroke:#000082;stroke-width:1;"/></g><!--link RepPurlNode to RepGraphNode--><g class="link" data-entity-1="RepPurlNode" data-entity-2="RepGraphNode" data-source-line="71" data-uid="lnk21" id="link_RepPurlNode_RepGraphNode"><path codeLine="71" d="M558.54,601 C640.98,601 777.12,601 777.12,601 C777.12,601 777.12,561.31 777.12,504.75" fill="none" id="RepPurlNode-to-RepGraphNode" style="stroke:#000082;stroke-width:1;"/><polygon fill="none" points="777.12,486.75,771.12,504.75,783.12,504.75,777.12,486.75" style="stroke:#000082;stroke-width:1;"/></g><!--link RepProductNode to RepGraphNode--><g class="link" data-entity-1="RepProductNode" data-entity-2="RepGraphNode" data-source-line="72" data-uid="lnk22" id="link_RepProductNode_RepGraphNode"><path codeLine="72" d="M675.12,644.77 C675.12,582.46 675.12,456.84 675.12,456.84 C675.12,456.84 671.52,456.84 693.15,456.84" fill="none" id="RepProductNode-to-RepGraphNode" style="stroke:#000082;stroke-width:1;"/><polygon fill="none" points="711.15,456.84,693.15,450.84,693.15,462.84,711.15,456.84" style="stroke:#000082;stroke-width:1;"/></g><!--reverse link RepGraph to RepGraphNode--><g class="link" data-entity-1="RepGraph" data-entity-2="RepGraphNode" data-source-line="73" data-uid="lnk23" id="link_RepGraph_RepGraphNode"><path codeLine="73" d="M594.14,427.16 C630.62,427.16 668.15,427.16 711.15,427.16" fill="none" id="RepGraph-backto-RepGraphNode" style="stroke:#820000;stroke-width:1;"/><polygon fill="#820000" points="588.14,427.16,597.14,431.16,593.14,427.16,597.14,423.16,588.14,427.16" style="stroke:#820000;stroke-width:1;"/></g><!--reverse link RepGraphEdge to RepGraphNode--><g class="link" data-entity-1="RepGraphEdge" data-entity-2="RepGraphNode" data-source-line="74" data-uid="lnk24" id="link_RepGraphEdge_RepGraphNode"><path codeLine="74" d="M662.21,159 C777.46,159 907.12,159 907.12,159 C907.12,159 907.12,215.51 907.12,271.26" fill="none" id="RepGraphEdge-backto-RepGraphNode" style="stroke:#820000;stroke-width:1;"/><polygon fill="#820000" points="656.21,159,665.21,163,661.21,159,665.21,155,656.21,159" style="stroke:#820000;stroke-width:1;"/></g><!--reverse link RepGraphQuery to RepGraph--><g class="link" data-entity-1="RepGraphQuery" data-entity-2="RepGraph" data-source-line="75" data-uid="lnk25" id="link_RepGraphQuery_RepGraph"><path codeLine="75" d="M155.12,372.5 C155.12,404.76 155.12,442 155.12,442 C155.12,442 304.59,442 405.9,442" fill="none" id="RepGraphQuery-backto-RepGraph" style="stroke:#820000;stroke-width:1;"/><polygon fill="#820000" points="155.12,366.5,151.12,375.5,155.12,371.5,159.12,375.5,155.12,366.5" style="stroke:#820000;stroke-width:1;"/></g><!--SRC=[bLN1Rjim3BtxAxJksW1TJeKH11ZQRYYmR5dJdOeEK2t65c9R6YKFA8Ry-wWuScNPoJoTaiVtAF9Haj_P0YfWkkIoJinErfeZhrWfQx2l6fX2MwYaXArbLZ6KUM6Pa0YPbIeKr4g00Sq-N0KWydet0DTS25ddR9uaccSxdWEx-8nS5-n68LomFmcZbPNS6FO0kWsre5iLRPIoRngGkn9MzBUBPQgksyfIIkP_7yBxaQpV6y3N8BNWbfFCM6mogp1bjtrWaEWH-Mz0myiu4uWSFidIKZ1bNwInYpM2a1ctiF2xtn5dkUmapi1_IRuI9v3yShlU-c6aKJbTu6J_BbrGTEwmj8jsU2C5LQJgl4CSiB4e0yYL_qW7PXZW5HWQD51R6x2BDlpMH0MME-FJNbch8ngEbeGl3OtXH2A4ahmIJasC5TSzfozxwPSdFN7Sm9DXxqOrcC6F0Muvvc17SBe4PgkmEawLDd9xF7euQe3cPGgfMoiV8cIKkcbUXkmZUCPbLyH_khnFzi6TFPmUjuaPtDcFQEMMPpOwO0PAoDhKtWhFN76R5O2ZSxdH42NAedCM2UvK6Gb0bVVYd6HbrgW4tV9x4KahSrvvr4MgyDJxNW-sUxgFZtQyRZ3kG1CKbK73Y1wWMQEV2Ya4rC-p_YkN9F5OPa_lhsXTpoyFR__px6VlXYI1yHEetl89rDZg2PBEZodSO1uJwEtdPK7CwxdZUkOuyV0wJ2MtCpd3ZiTtXjeEyIy0]--></g></svg>