<svg xmlns="http://www.w3.org/2000/svg" xmlns:xlink="http://www.w3.org/1999/xlink" contentStyleType="text/css" data-diagram-type="CLASS" height="795px" preserveAspectRatio="none" style="width:915px;height:795px;background:#FFFFFF;" version="1.1" viewBox="0 0 915 795" width="915px" zoomAndPan="magnify"><defs/><g><!--cluster Modification--><g class="cluster" data-entity="Modification" data-source-line="9" data-uid="ent0002" id="cluster_Modification"><path d="M247.19,11 L348.6793,11 A3.75,3.75 0 0 1 351.1793,13.5 L358.1793,38.0146 L905.94,38.0146 A2.5,2.5 0 0 1 908.44,40.5146 L908.44,522.5 A2.5,2.5 0 0 1 905.94,525 L247.19,525 A2.5,2.5 0 0 1 244.69,522.5 L244.69,13.5 A2.5,2.5 0 0 1 247.19,11" fill="#FFFFFF" style="stroke:#000000;stroke-width:1;"/><line style="stroke:#000000;stroke-width:1;" x1="244.69" x2="358.1793" y1="38.0146" y2="38.0146"/><text fill="#000000" font-family="Verdana" font-size="14" font-weight="bold" lengthAdjust="spacing" textLength="96.4893" x="250.69" y="29.0752">Modification</text></g><!--cluster Contributors--><g class="cluster" data-entity="Contributors" data-source-line="38" data-uid="ent0010" id="cluster_Contributors"><path d="M13.5,549 L117.3545,549 A3.75,3.75 0 0 1 119.8545,551.5 L126.8545,576.0146 L526.12,576.0146 A2.5,2.5 0 0 1 528.62,578.5146 L528.62,785.5 A2.5,2.5 0 0 1 526.12,788 L13.5,788 A2.5,2.5 0 0 1 11,785.5 L11,551.5 A2.5,2.5 0 0 1 13.5,549" fill="#FFFFFF" style="stroke:#000000;stroke-width:1;"/><line style="stroke:#000000;stroke-width:1;" x1="11" x2="126.8545" y1="576.0146" y2="576.0146"/><text fill="#000000" font-family="Verdana" font-size="14" font-weight="bold" lengthAdjust="spacing" textLength="98.8545" x="17" y="567.0752">Contributors</text></g><!--class RepGraphModifierEntry--><g class="entity" data-entity="RepGraphModifierEntry" data-source-line="10" data-uid="ent0003" id="entity_RepGraphModifierEntry"><rect fill="#FFFFFF" height="173.1025" rx="2.5" ry="2.5" style="stroke:#000000;stroke-width:1;" width="256.7139" x="635.72" y="232.45"/><ellipse cx="657.0388" cy="247.9573" fill="#FFFFFF" rx="9" ry="9" style="stroke:#000000;stroke-width:1;"/><path d="M657.1521,243.3055 L655.9983,248.3772 L658.3142,248.3772 Z M655.658,241.0643 L658.6546,241.0643 L661.9998,253.4573 L659.5511,253.4573 L658.7874,250.3943 L655.5086,250.3943 L654.7615,253.4573 L652.3128,253.4573 Z " fill="#000000"/><text fill="#000000" font-family="Verdana" font-size="14" font-style="italic" lengthAdjust="spacing" textLength="163.0303" x="672.8875" y="253.5252">RepGraphModifierEntry</text><rect fill="#FFFFFF" height="20.584" style="stroke:#000000;stroke-width:1;stroke-dasharray:2,2;" width="41.1973" x="854.2366" y="229.45"/><text fill="#000000" font-family="Verdana" font-size="12" font-style="italic" lengthAdjust="spacing" textLength="35.1973" x="857.2366" y="244.5145">NODE</text><line style="stroke:#000000;stroke-width:1;" x1="636.72" x2="891.4339" y1="263.4646" y2="263.4646"/><text fill="#000000" font-family="Verdana" font-size="14" lengthAdjust="spacing" textLength="105.6768" x="643.72" y="283.5398">sourceFile: File</text><text fill="#000000" font-family="Verdana" font-size="14" lengthAdjust="spacing" textLength="102.7988" x="643.72" y="304.5545">nodeId: String</text><text fill="#000000" font-family="Verdana" font-size="14" lengthAdjust="spacing" textLength="122.1582" x="643.72" y="325.5691">nodeType: String</text><text fill="#000000" font-family="Verdana" font-size="14" lengthAdjust="spacing" textLength="171.8555" x="643.72" y="346.5838">mode: ModificationMode</text><text fill="#000000" font-family="Verdana" font-size="14" lengthAdjust="spacing" textLength="240.7139" x="643.72" y="367.5984">sourceData: Map&lt;String, Object&gt;</text><text fill="#000000" font-family="Verdana" font-size="14" lengthAdjust="spacing" textLength="195.665" x="643.72" y="388.6131">contributor: RepContributor</text><line style="stroke:#000000;stroke-width:1;" x1="636.72" x2="891.4339" y1="397.5525" y2="397.5525"/></g><!--class RepGraphModifierArtifactNode--><g class="entity" data-entity="RepGraphModifierArtifactNode" data-source-line="18" data-uid="ent0004" id="entity_RepGraphModifierArtifactNode"><rect fill="#FFFFFF" height="68.0293" rx="2.5" ry="2.5" style="stroke:#000000;stroke-width:1;" width="271.0625" x="307.68" y="440.99"/><ellipse cx="332.5738" cy="456.4973" fill="#FFFFFF" rx="9" ry="9" style="stroke:#000000;stroke-width:1;"/><path d="M335.5469,462.1404 Q334.9659,462.4392 334.3267,462.5886 Q333.6876,462.738 332.982,462.738 Q330.4752,462.738 329.1553,461.0862 Q327.8355,459.4343 327.8355,456.3132 Q327.8355,453.1838 329.1553,451.532 Q330.4752,449.8801 332.982,449.8801 Q333.6876,449.8801 334.335,450.0296 Q334.9825,450.179 335.5469,450.4778 L335.5469,453.2004 Q334.9161,452.6194 334.3226,452.3496 Q333.7291,452.0798 333.0982,452.0798 Q331.7535,452.0798 331.0687,453.1465 Q330.3839,454.2131 330.3839,456.3132 Q330.3839,458.405 331.0687,459.4717 Q331.7535,460.5383 333.0982,460.5383 Q333.7291,460.5383 334.3226,460.2686 Q334.9161,459.9988 335.5469,459.4177 Z " fill="#000000"/><text fill="#000000" font-family="Verdana" font-size="14" lengthAdjust="spacing" textLength="212.6318" x="349.2169" y="462.0652">RepGraphModifierArtifactNode</text><line style="stroke:#000000;stroke-width:1;" x1="308.68" x2="577.7425" y1="472.0046" y2="472.0046"/><text fill="#000000" font-family="Verdana" font-size="14" lengthAdjust="spacing" textLength="255.0625" x="315.68" y="492.0798">selectors: List&lt;RepArtifactMatcher&gt;</text><line style="stroke:#000000;stroke-width:1;" x1="308.68" x2="577.7425" y1="501.0193" y2="501.0193"/></g><!--class RepGraphModifierCpeNode--><g class="entity" data-entity="RepGraphModifierCpeNode" data-source-line="21" data-uid="ent0005" id="entity_RepGraphModifierCpeNode"><rect fill="#FFFFFF" height="68.0293" rx="2.5" ry="2.5" style="stroke:#000000;stroke-width:1;" width="220.4258" x="332.99" y="362.99"/><ellipse cx="345.99" cy="378.4973" fill="#FFFFFF" rx="9" ry="9" style="stroke:#000000;stroke-width:1;"/><path d="M348.9631,384.1404 Q348.3821,384.4392 347.7429,384.5886 Q347.1038,384.738 346.3982,384.738 Q343.8914,384.738 342.5715,383.0862 Q341.2517,381.4343 341.2517,378.3132 Q341.2517,375.1838 342.5715,373.532 Q343.8914,371.8801 346.3982,371.8801 Q347.1038,371.8801 347.7512,372.0296 Q348.3987,372.179 348.9631,372.4778 L348.9631,375.2004 Q348.3323,374.6194 347.7388,374.3496 Q347.1453,374.0798 346.5144,374.0798 Q345.1697,374.0798 344.4849,375.1465 Q343.8001,376.2131 343.8001,378.3132 Q343.8001,380.405 344.4849,381.4717 Q345.1697,382.5383 346.5144,382.5383 Q347.1453,382.5383 347.7388,382.2686 Q348.3323,381.9988 348.9631,381.4177 Z " fill="#000000"/><text fill="#000000" font-family="Verdana" font-size="14" lengthAdjust="spacing" textLength="188.4258" x="359.99" y="384.0652">RepGraphModifierCpeNode</text><line style="stroke:#000000;stroke-width:1;" x1="333.99" x2="552.4158" y1="394.0046" y2="394.0046"/><text fill="#000000" font-family="Verdana" font-size="14" lengthAdjust="spacing" textLength="62.4736" x="340.99" y="414.0798">Cpe: cpe</text><line style="stroke:#000000;stroke-width:1;" x1="333.99" x2="552.4158" y1="423.0193" y2="423.0193"/></g><!--class RepGraphModifierEolNode--><g class="entity" data-entity="RepGraphModifierEolNode" data-source-line="24" data-uid="ent0006" id="entity_RepGraphModifierEolNode"><rect fill="#FFFFFF" height="68.0293" rx="2.5" ry="2.5" style="stroke:#000000;stroke-width:1;" width="214.7793" x="335.82" y="284.99"/><ellipse cx="348.82" cy="300.4973" fill="#FFFFFF" rx="9" ry="9" style="stroke:#000000;stroke-width:1;"/><path d="M351.7931,306.1404 Q351.2121,306.4392 350.5729,306.5886 Q349.9338,306.738 349.2282,306.738 Q346.7214,306.738 345.4015,305.0862 Q344.0817,303.4343 344.0817,300.3132 Q344.0817,297.1838 345.4015,295.532 Q346.7214,293.8801 349.2282,293.8801 Q349.9338,293.8801 350.5812,294.0296 Q351.2287,294.179 351.7931,294.4778 L351.7931,297.2004 Q351.1623,296.6194 350.5688,296.3496 Q349.9753,296.0798 349.3444,296.0798 Q347.9997,296.0798 347.3149,297.1465 Q346.6301,298.2131 346.6301,300.3132 Q346.6301,302.405 347.3149,303.4717 Q347.9997,304.5383 349.3444,304.5383 Q349.9753,304.5383 350.5688,304.2686 Q351.1623,303.9988 351.7931,303.4177 Z " fill="#000000"/><text fill="#000000" font-family="Verdana" font-size="14" lengthAdjust="spacing" textLength="182.7793" x="362.82" y="306.0652">RepGraphModifierEolNode</text><line style="stroke:#000000;stroke-width:1;" x1="336.82" x2="549.5993" y1="316.0046" y2="316.0046"/><text fill="#000000" font-family="Verdana" font-size="14" lengthAdjust="spacing" textLength="89.0586" x="343.82" y="336.0798">eolId: String</text><line style="stroke:#000000;stroke-width:1;" x1="336.82" x2="549.5993" y1="345.0193" y2="345.0193"/></g><!--class RepGraphModifierRepMsProductIdNode--><g class="entity" data-entity="RepGraphModifierRepMsProductIdNode" data-source-line="27" data-uid="ent0007" id="entity_RepGraphModifierRepMsProductIdNode"><rect fill="#FFFFFF" height="68.0293" rx="2.5" ry="2.5" style="stroke:#000000;stroke-width:1;" width="307.3994" x="289.51" y="206.99"/><ellipse cx="302.51" cy="222.4973" fill="#FFFFFF" rx="9" ry="9" style="stroke:#000000;stroke-width:1;"/><path d="M305.4831,228.1404 Q304.9021,228.4392 304.2629,228.5886 Q303.6238,228.738 302.9182,228.738 Q300.4114,228.738 299.0915,227.0862 Q297.7717,225.4343 297.7717,222.3132 Q297.7717,219.1838 299.0915,217.532 Q300.4114,215.8801 302.9182,215.8801 Q303.6238,215.8801 304.2712,216.0296 Q304.9187,216.179 305.4831,216.4778 L305.4831,219.2004 Q304.8523,218.6194 304.2588,218.3496 Q303.6653,218.0798 303.0344,218.0798 Q301.6897,218.0798 301.0049,219.1465 Q300.3201,220.2131 300.3201,222.3132 Q300.3201,224.405 301.0049,225.4717 Q301.6897,226.5383 303.0344,226.5383 Q303.6653,226.5383 304.2588,226.2686 Q304.8523,225.9988 305.4831,225.4177 Z " fill="#000000"/><text fill="#000000" font-family="Verdana" font-size="14" lengthAdjust="spacing" textLength="275.3994" x="316.51" y="228.0652">RepGraphModifierRepMsProductIdNode</text><line style="stroke:#000000;stroke-width:1;" x1="290.51" x2="595.9094" y1="238.0046" y2="238.0046"/><text fill="#000000" font-family="Verdana" font-size="14" lengthAdjust="spacing" textLength="89.291" x="297.51" y="258.0798">msId: String</text><line style="stroke:#000000;stroke-width:1;" x1="290.51" x2="595.9094" y1="267.0193" y2="267.0193"/></g><!--class RepGraphModifierProductNode--><g class="entity" data-entity="RepGraphModifierProductNode" data-source-line="30" data-uid="ent0008" id="entity_RepGraphModifierProductNode"><rect fill="#FFFFFF" height="68.0293" rx="2.5" ry="2.5" style="stroke:#000000;stroke-width:1;" width="365.0361" x="260.69" y="128.99"/><ellipse cx="330.0108" cy="144.4973" fill="#FFFFFF" rx="9" ry="9" style="stroke:#000000;stroke-width:1;"/><path d="M332.9839,150.1404 Q332.4029,150.4392 331.7637,150.5886 Q331.1246,150.738 330.419,150.738 Q327.9122,150.738 326.5923,149.0862 Q325.2725,147.4343 325.2725,144.3132 Q325.2725,141.1838 326.5923,139.532 Q327.9122,137.8801 330.419,137.8801 Q331.1246,137.8801 331.772,138.0296 Q332.4195,138.179 332.9839,138.4778 L332.9839,141.2004 Q332.3531,140.6194 331.7596,140.3496 Q331.1661,140.0798 330.5352,140.0798 Q329.1905,140.0798 328.5057,141.1465 Q327.8209,142.2131 327.8209,144.3132 Q327.8209,146.405 328.5057,147.4717 Q329.1905,148.5383 330.5352,148.5383 Q331.1661,148.5383 331.7596,148.2686 Q332.3531,147.9988 332.9839,147.4177 Z " fill="#000000"/><text fill="#000000" font-family="Verdana" font-size="14" lengthAdjust="spacing" textLength="214.8945" x="349.5108" y="150.0652">RepGraphModifierProductNode</text><line style="stroke:#000000;stroke-width:1;" x1="261.69" x2="624.7261" y1="160.0046" y2="160.0046"/><text fill="#000000" font-family="Verdana" font-size="14" lengthAdjust="spacing" textLength="349.0361" x="268.69" y="180.0798">namespaces: List&lt;RepGraphProductNamespace&gt;</text><line style="stroke:#000000;stroke-width:1;" x1="261.69" x2="624.7261" y1="189.0193" y2="189.0193"/></g><!--class RepGraphModifierPurlNode--><g class="entity" data-entity="RepGraphModifierPurlNode" data-source-line="33" data-uid="ent0009" id="entity_RepGraphModifierPurlNode"><rect fill="#FFFFFF" height="68.0293" rx="2.5" ry="2.5" style="stroke:#000000;stroke-width:1;" width="220.7061" x="332.85" y="50.99"/><ellipse cx="345.85" cy="66.4973" fill="#FFFFFF" rx="9" ry="9" style="stroke:#000000;stroke-width:1;"/><path d="M348.8231,72.1404 Q348.2421,72.4392 347.6029,72.5886 Q346.9638,72.738 346.2582,72.738 Q343.7514,72.738 342.4315,71.0862 Q341.1117,69.4343 341.1117,66.3132 Q341.1117,63.1838 342.4315,61.532 Q343.7514,59.8801 346.2582,59.8801 Q346.9638,59.8801 347.6112,60.0296 Q348.2587,60.179 348.8231,60.4778 L348.8231,63.2004 Q348.1923,62.6194 347.5988,62.3496 Q347.0053,62.0798 346.3744,62.0798 Q345.0297,62.0798 344.3449,63.1465 Q343.6601,64.2131 343.6601,66.3132 Q343.6601,68.405 344.3449,69.4717 Q345.0297,70.5383 346.3744,70.5383 Q347.0053,70.5383 347.5988,70.2686 Q348.1923,69.9988 348.8231,69.4177 Z " fill="#000000"/><text fill="#000000" font-family="Verdana" font-size="14" lengthAdjust="spacing" textLength="188.7061" x="359.85" y="72.0652">RepGraphModifierPurlNode</text><line style="stroke:#000000;stroke-width:1;" x1="333.85" x2="552.5561" y1="82.0046" y2="82.0046"/><text fill="#000000" font-family="Verdana" font-size="14" lengthAdjust="spacing" textLength="81.1631" x="340.85" y="102.0798">purl: String</text><line style="stroke:#000000;stroke-width:1;" x1="333.85" x2="552.5561" y1="111.0193" y2="111.0193"/></g><!--class RepContributor--><g class="entity" data-entity="RepContributor" data-source-line="39" data-uid="ent0011" id="entity_RepContributor"><rect fill="#FFFFFF" height="89.0439" rx="2.5" ry="2.5" style="stroke:#000000;stroke-width:1;" width="138.832" x="373.79" y="618.48"/><ellipse cx="386.79" cy="633.9873" fill="#FFFFFF" rx="9" ry="9" style="stroke:#000000;stroke-width:1;"/><path d="M386.9033,629.3355 L385.7495,634.4072 L388.0654,634.4072 Z M385.4091,627.0943 L388.4057,627.0943 L391.7509,639.4873 L389.3022,639.4873 L388.5385,636.4243 L385.2597,636.4243 L384.5127,639.4873 L382.0639,639.4873 Z " fill="#000000"/><text fill="#000000" font-family="Verdana" font-size="14" font-style="italic" lengthAdjust="spacing" textLength="106.832" x="400.79" y="639.5552">RepContributor</text><line style="stroke:#000000;stroke-width:1;" x1="374.79" x2="511.622" y1="649.4946" y2="649.4946"/><text fill="#000000" font-family="Verdana" font-size="14" lengthAdjust="spacing" textLength="121.584" x="381.79" y="669.5698">graph: RepGraph</text><text fill="#000000" font-family="Verdana" font-size="14" lengthAdjust="spacing" textLength="92.9893" x="381.79" y="690.5845">name: String</text><line style="stroke:#000000;stroke-width:1;" x1="374.79" x2="511.622" y1="699.5239" y2="699.5239"/></g><!--class Purl2CpeRepContributor--><g class="entity" data-entity="Purl2CpeRepContributor" data-source-line="43" data-uid="ent0012" id="entity_Purl2CpeRepContributor"><rect fill="#FFFFFF" height="47.0146" rx="2.5" ry="2.5" style="stroke:#000000;stroke-width:1;" width="201.6885" x="27" y="724.49"/><ellipse cx="40" cy="739.9973" fill="#FFFFFF" rx="9" ry="9" style="stroke:#000000;stroke-width:1;"/><path d="M42.9731,745.6404 Q42.3921,745.9392 41.7529,746.0886 Q41.1138,746.238 40.4082,746.238 Q37.9014,746.238 36.5815,744.5862 Q35.2617,742.9343 35.2617,739.8132 Q35.2617,736.6838 36.5815,735.032 Q37.9014,733.3801 40.4082,733.3801 Q41.1138,733.3801 41.7612,733.5296 Q42.4087,733.679 42.9731,733.9778 L42.9731,736.7004 Q42.3423,736.1194 41.7488,735.8496 Q41.1553,735.5798 40.5244,735.5798 Q39.1797,735.5798 38.4949,736.6465 Q37.8101,737.7131 37.8101,739.8132 Q37.8101,741.905 38.4949,742.9717 Q39.1797,744.0383 40.5244,744.0383 Q41.1553,744.0383 41.7488,743.7686 Q42.3423,743.4988 42.9731,742.9177 Z " fill="#000000"/><text fill="#000000" font-family="Verdana" font-size="14" lengthAdjust="spacing" textLength="169.6885" x="54" y="745.5652">Purl2CpeRepContributor</text><line style="stroke:#000000;stroke-width:1;" x1="28" x2="227.6885" y1="755.5046" y2="755.5046"/><line style="stroke:#000000;stroke-width:1;" x1="28" x2="227.6885" y1="763.5046" y2="763.5046"/></g><!--class NpmCpeRepContributor--><g class="entity" data-entity="NpmCpeRepContributor" data-source-line="44" data-uid="ent0013" id="entity_NpmCpeRepContributor"><rect fill="#FFFFFF" height="47.0146" rx="2.5" ry="2.5" style="stroke:#000000;stroke-width:1;" width="198.4824" x="28.6" y="667.49"/><ellipse cx="41.6" cy="682.9973" fill="#FFFFFF" rx="9" ry="9" style="stroke:#000000;stroke-width:1;"/><path d="M44.5731,688.6404 Q43.9921,688.9392 43.3529,689.0886 Q42.7138,689.238 42.0082,689.238 Q39.5014,689.238 38.1815,687.5862 Q36.8617,685.9343 36.8617,682.8132 Q36.8617,679.6838 38.1815,678.032 Q39.5014,676.3801 42.0082,676.3801 Q42.7138,676.3801 43.3612,676.5296 Q44.0087,676.679 44.5731,676.9778 L44.5731,679.7004 Q43.9423,679.1194 43.3488,678.8496 Q42.7553,678.5798 42.1244,678.5798 Q40.7797,678.5798 40.0949,679.6465 Q39.4101,680.7131 39.4101,682.8132 Q39.4101,684.905 40.0949,685.9717 Q40.7797,687.0383 42.1244,687.0383 Q42.7553,687.0383 43.3488,686.7686 Q43.9423,686.4988 44.5731,685.9177 Z " fill="#000000"/><text fill="#000000" font-family="Verdana" font-size="14" lengthAdjust="spacing" textLength="166.4824" x="55.6" y="688.5652">NpmCpeRepContributor</text><line style="stroke:#000000;stroke-width:1;" x1="29.6" x2="226.0824" y1="698.5046" y2="698.5046"/><line style="stroke:#000000;stroke-width:1;" x1="29.6" x2="226.0824" y1="706.5046" y2="706.5046"/></g><!--class FileRepContributor--><g class="entity" data-entity="FileRepContributor" data-source-line="45" data-uid="ent0014" id="entity_FileRepContributor"><rect fill="#FFFFFF" height="68.0293" rx="2.5" ry="2.5" style="stroke:#000000;stroke-width:1;" width="162.9014" x="46.39" y="588.99"/><ellipse cx="59.39" cy="604.4973" fill="#FFFFFF" rx="9" ry="9" style="stroke:#000000;stroke-width:1;"/><path d="M62.3631,610.1404 Q61.7821,610.4392 61.1429,610.5886 Q60.5038,610.738 59.7982,610.738 Q57.2914,610.738 55.9715,609.0862 Q54.6517,607.4343 54.6517,604.3132 Q54.6517,601.1838 55.9715,599.532 Q57.2914,597.8801 59.7982,597.8801 Q60.5038,597.8801 61.1512,598.0296 Q61.7987,598.179 62.3631,598.4778 L62.3631,601.2004 Q61.7323,600.6194 61.1388,600.3496 Q60.5453,600.0798 59.9144,600.0798 Q58.5697,600.0798 57.8849,601.1465 Q57.2001,602.2131 57.2001,604.3132 Q57.2001,606.405 57.8849,607.4717 Q58.5697,608.5383 59.9144,608.5383 Q60.5453,608.5383 61.1388,608.2686 Q61.7323,607.9988 62.3631,607.4177 Z " fill="#000000"/><text fill="#000000" font-family="Verdana" font-size="14" lengthAdjust="spacing" textLength="130.9014" x="73.39" y="610.0652">FileRepContributor</text><line style="stroke:#000000;stroke-width:1;" x1="47.39" x2="208.2914" y1="620.0046" y2="620.0046"/><text fill="#000000" font-family="Verdana" font-size="14" lengthAdjust="spacing" textLength="110.9473" x="54.39" y="640.0798">files: List&lt;File&gt;</text><line style="stroke:#000000;stroke-width:1;" x1="47.39" x2="208.2914" y1="649.0193" y2="649.0193"/></g><!--link RepGraphModifierArtifactNode to RepGraphModifierEntry--><g class="link" data-entity-1="RepGraphModifierArtifactNode" data-entity-2="RepGraphModifierEntry" data-source-line="50" data-uid="lnk15" id="link_RepGraphModifierArtifactNode_RepGraphModifierEntry"><path codeLine="50" d="M566.44,440.5 C566.44,417.46 566.44,391.36 566.44,391.36 C566.44,391.36 579.66,391.36 617.29,391.36" fill="none" id="RepGraphModifierArtifactNode-to-RepGraphModifierEntry" style="stroke:#000082;stroke-width:1;"/><polygon fill="none" points="635.29,391.36,617.29,385.36,617.29,397.36,635.29,391.36" style="stroke:#000082;stroke-width:1;"/></g><!--link RepGraphModifierCpeNode to RepGraphModifierEntry--><g class="link" data-entity-1="RepGraphModifierCpeNode" data-entity-2="RepGraphModifierEntry" data-source-line="51" data-uid="lnk16" id="link_RepGraphModifierCpeNode_RepGraphModifierEntry"><path codeLine="51" d="M553.63,377.17 C579.92,377.17 590.2,377.17 617.23,377.17" fill="none" id="RepGraphModifierCpeNode-to-RepGraphModifierEntry" style="stroke:#000082;stroke-width:1;"/><polygon fill="none" points="635.23,377.17,617.23,371.17,617.23,383.17,635.23,377.17" style="stroke:#000082;stroke-width:1;"/></g><!--link RepGraphModifierEolNode to RepGraphModifierEntry--><g class="link" data-entity-1="RepGraphModifierEolNode" data-entity-2="RepGraphModifierEntry" data-source-line="52" data-uid="lnk17" id="link_RepGraphModifierEolNode_RepGraphModifierEntry"><path codeLine="52" d="M550.95,319 C578.07,319 589.46,319 617.5,319" fill="none" id="RepGraphModifierEolNode-to-RepGraphModifierEntry" style="stroke:#000082;stroke-width:1;"/><polygon fill="none" points="635.5,319,617.5,313,617.5,325,635.5,319" style="stroke:#000082;stroke-width:1;"/></g><!--link RepGraphModifierRepMsProductIdNode to RepGraphModifierEntry--><g class="link" data-entity-1="RepGraphModifierRepMsProductIdNode" data-entity-2="RepGraphModifierEntry" data-source-line="53" data-uid="lnk18" id="link_RepGraphModifierRepMsProductIdNode_RepGraphModifierEntry"><path codeLine="53" d="M597.07,260.83 C609.93,260.83 604.86,260.83 617.5,260.83" fill="none" id="RepGraphModifierRepMsProductIdNode-to-RepGraphModifierEntry" style="stroke:#000082;stroke-width:1;"/><polygon fill="none" points="635.5,260.83,617.5,254.83,617.5,266.83,635.5,260.83" style="stroke:#000082;stroke-width:1;"/></g><!--link RepGraphModifierProductNode to RepGraphModifierEntry--><g class="link" data-entity-1="RepGraphModifierProductNode" data-entity-2="RepGraphModifierEntry" data-source-line="54" data-uid="lnk19" id="link_RepGraphModifierProductNode_RepGraphModifierEntry"><path codeLine="54" d="M611.44,197.5 C611.44,220.54 611.44,246.64 611.44,246.64 C611.44,246.64 602.98,246.64 617.29,246.64" fill="none" id="RepGraphModifierProductNode-to-RepGraphModifierEntry" style="stroke:#000082;stroke-width:1;"/><polygon fill="none" points="635.29,246.64,617.29,240.64,617.29,252.64,635.29,246.64" style="stroke:#000082;stroke-width:1;"/></g><!--link RepGraphModifierPurlNode to RepGraphModifierEntry--><g class="link" data-entity-1="RepGraphModifierPurlNode" data-entity-2="RepGraphModifierEntry" data-source-line="55" data-uid="lnk20" id="link_RepGraphModifierPurlNode_RepGraphModifierEntry"><path codeLine="55" d="M553.76,85 C646.68,85 764.44,85 764.44,85 C764.44,85 764.44,147.61 764.44,214.2" fill="none" id="RepGraphModifierPurlNode-to-RepGraphModifierEntry" style="stroke:#000082;stroke-width:1;"/><polygon fill="none" points="764.44,232.2,770.44,214.2,758.44,214.2,764.44,232.2" style="stroke:#000082;stroke-width:1;"/></g><!--reverse link RepContributor to RepGraphModifierEntry--><g class="link" data-entity-1="RepContributor" data-entity-2="RepGraphModifierEntry" data-source-line="56" data-uid="lnk21" id="link_RepContributor_RepGraphModifierEntry"><path codeLine="56" d="M518.91,663 C613.39,663 764.44,663 764.44,663 C764.44,663 764.44,507.71 764.44,405.81" fill="none" id="RepContributor-backto-RepGraphModifierEntry" style="stroke:#820000;stroke-width:1;"/><polygon fill="#820000" points="512.91,663,521.91,667,517.91,663,521.91,659,512.91,663" style="stroke:#820000;stroke-width:1;"/></g><!--link FileRepContributor to RepContributor--><g class="link" data-entity-1="FileRepContributor" data-entity-2="RepContributor" data-source-line="58" data-uid="lnk22" id="link_FileRepContributor_RepContributor"><path codeLine="58" d="M209.47,637.75 C260.29,637.75 306.99,637.75 355.42,637.75" fill="none" id="FileRepContributor-to-RepContributor" style="stroke:#000082;stroke-width:1;"/><polygon fill="none" points="373.42,637.75,355.42,631.75,355.42,643.75,373.42,637.75" style="stroke:#000082;stroke-width:1;"/></g><!--link NpmCpeRepContributor to RepContributor--><g class="link" data-entity-1="NpmCpeRepContributor" data-entity-2="RepContributor" data-source-line="59" data-uid="lnk23" id="link_NpmCpeRepContributor_RepContributor"><path codeLine="59" d="M227.19,687.51 C274.68,687.51 312.38,687.51 355.32,687.51" fill="none" id="NpmCpeRepContributor-to-RepContributor" style="stroke:#000082;stroke-width:1;"/><polygon fill="none" points="373.32,687.51,355.32,681.51,355.32,693.51,373.32,687.51" style="stroke:#000082;stroke-width:1;"/></g><!--link Purl2CpeRepContributor to RepContributor--><g class="link" data-entity-1="Purl2CpeRepContributor" data-entity-2="RepContributor" data-source-line="60" data-uid="lnk24" id="link_Purl2CpeRepContributor_RepContributor"><path codeLine="60" d="M229,748 C321.31,748 443.44,748 443.44,748 C443.44,748 443.44,746.38 443.44,725.99" fill="none" id="Purl2CpeRepContributor-to-RepContributor" style="stroke:#000082;stroke-width:1;"/><polygon fill="none" points="443.44,707.99,437.44,725.99,449.44,725.99,443.44,707.99" style="stroke:#000082;stroke-width:1;"/></g><!--SRC=[dLHDJ-Cm4BtdLyp25IIs9nHLbLQbkqBQbchXjjgLN6VQU9lOrdXwG8Z_lkEM51EI5kf3b7ZUU_FXvtpX4ci4NobZimgN3Eo0pAfaA0oXPkDi5jR6UaMgXifOv4UFu8XBbmIiAp2WXwzNoIOfktwtELT5OUmA1bdcbLwh5SBPr1LcQRIAsSxWAGDPQX6Ob6RGbGe1Vg7_GSgNEoZIn38z3cTtDvFH2o6ku3QayRkfC8Vut0TYVRT53lTCalpDzeFqyovGIo27j2vvnrQU6yLAGCeFT-mBk5lyavcDzZZjf4opsB2ZFBOmVltUOfwtp-uEln6RfGnW9edJ5h6I58v23ZzDuA7G6kHKiIwHHaUbnnvRgkCu0-tnA7NYgXOLNTMQx26-V4_3d5onqNnRjAJgy0cb5v6MX5Kr1Z4M9lFPqXfu4py-fVc6shrwsMeL-9puE3dUqE_Z19L8hsBgV5_4cuPwPn9B7CZPTLXh1vZv-b0utf7UYfOIRAOOWQFNZWzwzVBt-PMiwy75zhVov_9lz-tD-cnvia1ZpfC5EjnvibRgpzD56Wz-HY4zpg4GhmUHsX1xU5c75xgJfbRgyjS7QDs-_G3nFm00]--></g></svg>