<svg xmlns="http://www.w3.org/2000/svg" xmlns:xlink="http://www.w3.org/1999/xlink" contentStyleType="text/css" data-diagram-type="CLASS" height="1112px" preserveAspectRatio="none" style="width:1170px;height:1112px;background:#FFFFFF;" version="1.1" viewBox="0 0 1170 1112" width="1170px" zoomAndPan="magnify"><defs/><g><!--cluster Graph Core--><g class="cluster" data-entity="Graph Core" data-source-line="6" data-uid="ent0002" id="cluster_Graph Core"><path d="M13.5,11 L102.7109,11 A3.75,3.75 0 0 1 105.2109,13.5 L112.2109,34.0146 L1160.62,34.0146 A2.5,2.5 0 0 1 1163.12,36.5146 L1163.12,484.5 A2.5,2.5 0 0 1 1160.62,487 L13.5,487 A2.5,2.5 0 0 1 11,484.5 L11,13.5 A2.5,2.5 0 0 1 13.5,11" fill="#FFFFFF" style="stroke:#000000;stroke-width:1;"/><line style="stroke:#000000;stroke-width:1;" x1="11" x2="112.2109" y1="34.0146" y2="34.0146"/><text fill="#000000" font-family="Verdana" font-size="14" font-weight="bold" lengthAdjust="spacing" textLength="88.2109" x="15" y="27.0752">Graph Core</text></g><!--cluster Node Types--><g class="cluster" data-entity="Node Types" data-source-line="41" data-uid="ent0008" id="cluster_Node Types"><path d="M325.07,511 L417.4528,511 A3.75,3.75 0 0 1 419.9528,513.5 L426.9528,534.0146 L713.11,534.0146 A2.5,2.5 0 0 1 715.61,536.5146 L715.61,1102.5 A2.5,2.5 0 0 1 713.11,1105 L325.07,1105 A2.5,2.5 0 0 1 322.57,1102.5 L322.57,513.5 A2.5,2.5 0 0 1 325.07,511" fill="#FFFFFF" style="stroke:#000000;stroke-width:1;"/><line style="stroke:#000000;stroke-width:1;" x1="322.57" x2="426.9528" y1="534.0146" y2="534.0146"/><text fill="#000000" font-family="Verdana" font-size="14" font-weight="bold" lengthAdjust="spacing" textLength="91.3828" x="326.57" y="527.0752">Node Types</text></g><!--class RepGraph--><g class="entity" data-entity="RepGraph" data-source-line="7" data-uid="ent0003" id="entity_RepGraph"><rect fill="#FFFFFF" height="78.0293" rx="2.5" ry="2.5" style="stroke:#000000;stroke-width:1;" width="177.4775" x="430.35" y="392.99"/><ellipse cx="480.5302" cy="406.99" fill="#FFFFFF" rx="9" ry="9" style="stroke:#000000;stroke-width:1;"/><path d="M483.5033,412.6331 Q482.9223,412.9319 482.2831,413.0813 Q481.6439,413.2307 480.9384,413.2307 Q478.4315,413.2307 477.1117,411.5789 Q475.7919,409.927 475.7919,406.8059 Q475.7919,403.6765 477.1117,402.0247 Q478.4315,400.3728 480.9384,400.3728 Q481.6439,400.3728 482.2914,400.5222 Q482.9389,400.6716 483.5033,400.9705 L483.5033,403.6931 Q482.8725,403.1121 482.279,402.8423 Q481.6854,402.5725 481.0546,402.5725 Q479.7099,402.5725 479.025,403.6392 Q478.3402,404.7058 478.3402,406.8059 Q478.3402,408.8977 479.025,409.9644 Q479.7099,411.031 481.0546,411.031 Q481.6854,411.031 482.279,410.7612 Q482.8725,410.4915 483.5033,409.9104 Z " fill="#000000"/><text fill="#000000" font-family="Verdana" font-size="14" lengthAdjust="spacing" textLength="69.6172" x="498.0302" y="412.5579">RepGraph</text><line style="stroke:#000000;stroke-width:1;" x1="431.35" x2="606.8275" y1="420.99" y2="420.99"/><text fill="#000000" font-family="Verdana" font-size="14" lengthAdjust="spacing" textLength="156.9941" x="436.35" y="439.0652">mode: OperationMode</text><text fill="#000000" font-family="Verdana" font-size="14" lengthAdjust="spacing" textLength="165.4775" x="436.35" y="456.0798">connection: Connection</text><line style="stroke:#000000;stroke-width:1;" x1="431.35" x2="606.8275" y1="463.0193" y2="463.0193"/></g><!--class RepGraphQuery--><g class="entity" data-entity="RepGraphQuery" data-source-line="11" data-uid="ent0004" id="entity_RepGraphQuery"><rect fill="#FFFFFF" height="61.0146" rx="2.5" ry="2.5" style="stroke:#000000;stroke-width:1;" width="251.5723" x="27" y="279.49"/><ellipse cx="92.9883" cy="293.49" fill="#FFFFFF" rx="9" ry="9" style="stroke:#000000;stroke-width:1;"/><path d="M95.9614,299.1331 Q95.3804,299.4319 94.7412,299.5813 Q94.1021,299.7307 93.3965,299.7307 Q90.8896,299.7307 89.5698,298.0789 Q88.25,296.427 88.25,293.3059 Q88.25,290.1765 89.5698,288.5247 Q90.8896,286.8728 93.3965,286.8728 Q94.1021,286.8728 94.7495,287.0222 Q95.397,287.1716 95.9614,287.4705 L95.9614,290.1931 Q95.3306,289.6121 94.7371,289.3423 Q94.1436,289.0725 93.5127,289.0725 Q92.168,289.0725 91.4832,290.1392 Q90.7983,291.2058 90.7983,293.3059 Q90.7983,295.3977 91.4832,296.4644 Q92.168,297.531 93.5127,297.531 Q94.1436,297.531 94.7371,297.2612 Q95.3306,296.9915 95.9614,296.4104 Z " fill="#000000"/><text fill="#000000" font-family="Verdana" font-size="14" lengthAdjust="spacing" textLength="112.0957" x="110.4883" y="299.0579">RepGraphQuery</text><line style="stroke:#000000;stroke-width:1;" x1="28" x2="277.5723" y1="307.49" y2="307.49"/><text fill="#000000" font-family="Verdana" font-size="14" lengthAdjust="spacing" textLength="239.5723" x="33" y="325.5652">dataConstructor: DataConstructor</text><line style="stroke:#000000;stroke-width:1;" x1="28" x2="277.5723" y1="332.5046" y2="332.5046"/></g><!--class TraversalQuery--><g class="entity" data-entity="TraversalQuery" data-source-line="14" data-uid="ent0005" id="entity_TraversalQuery"><rect fill="#FFFFFF" height="95.0439" rx="2.5" ry="2.5" style="stroke:#000000;stroke-width:1;" width="341.3555" x="348.41" y="262.48"/><ellipse cx="461.5218" cy="276.48" fill="#FFFFFF" rx="9" ry="9" style="stroke:#000000;stroke-width:1;"/><path d="M464.495,282.1231 Q463.9139,282.4219 463.2747,282.5713 Q462.6356,282.7207 461.93,282.7207 Q459.4232,282.7207 458.1034,281.0689 Q456.7835,279.417 456.7835,276.2959 Q456.7835,273.1665 458.1034,271.5147 Q459.4232,269.8628 461.93,269.8628 Q462.6356,269.8628 463.283,270.0122 Q463.9305,270.1616 464.495,270.4605 L464.495,273.1831 Q463.8641,272.6021 463.2706,272.3323 Q462.6771,272.0625 462.0462,272.0625 Q460.7015,272.0625 460.0167,273.1292 Q459.3319,274.1958 459.3319,276.2959 Q459.3319,278.3877 460.0167,279.4544 Q460.7015,280.521 462.0462,280.521 Q462.6771,280.521 463.2706,280.2512 Q463.8641,279.9815 464.495,279.4004 Z " fill="#000000"/><text fill="#000000" font-family="Verdana" font-size="14" lengthAdjust="spacing" textLength="107.6318" x="479.0218" y="282.0479">TraversalQuery</text><line style="stroke:#000000;stroke-width:1;" x1="349.41" x2="688.7655" y1="290.48" y2="290.48"/><text fill="#000000" font-family="Verdana" font-size="14" lengthAdjust="spacing" textLength="327.667" x="354.41" y="308.5552">edgeFilters: List&lt;Predicate&lt;RepGraphEdge&gt;&gt;</text><text fill="#000000" font-family="Verdana" font-size="14" lengthAdjust="spacing" textLength="329.3555" x="354.41" y="325.5698">nodeFilters: List&lt;Predicate&lt;RepGraphNode&gt;&gt;</text><text fill="#000000" font-family="Verdana" font-size="14" lengthAdjust="spacing" textLength="284.9971" x="354.41" y="342.5845">queryDirection: TraversalQueryDirection</text><line style="stroke:#000000;stroke-width:1;" x1="349.41" x2="688.7655" y1="349.5239" y2="349.5239"/></g><!--class RepGraphNode--><g class="entity" data-entity="RepGraphNode" data-source-line="19" data-uid="ent0006" id="entity_RepGraphNode"><rect fill="#FFFFFF" height="180.1172" rx="2.5" ry="2.5" style="stroke:#000000;stroke-width:1;" width="387.5117" x="759.61" y="290.94"/><ellipse cx="896.7912" cy="304.94" fill="#FFFFFF" rx="9" ry="9" style="stroke:#000000;stroke-width:1;"/><path d="M899.7643,310.5831 Q899.1832,310.8819 898.5441,311.0313 Q897.9049,311.1807 897.1994,311.1807 Q894.6925,311.1807 893.3727,309.5289 Q892.0529,307.877 892.0529,304.7559 Q892.0529,301.6265 893.3727,299.9747 Q894.6925,298.3228 897.1994,298.3228 Q897.9049,298.3228 898.5524,298.4722 Q899.1998,298.6216 899.7643,298.9205 L899.7643,301.6431 Q899.1334,301.0621 898.5399,300.7923 Q897.9464,300.5225 897.3156,300.5225 Q895.9708,300.5225 895.286,301.5892 Q894.6012,302.6558 894.6012,304.7559 Q894.6012,306.8477 895.286,307.9144 Q895.9708,308.981 897.3156,308.981 Q897.9464,308.981 898.5399,308.7112 Q899.1334,308.4415 899.7643,307.8604 Z " fill="#000000"/><text fill="#000000" font-family="Verdana" font-size="14" lengthAdjust="spacing" textLength="105.6494" x="914.2912" y="310.5079">RepGraphNode</text><line style="stroke:#000000;stroke-width:1;" x1="760.61" x2="1146.1217" y1="318.94" y2="318.94"/><text fill="#000000" font-family="Verdana" font-size="14" lengthAdjust="spacing" textLength="121.584" x="765.61" y="337.0152">graph: RepGraph</text><text fill="#000000" font-family="Verdana" font-size="14" lengthAdjust="spacing" textLength="66.5752" x="765.61" y="354.0298">uid: Long</text><text fill="#000000" font-family="Verdana" font-size="14" lengthAdjust="spacing" textLength="66.3291" x="765.61" y="371.0445">id: String</text><text fill="#000000" font-family="Verdana" font-size="14" lengthAdjust="spacing" textLength="122.1582" x="765.61" y="388.0591">nodeType: String</text><text fill="#000000" font-family="Verdana" font-size="14" lengthAdjust="spacing" textLength="186.6826" x="765.61" y="405.0738">namespaces: Set&lt;String&gt;</text><text fill="#000000" font-family="Verdana" font-size="14" lengthAdjust="spacing" textLength="248.9854" x="765.61" y="422.0884">metadata: RepGraphNodeMetadata</text><text fill="#000000" font-family="Verdana" font-size="14" lengthAdjust="spacing" textLength="184.9531" x="765.61" y="439.1031">contributors: Set&lt;String&gt;</text><text fill="#000000" font-family="Verdana" font-size="14" lengthAdjust="spacing" textLength="375.5117" x="765.61" y="456.1177">relatedNodes: Map&lt;RepGraphEdge, RepGraphNode&gt;</text><line style="stroke:#000000;stroke-width:1;" x1="760.61" x2="1146.1217" y1="463.0572" y2="463.0572"/></g><!--class RepGraphEdge--><g class="entity" data-entity="RepGraphEdge" data-source-line="29" data-uid="ent0007" id="entity_RepGraphEdge"><rect fill="#FFFFFF" height="180.1172" rx="2.5" ry="2.5" style="stroke:#000000;stroke-width:1;" width="313.2871" x="362.45" y="46.94"/><ellipse cx="463.2161" cy="60.94" fill="#FFFFFF" rx="9" ry="9" style="stroke:#000000;stroke-width:1;"/><path d="M466.1893,66.5831 Q465.6082,66.8819 464.969,67.0313 Q464.3299,67.1807 463.6243,67.1807 Q461.1175,67.1807 459.7977,65.5289 Q458.4778,63.877 458.4778,60.7559 Q458.4778,57.6265 459.7977,55.9747 Q461.1175,54.3228 463.6243,54.3228 Q464.3299,54.3228 464.9773,54.4722 Q465.6248,54.6216 466.1893,54.9205 L466.1893,57.6431 Q465.5584,57.0621 464.9649,56.7923 Q464.3714,56.5225 463.7405,56.5225 Q462.3958,56.5225 461.711,57.5892 Q461.0262,58.6558 461.0262,60.7559 Q461.0262,62.8477 461.711,63.9144 Q462.3958,64.981 463.7405,64.981 Q464.3714,64.981 464.9649,64.7112 Q465.5584,64.4415 466.1893,63.8604 Z " fill="#000000"/><text fill="#000000" font-family="Verdana" font-size="14" lengthAdjust="spacing" textLength="104.2549" x="480.7161" y="66.5079">RepGraphEdge</text><line style="stroke:#000000;stroke-width:1;" x1="363.45" x2="674.7371" y1="74.94" y2="74.94"/><text fill="#000000" font-family="Verdana" font-size="14" lengthAdjust="spacing" textLength="66.5752" x="368.45" y="93.0152">uid: Long</text><text fill="#000000" font-family="Verdana" font-size="14" lengthAdjust="spacing" textLength="114.2217" x="368.45" y="110.0298">sourceUid: Long</text><text fill="#000000" font-family="Verdana" font-size="14" lengthAdjust="spacing" textLength="110.4414" x="368.45" y="127.0445">targetUid: Long</text><text fill="#000000" font-family="Verdana" font-size="14" lengthAdjust="spacing" textLength="261.3105" x="368.45" y="144.0591">transform: List&lt;RepEdgeTransform&gt;</text><text fill="#000000" font-family="Verdana" font-size="14" lengthAdjust="spacing" textLength="246.9824" x="368.45" y="161.0738">relationshipType: RelationshipType</text><text fill="#000000" font-family="Verdana" font-size="14" lengthAdjust="spacing" textLength="301.2871" x="368.45" y="178.0884">relationshipSubType: RelationshipSubType</text><text fill="#000000" font-family="Verdana" font-size="14" lengthAdjust="spacing" textLength="247.5908" x="368.45" y="195.1031">metadata: RepGraphEdgeMetadata</text><text fill="#000000" font-family="Verdana" font-size="14" lengthAdjust="spacing" textLength="184.9531" x="368.45" y="212.1177">contributors: Set&lt;String&gt;</text><line style="stroke:#000000;stroke-width:1;" x1="363.45" x2="674.7371" y1="219.0572" y2="219.0572"/></g><!--class RepArtifactNode--><g class="entity" data-entity="RepArtifactNode" data-source-line="42" data-uid="ent0009" id="entity_RepArtifactNode"><rect fill="#FFFFFF" height="61.0146" rx="2.5" ry="2.5" style="stroke:#000000;stroke-width:1;" width="294.9736" x="371.6" y="1027.49"/><ellipse cx="458.4003" cy="1041.49" fill="#FFFFFF" rx="9" ry="9" style="stroke:#000000;stroke-width:1;"/><path d="M461.3734,1047.1331 Q460.7924,1047.4319 460.1532,1047.5813 Q459.5141,1047.7307 458.8085,1047.7307 Q456.3017,1047.7307 454.9818,1046.0789 Q453.662,1044.427 453.662,1041.3059 Q453.662,1038.1765 454.9818,1036.5247 Q456.3017,1034.8728 458.8085,1034.8728 Q459.5141,1034.8728 460.1615,1035.0222 Q460.809,1035.1716 461.3734,1035.4705 L461.3734,1038.1931 Q460.7426,1037.6121 460.1491,1037.3423 Q459.5556,1037.0725 458.9247,1037.0725 Q457.58,1037.0725 456.8952,1038.1392 Q456.2104,1039.2058 456.2104,1041.3059 Q456.2104,1043.3977 456.8952,1044.4644 Q457.58,1045.531 458.9247,1045.531 Q459.5556,1045.531 460.1491,1045.2612 Q460.7426,1044.9915 461.3734,1044.4104 Z " fill="#000000"/><text fill="#000000" font-family="Verdana" font-size="14" lengthAdjust="spacing" textLength="113.873" x="475.9003" y="1047.0579">RepArtifactNode</text><line style="stroke:#000000;stroke-width:1;" x1="372.6" x2="665.5736" y1="1055.49" y2="1055.49"/><text fill="#000000" font-family="Verdana" font-size="14" lengthAdjust="spacing" textLength="282.9736" x="377.6" y="1073.5652">identification: List&lt;RepArtifactMatcher&gt;</text><line style="stroke:#000000;stroke-width:1;" x1="372.6" x2="665.5736" y1="1080.5046" y2="1080.5046"/></g><!--class RepCpeNode--><g class="entity" data-entity="RepCpeNode" data-source-line="45" data-uid="ent0010" id="entity_RepCpeNode"><rect fill="#FFFFFF" height="61.0146" rx="2.5" ry="2.5" style="stroke:#000000;stroke-width:1;" width="117.667" x="460.26" y="931.49"/><ellipse cx="473.26" cy="945.49" fill="#FFFFFF" rx="9" ry="9" style="stroke:#000000;stroke-width:1;"/><path d="M476.2331,951.1331 Q475.6521,951.4319 475.0129,951.5813 Q474.3738,951.7307 473.6682,951.7307 Q471.1614,951.7307 469.8415,950.0789 Q468.5217,948.427 468.5217,945.3059 Q468.5217,942.1765 469.8415,940.5247 Q471.1614,938.8728 473.6682,938.8728 Q474.3738,938.8728 475.0212,939.0222 Q475.6687,939.1716 476.2331,939.4705 L476.2331,942.1931 Q475.6023,941.6121 475.0088,941.3423 Q474.4153,941.0725 473.7844,941.0725 Q472.4397,941.0725 471.7549,942.1392 Q471.0701,943.2058 471.0701,945.3059 Q471.0701,947.3977 471.7549,948.4644 Q472.4397,949.531 473.7844,949.531 Q474.4153,949.531 475.0088,949.2612 Q475.6023,948.9915 476.2331,948.4104 Z " fill="#000000"/><text fill="#000000" font-family="Verdana" font-size="14" lengthAdjust="spacing" textLength="89.667" x="485.26" y="951.0579">RepCpeNode</text><line style="stroke:#000000;stroke-width:1;" x1="461.26" x2="576.927" y1="959.49" y2="959.49"/><text fill="#000000" font-family="Verdana" font-size="14" lengthAdjust="spacing" textLength="78.1211" x="466.26" y="977.5652">cpe: String</text><line style="stroke:#000000;stroke-width:1;" x1="461.26" x2="576.927" y1="984.5046" y2="984.5046"/></g><!--class RepEolNode--><g class="entity" data-entity="RepEolNode" data-source-line="48" data-uid="ent0011" id="entity_RepEolNode"><rect fill="#FFFFFF" height="61.0146" rx="2.5" ry="2.5" style="stroke:#000000;stroke-width:1;" width="112.0205" x="463.08" y="835.49"/><ellipse cx="476.08" cy="849.49" fill="#FFFFFF" rx="9" ry="9" style="stroke:#000000;stroke-width:1;"/><path d="M479.0531,855.1331 Q478.4721,855.4319 477.8329,855.5813 Q477.1938,855.7307 476.4882,855.7307 Q473.9814,855.7307 472.6615,854.0789 Q471.3417,852.427 471.3417,849.3059 Q471.3417,846.1765 472.6615,844.5247 Q473.9814,842.8728 476.4882,842.8728 Q477.1938,842.8728 477.8412,843.0222 Q478.4887,843.1716 479.0531,843.4705 L479.0531,846.1931 Q478.4223,845.6121 477.8288,845.3423 Q477.2353,845.0725 476.6044,845.0725 Q475.2597,845.0725 474.5749,846.1392 Q473.8901,847.2058 473.8901,849.3059 Q473.8901,851.3977 474.5749,852.4644 Q475.2597,853.531 476.6044,853.531 Q477.2353,853.531 477.8288,853.2612 Q478.4223,852.9915 479.0531,852.4104 Z " fill="#000000"/><text fill="#000000" font-family="Verdana" font-size="14" lengthAdjust="spacing" textLength="84.0205" x="488.08" y="855.0579">RepEolNode</text><line style="stroke:#000000;stroke-width:1;" x1="464.08" x2="574.1005" y1="863.49" y2="863.49"/><text fill="#000000" font-family="Verdana" font-size="14" lengthAdjust="spacing" textLength="89.0586" x="469.08" y="881.5652">eolId: String</text><line style="stroke:#000000;stroke-width:1;" x1="464.08" x2="574.1005" y1="888.5046" y2="888.5046"/></g><!--class RepMsProductIdNode--><g class="entity" data-entity="RepMsProductIdNode" data-source-line="51" data-uid="ent0012" id="entity_RepMsProductIdNode"><rect fill="#FFFFFF" height="61.0146" rx="2.5" ry="2.5" style="stroke:#000000;stroke-width:1;" width="177.8438" x="430.17" y="739.49"/><ellipse cx="443.17" cy="753.49" fill="#FFFFFF" rx="9" ry="9" style="stroke:#000000;stroke-width:1;"/><path d="M446.1431,759.1331 Q445.5621,759.4319 444.9229,759.5813 Q444.2838,759.7307 443.5782,759.7307 Q441.0714,759.7307 439.7515,758.0789 Q438.4317,756.427 438.4317,753.3059 Q438.4317,750.1765 439.7515,748.5247 Q441.0714,746.8728 443.5782,746.8728 Q444.2838,746.8728 444.9312,747.0222 Q445.5787,747.1716 446.1431,747.4705 L446.1431,750.1931 Q445.5123,749.6121 444.9188,749.3423 Q444.3253,749.0725 443.6944,749.0725 Q442.3497,749.0725 441.6649,750.1392 Q440.9801,751.2058 440.9801,753.3059 Q440.9801,755.3977 441.6649,756.4644 Q442.3497,757.531 443.6944,757.531 Q444.3253,757.531 444.9188,757.2612 Q445.5123,756.9915 446.1431,756.4104 Z " fill="#000000"/><text fill="#000000" font-family="Verdana" font-size="14" lengthAdjust="spacing" textLength="149.8438" x="455.17" y="759.0579">RepMsProductIdNode</text><line style="stroke:#000000;stroke-width:1;" x1="431.17" x2="607.0138" y1="767.49" y2="767.49"/><text fill="#000000" font-family="Verdana" font-size="14" lengthAdjust="spacing" textLength="89.291" x="436.17" y="785.5652">msId: String</text><line style="stroke:#000000;stroke-width:1;" x1="431.17" x2="607.0138" y1="792.5046" y2="792.5046"/></g><!--class RepProductNode--><g class="entity" data-entity="RepProductNode" data-source-line="54" data-uid="ent0013" id="entity_RepProductNode"><rect fill="#FFFFFF" height="61.0146" rx="2.5" ry="2.5" style="stroke:#000000;stroke-width:1;" width="361.0361" x="338.57" y="643.49"/><ellipse cx="457.2702" cy="657.49" fill="#FFFFFF" rx="9" ry="9" style="stroke:#000000;stroke-width:1;"/><path d="M460.2433,663.1331 Q459.6623,663.4319 459.0231,663.5813 Q458.384,663.7307 457.6784,663.7307 Q455.1716,663.7307 453.8517,662.0789 Q452.5319,660.427 452.5319,657.3059 Q452.5319,654.1765 453.8517,652.5247 Q455.1716,650.8728 457.6784,650.8728 Q458.384,650.8728 459.0314,651.0222 Q459.6789,651.1716 460.2433,651.4705 L460.2433,654.1931 Q459.6125,653.6121 459.019,653.3423 Q458.4255,653.0725 457.7946,653.0725 Q456.4499,653.0725 455.7651,654.1392 Q455.0803,655.2058 455.0803,657.3059 Q455.0803,659.3977 455.7651,660.4644 Q456.4499,661.531 457.7946,661.531 Q458.4255,661.531 459.019,661.2612 Q459.6125,660.9915 460.2433,660.4104 Z " fill="#000000"/><text fill="#000000" font-family="Verdana" font-size="14" lengthAdjust="spacing" textLength="116.1357" x="474.7702" y="663.0579">RepProductNode</text><line style="stroke:#000000;stroke-width:1;" x1="339.57" x2="698.6061" y1="671.49" y2="671.49"/><text fill="#000000" font-family="Verdana" font-size="14" lengthAdjust="spacing" textLength="349.0361" x="344.57" y="689.5652">namespaces: List&lt;RepGraphProductNamespace&gt;</text><line style="stroke:#000000;stroke-width:1;" x1="339.57" x2="698.6061" y1="696.5046" y2="696.5046"/></g><!--class RepPurlNode--><g class="entity" data-entity="RepPurlNode" data-source-line="57" data-uid="ent0014" id="entity_RepPurlNode"><rect fill="#FFFFFF" height="61.0146" rx="2.5" ry="2.5" style="stroke:#000000;stroke-width:1;" width="117.9473" x="460.12" y="547.49"/><ellipse cx="473.12" cy="561.49" fill="#FFFFFF" rx="9" ry="9" style="stroke:#000000;stroke-width:1;"/><path d="M476.0931,567.1331 Q475.5121,567.4319 474.8729,567.5813 Q474.2338,567.7307 473.5282,567.7307 Q471.0214,567.7307 469.7015,566.0789 Q468.3817,564.427 468.3817,561.3059 Q468.3817,558.1765 469.7015,556.5247 Q471.0214,554.8728 473.5282,554.8728 Q474.2338,554.8728 474.8812,555.0222 Q475.5287,555.1716 476.0931,555.4705 L476.0931,558.1931 Q475.4623,557.6121 474.8688,557.3423 Q474.2753,557.0725 473.6444,557.0725 Q472.2997,557.0725 471.6149,558.1392 Q470.9301,559.2058 470.9301,561.3059 Q470.9301,563.3977 471.6149,564.4644 Q472.2997,565.531 473.6444,565.531 Q474.2753,565.531 474.8688,565.2612 Q475.4623,564.9915 476.0931,564.4104 Z " fill="#000000"/><text fill="#000000" font-family="Verdana" font-size="14" lengthAdjust="spacing" textLength="89.9473" x="485.12" y="567.0579">RepPurlNode</text><line style="stroke:#000000;stroke-width:1;" x1="461.12" x2="577.0673" y1="575.49" y2="575.49"/><text fill="#000000" font-family="Verdana" font-size="14" lengthAdjust="spacing" textLength="81.1631" x="466.12" y="593.5652">purl: String</text><line style="stroke:#000000;stroke-width:1;" x1="461.12" x2="577.0673" y1="600.5046" y2="600.5046"/></g><!--link RepGraphQuery to TraversalQuery--><!--reverse link TraversalQuery to RepGraphQuery--><g class="link" data-entity-1="TraversalQuery" data-entity-2="RepGraphQuery" data-source-line="73" data-uid="lnk26" id="link_TraversalQuery_RepGraphQuery"><path codeLine="73" d="M342,299.83 C318.71,299.83 301.15,299.83 278.85,299.83" fill="none" id="TraversalQuery-backto-RepGraphQuery" style="stroke:#820000;stroke-width:1;"/><polygon fill="#820000" points="348,299.83,339,295.83,343,299.83,339,303.83,348,299.83" style="stroke:#820000;stroke-width:1;"/></g><!--link RepArtifactNode to RepGraphNode--><g class="link" data-entity-1="RepArtifactNode" data-entity-2="RepGraphNode" data-source-line="64" data-uid="lnk17" id="link_RepArtifactNode_RepGraphNode"><path codeLine="64" d="M667.02,1058 C833.84,1058 1082.12,1058 1082.12,1058 C1082.12,1058 1082.12,673.57 1082.12,489.25" fill="none" id="RepArtifactNode-to-RepGraphNode" style="stroke:#000082;stroke-width:1;"/><polygon fill="none" points="1082.12,471.25,1076.12,489.25,1088.12,489.25,1082.12,471.25" style="stroke:#000082;stroke-width:1;"/></g><!--link RepCpeNode to RepGraphNode--><g class="link" data-entity-1="RepCpeNode" data-entity-2="RepGraphNode" data-source-line="65" data-uid="lnk18" id="link_RepCpeNode_RepGraphNode"><path codeLine="65" d="M578.3,962 C710.48,962 1018.12,962 1018.12,962 C1018.12,962 1018.12,652.76 1018.12,489.46" fill="none" id="RepCpeNode-to-RepGraphNode" style="stroke:#000082;stroke-width:1;"/><polygon fill="none" points="1018.12,471.46,1012.12,489.46,1024.12,489.46,1018.12,471.46" style="stroke:#000082;stroke-width:1;"/></g><!--link RepEolNode to RepGraphNode--><g class="link" data-entity-1="RepEolNode" data-entity-2="RepGraphNode" data-source-line="66" data-uid="lnk19" id="link_RepEolNode_RepGraphNode"><path codeLine="66" d="M575.39,866 C692.83,866 953.12,866 953.12,866 C953.12,866 953.12,629.69 953.12,489.37" fill="none" id="RepEolNode-to-RepGraphNode" style="stroke:#000082;stroke-width:1;"/><polygon fill="none" points="953.12,471.37,947.12,489.37,959.12,489.37,953.12,471.37" style="stroke:#000082;stroke-width:1;"/></g><!--link RepMsProductIdNode to RepGraphNode--><g class="link" data-entity-1="RepMsProductIdNode" data-entity-2="RepGraphNode" data-source-line="67" data-uid="lnk20" id="link_RepMsProductIdNode_RepGraphNode"><path codeLine="67" d="M608.19,770 C717.68,770 889.12,770 889.12,770 C889.12,770 889.12,604.14 889.12,489.22" fill="none" id="RepMsProductIdNode-to-RepGraphNode" style="stroke:#000082;stroke-width:1;"/><polygon fill="none" points="889.12,471.22,883.12,489.22,895.12,489.22,889.12,471.22" style="stroke:#000082;stroke-width:1;"/></g><!--link RepPurlNode to RepGraphNode--><g class="link" data-entity-1="RepPurlNode" data-entity-2="RepGraphNode" data-source-line="68" data-uid="lnk21" id="link_RepPurlNode_RepGraphNode"><path codeLine="68" d="M578.26,578 C666.97,578 824.12,578 824.12,578 C824.12,578 824.12,541.22 824.12,489.43" fill="none" id="RepPurlNode-to-RepGraphNode" style="stroke:#000082;stroke-width:1;"/><polygon fill="none" points="824.12,471.43,818.12,489.43,830.12,489.43,824.12,471.43" style="stroke:#000082;stroke-width:1;"/></g><!--link RepProductNode to RepGraphNode--><g class="link" data-entity-1="RepProductNode" data-entity-2="RepGraphNode" data-source-line="69" data-uid="lnk22" id="link_RepProductNode_RepGraphNode"><path codeLine="69" d="M695.12,643.12 C695.12,580.61 695.12,445 695.12,445 C695.12,445 704.43,445 741.29,445" fill="none" id="RepProductNode-to-RepGraphNode" style="stroke:#000082;stroke-width:1;"/><polygon fill="none" points="759.29,445,741.29,439,741.29,451,759.29,445" style="stroke:#000082;stroke-width:1;"/></g><!--reverse link RepGraph to RepGraphNode--><g class="link" data-entity-1="RepGraph" data-entity-2="RepGraphNode" data-source-line="70" data-uid="lnk23" id="link_RepGraph_RepGraphNode"><path codeLine="70" d="M614.28,419 C658.09,419 706.71,419 759.47,419" fill="none" id="RepGraph-backto-RepGraphNode" style="stroke:#820000;stroke-width:1;"/><polygon fill="#820000" points="608.28,419,617.28,423,613.28,419,617.28,415,608.28,419" style="stroke:#820000;stroke-width:1;"/></g><!--reverse link RepGraphEdge to RepGraphNode--><g class="link" data-entity-1="RepGraphEdge" data-entity-2="RepGraphNode" data-source-line="71" data-uid="lnk24" id="link_RepGraphEdge_RepGraphNode"><path codeLine="71" d="M682.09,137 C806.36,137 953.12,137 953.12,137 C953.12,137 953.12,221.05 953.12,290.49" fill="none" id="RepGraphEdge-backto-RepGraphNode" style="stroke:#820000;stroke-width:1;"/><polygon fill="#820000" points="676.09,137,685.09,141,681.09,137,685.09,133,676.09,137" style="stroke:#820000;stroke-width:1;"/></g><!--reverse link RepGraphQuery to RepGraph--><g class="link" data-entity-1="RepGraphQuery" data-entity-2="RepGraph" data-source-line="72" data-uid="lnk25" id="link_RepGraphQuery_RepGraph"><path codeLine="72" d="M153.12,346.79 C153.12,382.93 153.12,432 153.12,432 C153.12,432 321.7,432 430.03,432" fill="none" id="RepGraphQuery-backto-RepGraph" style="stroke:#820000;stroke-width:1;"/><polygon fill="#820000" points="153.12,340.79,149.12,349.79,153.12,345.79,157.12,349.79,153.12,340.79" style="stroke:#820000;stroke-width:1;"/></g><!--SRC=[bLLHRvim47xdLtZTQoDDVQfG56bgkwdIsB8cUwewoSKNi0hOEvj9rPJ_lZF450nXp4_9TzztlllEDkzi3YKmNN1PHUP5LfeZBraXAx2l6fX2cwkeW8DbLZ6KMMwPa0YfbQgA8itJ5vu1k_YCNEViHY5Si3yHevKMt1Zs0BeDjQ1RfH8GisyQaBia2VtjOgcggZPtJCdyxoPydCZwlGPyxQKMt7AI6OjrQXN6x7O8Z1BjaVy6DBm8Cu78u9CiB0LZzaKQkzuY29bo2sk_-nrnDfjEKb4Z_v9y9KvFyiljUkljZ8Doki3P_bswNj6Pm-8ksk6r55IHgh8ESS3Eekn1hlmzZNmSu2KO6ZHGMpkmwpRyraG9bZlZuq5PoGdjZvQ4ppMDuKmYX8Ay4avDZ8JhWTENW_IRivuuRi-JSUz6rPZ2Zn5kEMPW9t3abJaeB4zJfOtS7diF1mtGl4mkTMlbGu1CKdVryvXz0cTSTaNyfyl7wDYxiytfSPkOqPtzY5OUU6g30oO5L1HmPxevhzuFJq-uJNF0oU7SQ0YofS5X2mHtgWW4e8fxCIT9p1QLeAj-Bm9fQUQL9rsWwXzztslZlQVx-6J7snh33ZH1GHaqaU0LMjNwCPU2l7vQ3P-wA0fditfy_u7MzTLbyuG_hNuEhadKCtu1rLk-W1fQlK3I-R64svl70dhxZLaJy_hASJrpcjWy4Kl9xKncsE7uPgZj4Fy2]--></g></svg>